STARTFONT 2.3
FONT -FontForge-Rajdhani-Book-R-Normal--12-120-72-72-P-73-ISO10646-1
SIZE 12 72 72  2
FONTBOUNDINGBOX 30 15 -5 -4
COMMENT "Generated by fontforge, http://fontforge.sourceforge.net"
COMMENT "Copyright (c) 2014 Indian Type Foundry (info@indiantypefoundry.com)"
STARTPROPERTIES 41
FOUNDRY "FontForge"
FAMILY_NAME "Rajdhani"
WEIGHT_NAME "Book"
SLANT "R"
SETWIDTH_NAME "Normal"
ADD_STYLE_NAME ""
PIXEL_SIZE 12
POINT_SIZE 120
RESOLUTION_X 72
RESOLUTION_Y 72
SPACING "P"
AVERAGE_WIDTH 73
CHARSET_REGISTRY "ISO10646"
CHARSET_ENCODING "1"
FONTNAME_REGISTRY ""
CHARSET_COLLECTIONS "ISO8859-2 ISO8859-9 ISO8859-4 ISO10646-1"
BITS_PER_PIXEL 2
FONT_NAME "Rajdhani-Regular"
FACE_NAME "Rajdhani Regular"
COPYRIGHT "Copyright (c) 2014 Indian Type Foundry (info@indiantypefoundry.com)"
FONT_VERSION "1.201;PS 1.0;hotconv 1.0.78;makeotf.lib2.5.61930; ttfautohint (v1.1) -l 7 -r 28 -G 50 -x 13 -D latn -f deva -w G"
FONT_ASCENT 10
FONT_DESCENT 2
UNDERLINE_POSITION -1
UNDERLINE_THICKNESS 1
X_HEIGHT 5
CAP_HEIGHT 7
DEFAULT_CHAR 3
RAW_ASCENT 800
RAW_DESCENT 200
NORM_SPACE 3
RELATIVE_WEIGHT 40
RELATIVE_SETWIDTH 50
SUPERSCRIPT_X 0
SUPERSCRIPT_Y 4
SUPERSCRIPT_SIZE 7
SUBSCRIPT_X 0
SUBSCRIPT_Y 0
SUBSCRIPT_SIZE 7
AVG_LOWERCASE_WIDTH 54
AVG_UPPERCASE_WIDTH 63
ENDPROPERTIES
CHARS 1043
STARTCHAR NULL.dup1
ENCODING 0
SWIDTH 0 0
DWIDTH 0 0
BBX 1 1 0 0
BITMAP
00
ENDCHAR
STARTCHAR CR
ENCODING 13
SWIDTH 0 0
DWIDTH 0 0
BBX 1 1 0 0
BITMAP
00
ENDCHAR
STARTCHAR space
ENCODING 32
SWIDTH 267 0
DWIDTH 3 0
BBX 1 1 0 0
BITMAP
00
ENDCHAR
STARTCHAR exclam
ENCODING 33
SWIDTH 237 0
DWIDTH 3 0
BBX 1 8 1 0
BITMAP
80
80
80
80
40
00
40
80
ENDCHAR
STARTCHAR quotedbl
ENCODING 34
SWIDTH 330 0
DWIDTH 4 0
BBX 4 2 0 6
BITMAP
55
14
ENDCHAR
STARTCHAR numbersign
ENCODING 35
SWIDTH 677 0
DWIDTH 8 0
BBX 7 8 1 0
BITMAP
0420
0810
6AA4
1080
2080
AA90
5100
4200
ENDCHAR
STARTCHAR dollar
ENCODING 36
SWIDTH 504 0
DWIDTH 6 0
BBX 6 10 0 -1
BITMAP
0100
2A80
2040
5040
2000
1A80
0050
1050
2A80
0100
ENDCHAR
STARTCHAR percent
ENCODING 37
SWIDTH 717 0
DWIDTH 9 0
BBX 8 8 0 0
BITMAP
2510
4110
4250
1480
0055
0111
0111
0425
ENDCHAR
STARTCHAR ampersand
ENCODING 38
SWIDTH 597 0
DWIDTH 7 0
BBX 6 8 1 0
BITMAP
2A00
5140
5140
6000
5E90
4500
4240
AA80
ENDCHAR
STARTCHAR quotesingle
ENCODING 39
SWIDTH 186 0
DWIDTH 2 0
BBX 2 2 0 6
BITMAP
50
10
ENDCHAR
STARTCHAR parenleft
ENCODING 40
SWIDTH 283 0
DWIDTH 3 0
BBX 3 9 0 -1
BITMAP
24
50
50
50
50
50
50
50
14
ENDCHAR
STARTCHAR parenright
ENCODING 41
SWIDTH 283 0
DWIDTH 3 0
BBX 2 9 1 -1
BITMAP
80
20
20
20
20
20
20
10
40
ENDCHAR
STARTCHAR asterisk
ENCODING 42
SWIDTH 406 0
DWIDTH 5 0
BBX 3 3 1 5
BITMAP
10
54
54
ENDCHAR
STARTCHAR plus
ENCODING 43
SWIDTH 523 0
DWIDTH 6 0
BBX 5 5 1 1
BITMAP
0400
0400
AA40
0400
0400
ENDCHAR
STARTCHAR comma
ENCODING 44
SWIDTH 191 0
DWIDTH 2 0
BBX 2 3 0 -1
BITMAP
50
50
40
ENDCHAR
STARTCHAR hyphen
ENCODING 45
SWIDTH 312 0
DWIDTH 4 0
BBX 3 1 0 3
BITMAP
68
ENDCHAR
STARTCHAR period
ENCODING 46
SWIDTH 191 0
DWIDTH 2 0
BBX 2 2 0 0
BITMAP
10
50
ENDCHAR
STARTCHAR slash
ENCODING 47
SWIDTH 396 0
DWIDTH 5 0
BBX 3 8 1 0
BITMAP
08
08
14
20
20
50
80
40
ENDCHAR
STARTCHAR zero
ENCODING 48
SWIDTH 514 0
DWIDTH 6 0
BBX 6 8 0 0
BITMAP
2A80
1050
5050
5050
5050
5050
1050
2A80
ENDCHAR
STARTCHAR one
ENCODING 49
SWIDTH 317 0
DWIDTH 4 0
BBX 3 8 0 0
BITMAP
28
48
08
08
08
08
08
08
ENDCHAR
STARTCHAR two
ENCODING 50
SWIDTH 478 0
DWIDTH 6 0
BBX 5 8 0 0
BITMAP
2A40
5080
0080
0180
0500
2400
5000
6A80
ENDCHAR
STARTCHAR three
ENCODING 51
SWIDTH 496 0
DWIDTH 6 0
BBX 5 8 0 0
BITMAP
2A80
5080
1040
0080
0680
0080
5040
2A80
ENDCHAR
STARTCHAR four
ENCODING 52
SWIDTH 520 0
DWIDTH 6 0
BBX 6 8 0 0
BITMAP
0180
0280
0580
0880
2080
2080
6A90
0080
ENDCHAR
STARTCHAR five
ENCODING 53
SWIDTH 482 0
DWIDTH 6 0
BBX 5 8 0 0
BITMAP
6A80
5000
5000
6640
1080
0040
5080
2A80
ENDCHAR
STARTCHAR six
ENCODING 54
SWIDTH 497 0
DWIDTH 6 0
BBX 6 8 0 0
BITMAP
2A40
5000
5000
6A40
5080
5050
5040
2A80
ENDCHAR
STARTCHAR seven
ENCODING 55
SWIDTH 380 0
DWIDTH 5 0
BBX 5 8 0 0
BITMAP
6A40
0200
0200
0500
0800
0800
1400
2000
ENDCHAR
STARTCHAR eight
ENCODING 56
SWIDTH 519 0
DWIDTH 6 0
BBX 6 8 0 0
BITMAP
2A80
1050
5010
2050
2A80
1050
5050
2A80
ENDCHAR
STARTCHAR nine
ENCODING 57
SWIDTH 497 0
DWIDTH 6 0
BBX 6 8 0 0
BITMAP
2A80
5040
5050
5050
1A90
0050
0040
2A80
ENDCHAR
STARTCHAR colon
ENCODING 58
SWIDTH 191 0
DWIDTH 2 0
BBX 2 6 0 0
BITMAP
50
10
00
00
10
50
ENDCHAR
STARTCHAR semicolon
ENCODING 59
SWIDTH 191 0
DWIDTH 2 0
BBX 2 7 0 -1
BITMAP
50
10
00
00
10
50
40
ENDCHAR
STARTCHAR less
ENCODING 60
SWIDTH 513 0
DWIDTH 6 0
BBX 5 4 1 2
BITMAP
0640
6400
9000
0600
ENDCHAR
STARTCHAR equal
ENCODING 61
SWIDTH 531 0
DWIDTH 6 0
BBX 5 3 1 2
BITMAP
AA40
0000
6A40
ENDCHAR
STARTCHAR greater
ENCODING 62
SWIDTH 531 0
DWIDTH 6 0
BBX 5 4 1 2
BITMAP
9000
1900
0640
A400
ENDCHAR
STARTCHAR question
ENCODING 63
SWIDTH 473 0
DWIDTH 6 0
BBX 4 8 1 0
BITMAP
A9
82
42
08
14
10
10
14
ENDCHAR
STARTCHAR at
ENCODING 64
SWIDTH 753 0
DWIDTH 9 0
BBX 7 8 1 -1
BITMAP
1554
5584
5454
5454
5454
4564
5000
1540
ENDCHAR
STARTCHAR A
ENCODING 65
SWIDTH 533 0
DWIDTH 6 0
BBX 6 8 0 0
BITMAP
0600
0A00
0940
1480
2080
2A90
5020
8020
ENDCHAR
STARTCHAR B
ENCODING 66
SWIDTH 546 0
DWIDTH 7 0
BBX 5 8 1 0
BITMAP
AA00
8080
8080
8080
AA00
8080
8080
AA40
ENDCHAR
STARTCHAR C
ENCODING 67
SWIDTH 542 0
DWIDTH 7 0
BBX 5 8 1 0
BITMAP
AA40
8080
8040
8000
8000
8040
8080
AA40
ENDCHAR
STARTCHAR D
ENCODING 68
SWIDTH 557 0
DWIDTH 7 0
BBX 5 8 1 0
BITMAP
AA40
8080
8080
8080
8080
8080
8080
AA40
ENDCHAR
STARTCHAR E
ENCODING 69
SWIDTH 481 0
DWIDTH 6 0
BBX 4 8 1 0
BITMAP
AA
80
80
80
A9
80
80
AA
ENDCHAR
STARTCHAR F
ENCODING 70
SWIDTH 459 0
DWIDTH 6 0
BBX 4 8 1 0
BITMAP
AA
80
80
80
A9
80
80
80
ENDCHAR
STARTCHAR G
ENCODING 71
SWIDTH 539 0
DWIDTH 6 0
BBX 5 8 1 0
BITMAP
AA00
8080
8040
8000
8640
8080
8080
AA40
ENDCHAR
STARTCHAR H
ENCODING 72
SWIDTH 570 0
DWIDTH 7 0
BBX 5 8 1 0
BITMAP
8080
8080
8080
8080
AA80
8080
8080
8080
ENDCHAR
STARTCHAR I
ENCODING 73
SWIDTH 230 0
DWIDTH 3 0
BBX 1 8 1 0
BITMAP
80
80
80
80
80
80
80
80
ENDCHAR
STARTCHAR J
ENCODING 74
SWIDTH 499 0
DWIDTH 6 0
BBX 5 8 0 0
BITMAP
0080
0080
0080
0080
0080
4080
8080
2A40
ENDCHAR
STARTCHAR K
ENCODING 75
SWIDTH 530 0
DWIDTH 6 0
BBX 5 8 1 0
BITMAP
8140
8200
8800
9400
9800
8500
8240
8080
ENDCHAR
STARTCHAR L
ENCODING 76
SWIDTH 451 0
DWIDTH 5 0
BBX 4 8 1 0
BITMAP
80
80
80
80
80
80
80
AA
ENDCHAR
STARTCHAR M
ENCODING 77
SWIDTH 696 0
DWIDTH 8 0
BBX 7 8 1 0
BITMAP
C024
9024
A094
9494
8954
8614
8014
8014
ENDCHAR
STARTCHAR N
ENCODING 78
SWIDTH 579 0
DWIDTH 7 0
BBX 5 8 1 0
BITMAP
8080
D080
A080
8880
8880
8280
8180
8080
ENDCHAR
STARTCHAR O
ENCODING 79
SWIDTH 553 0
DWIDTH 7 0
BBX 5 8 1 0
BITMAP
AA40
8080
8080
8080
8080
8080
8080
AA40
ENDCHAR
STARTCHAR P
ENCODING 80
SWIDTH 524 0
DWIDTH 6 0
BBX 5 8 1 0
BITMAP
AA40
8080
8080
8080
AA00
8000
8000
8000
ENDCHAR
STARTCHAR Q
ENCODING 81
SWIDTH 556 0
DWIDTH 7 0
BBX 5 10 1 -2
BITMAP
AA40
8080
8080
8080
8080
8080
8080
AA40
0500
0200
ENDCHAR
STARTCHAR R
ENCODING 82
SWIDTH 534 0
DWIDTH 6 0
BBX 5 8 1 0
BITMAP
AA00
8080
8080
8040
AA00
8200
8200
8080
ENDCHAR
STARTCHAR S
ENCODING 83
SWIDTH 562 0
DWIDTH 7 0
BBX 5 8 1 0
BITMAP
6A40
8080
8000
6400
0640
4080
8080
6A40
ENDCHAR
STARTCHAR T
ENCODING 84
SWIDTH 420 0
DWIDTH 5 0
BBX 5 8 0 0
BITMAP
6A40
0800
0800
0800
0800
0800
0800
0800
ENDCHAR
STARTCHAR U
ENCODING 85
SWIDTH 552 0
DWIDTH 7 0
BBX 5 8 1 0
BITMAP
8080
8080
8080
8080
8080
8080
8080
6A40
ENDCHAR
STARTCHAR V
ENCODING 86
SWIDTH 500 0
DWIDTH 6 0
BBX 6 8 0 0
BITMAP
8020
5050
2080
2080
1540
0500
0A00
0A00
ENDCHAR
STARTCHAR W
ENCODING 87
SWIDTH 794 0
DWIDTH 10 0
BBX 9 8 0 0
BITMAP
809080
509080
216080
212140
221540
120A00
190A00
0C0A00
ENDCHAR
STARTCHAR X
ENCODING 88
SWIDTH 504 0
DWIDTH 6 0
BBX 6 8 0 0
BITMAP
5050
2080
0940
0A00
0A00
1540
2080
5050
ENDCHAR
STARTCHAR Y
ENCODING 89
SWIDTH 493 0
DWIDTH 6 0
BBX 6 8 0 0
BITMAP
5050
2080
2140
0A00
0900
0500
0500
0500
ENDCHAR
STARTCHAR Z
ENCODING 90
SWIDTH 482 0
DWIDTH 6 0
BBX 5 8 0 0
BITMAP
6AC0
0080
0200
0500
0800
1400
2000
6A80
ENDCHAR
STARTCHAR bracketleft
ENCODING 91
SWIDTH 287 0
DWIDTH 3 0
BBX 3 9 0 -1
BITMAP
64
50
50
50
50
50
50
50
24
ENDCHAR
STARTCHAR backslash
ENCODING 92
SWIDTH 396 0
DWIDTH 5 0
BBX 3 8 1 0
BITMAP
40
80
50
20
20
14
08
08
ENDCHAR
STARTCHAR bracketright
ENCODING 93
SWIDTH 287 0
DWIDTH 3 0
BBX 2 9 1 -1
BITMAP
60
20
20
20
20
20
20
20
50
ENDCHAR
STARTCHAR asciicircum
ENCODING 94
SWIDTH 465 0
DWIDTH 6 0
BBX 4 4 1 4
BITMAP
24
58
81
01
ENDCHAR
STARTCHAR underscore
ENCODING 95
SWIDTH 372 0
DWIDTH 4 0
BBX 5 1 0 -1
BITMAP
5540
ENDCHAR
STARTCHAR grave
ENCODING 96
SWIDTH 269 0
DWIDTH 3 0
BBX 1 1 1 7
BITMAP
80
ENDCHAR
STARTCHAR a
ENCODING 97
SWIDTH 502 0
DWIDTH 6 0
BBX 5 6 0 0
BITMAP
2A80
5040
5040
5040
5080
2A80
ENDCHAR
STARTCHAR b
ENCODING 98
SWIDTH 504 0
DWIDTH 6 0
BBX 5 8 1 0
BITMAP
4000
8000
AA00
8140
8140
8140
8140
AA00
ENDCHAR
STARTCHAR c
ENCODING 99
SWIDTH 394 0
DWIDTH 5 0
BBX 4 6 0 0
BITMAP
2A
50
50
50
50
2A
ENDCHAR
STARTCHAR d
ENCODING 100
SWIDTH 504 0
DWIDTH 6 0
BBX 5 8 0 0
BITMAP
0040
0040
2A80
5080
5040
5040
5080
2A80
ENDCHAR
STARTCHAR e
ENCODING 101
SWIDTH 492 0
DWIDTH 6 0
BBX 6 6 0 0
BITMAP
2A80
5040
5050
6580
5000
2A80
ENDCHAR
STARTCHAR f
ENCODING 102
SWIDTH 303 0
DWIDTH 4 0
BBX 4 8 0 0
BITMAP
19
20
69
20
20
20
20
20
ENDCHAR
STARTCHAR g
ENCODING 103
SWIDTH 506 0
DWIDTH 6 0
BBX 6 8 0 -2
BITMAP
2A90
1050
5050
5050
2090
1A90
0040
1A80
ENDCHAR
STARTCHAR h
ENCODING 104
SWIDTH 507 0
DWIDTH 6 0
BBX 5 8 1 0
BITMAP
4000
8000
AA00
8140
8140
8140
8140
4140
ENDCHAR
STARTCHAR i
ENCODING 105
SWIDTH 210 0
DWIDTH 3 0
BBX 1 8 1 0
BITMAP
80
40
80
80
80
80
80
80
ENDCHAR
STARTCHAR j
ENCODING 106
SWIDTH 210 0
DWIDTH 3 0
BBX 3 10 -1 -2
BITMAP
08
04
08
08
08
08
08
08
08
60
ENDCHAR
STARTCHAR k
ENCODING 107
SWIDTH 431 0
DWIDTH 5 0
BBX 4 8 1 0
BITMAP
40
80
85
88
94
94
88
42
ENDCHAR
STARTCHAR l
ENCODING 108
SWIDTH 210 0
DWIDTH 3 0
BBX 1 8 1 0
BITMAP
80
80
80
80
80
80
80
80
ENDCHAR
STARTCHAR m
ENCODING 109
SWIDTH 769 0
DWIDTH 9 0
BBX 8 6 1 0
BITMAP
A968
8205
8205
8205
8205
4205
ENDCHAR
STARTCHAR n
ENCODING 110
SWIDTH 507 0
DWIDTH 6 0
BBX 5 6 1 0
BITMAP
AA00
8140
8140
8140
8140
4140
ENDCHAR
STARTCHAR o
ENCODING 111
SWIDTH 496 0
DWIDTH 6 0
BBX 6 6 0 0
BITMAP
2A80
5040
5050
5050
5040
2A80
ENDCHAR
STARTCHAR p
ENCODING 112
SWIDTH 504 0
DWIDTH 6 0
BBX 5 8 1 -2
BITMAP
AA00
8140
8140
8140
8140
AA00
8000
4000
ENDCHAR
STARTCHAR q
ENCODING 113
SWIDTH 502 0
DWIDTH 6 0
BBX 5 8 0 -2
BITMAP
2A80
5040
5040
5040
5080
2A80
0040
0040
ENDCHAR
STARTCHAR r
ENCODING 114
SWIDTH 313 0
DWIDTH 4 0
BBX 3 6 1 0
BITMAP
94
80
80
80
80
40
ENDCHAR
STARTCHAR s
ENCODING 115
SWIDTH 431 0
DWIDTH 5 0
BBX 5 6 0 0
BITMAP
2A00
5000
2400
0240
0080
2A40
ENDCHAR
STARTCHAR t
ENCODING 116
SWIDTH 347 0
DWIDTH 4 0
BBX 4 7 0 0
BITMAP
20
79
20
20
20
20
19
ENDCHAR
STARTCHAR u
ENCODING 117
SWIDTH 507 0
DWIDTH 6 0
BBX 5 6 1 0
BITMAP
4140
4140
4140
4140
4140
AA40
ENDCHAR
STARTCHAR v
ENCODING 118
SWIDTH 416 0
DWIDTH 5 0
BBX 5 6 0 0
BITMAP
8080
5140
2200
2200
1500
0C00
ENDCHAR
STARTCHAR w
ENCODING 119
SWIDTH 683 0
DWIDTH 8 0
BBX 8 6 0 0
BITMAP
8182
5282
2245
2158
1828
0824
ENDCHAR
STARTCHAR x
ENCODING 120
SWIDTH 413 0
DWIDTH 5 0
BBX 5 6 0 0
BITMAP
5140
2200
1800
1900
2200
5140
ENDCHAR
STARTCHAR y
ENCODING 121
SWIDTH 459 0
DWIDTH 6 0
BBX 5 8 0 -2
BITMAP
8080
5080
2140
2200
1600
0900
0800
6400
ENDCHAR
STARTCHAR z
ENCODING 122
SWIDTH 405 0
DWIDTH 5 0
BBX 5 6 0 0
BITMAP
6A40
0200
0800
1400
2000
6A40
ENDCHAR
STARTCHAR braceleft
ENCODING 123
SWIDTH 298 0
DWIDTH 4 0
BBX 3 9 0 -1
BITMAP
14
20
20
20
50
20
20
20
14
ENDCHAR
STARTCHAR bar
ENCODING 124
SWIDTH 207 0
DWIDTH 2 0
BBX 1 8 1 0
BITMAP
40
40
40
40
40
40
40
40
ENDCHAR
STARTCHAR braceright
ENCODING 125
SWIDTH 298 0
DWIDTH 4 0
BBX 3 9 0 -1
BITMAP
50
20
20
10
18
20
20
20
50
ENDCHAR
STARTCHAR asciitilde
ENCODING 126
SWIDTH 523 0
DWIDTH 6 0
BBX 4 1 1 3
BITMAP
55
ENDCHAR
STARTCHAR uni00A0
ENCODING 160
SWIDTH 267 0
DWIDTH 3 0
BBX 1 1 0 0
BITMAP
00
ENDCHAR
STARTCHAR exclamdown
ENCODING 161
SWIDTH 237 0
DWIDTH 3 0
BBX 1 8 1 0
BITMAP
80
40
00
40
80
80
80
80
ENDCHAR
STARTCHAR cent
ENCODING 162
SWIDTH 414 0
DWIDTH 5 0
BBX 5 8 0 -1
BITMAP
0500
2A40
5000
5000
5000
5000
2A40
0500
ENDCHAR
STARTCHAR sterling
ENCODING 163
SWIDTH 528 0
DWIDTH 6 0
BBX 6 8 0 0
BITMAP
1A80
2050
2000
2000
6900
2000
2000
6A90
ENDCHAR
STARTCHAR yen
ENCODING 165
SWIDTH 499 0
DWIDTH 6 0
BBX 6 8 0 0
BITMAP
5050
2080
2080
1540
5A50
5A50
0500
0500
ENDCHAR
STARTCHAR brokenbar
ENCODING 166
SWIDTH 201 0
DWIDTH 2 0
BBX 1 8 1 0
BITMAP
40
40
40
00
00
40
40
40
ENDCHAR
STARTCHAR section
ENCODING 167
SWIDTH 454 0
DWIDTH 5 0
BBX 5 8 0 0
BITMAP
2A40
5000
6500
5180
2480
0680
0080
2A40
ENDCHAR
STARTCHAR dieresis
ENCODING 168
SWIDTH 345 0
DWIDTH 4 0
BBX 4 2 0 6
BITMAP
55
11
ENDCHAR
STARTCHAR copyright
ENCODING 169
SWIDTH 723 0
DWIDTH 9 0
BBX 7 8 1 0
BITMAP
9554
4004
4944
5444
5404
5444
4544
9554
ENDCHAR
STARTCHAR guillemotleft
ENCODING 171
SWIDTH 431 0
DWIDTH 5 0
BBX 4 4 1 1
BITMAP
15
54
94
15
ENDCHAR
STARTCHAR registered
ENCODING 174
SWIDTH 439 0
DWIDTH 5 0
BBX 5 3 0 5
BITMAP
1E40
5940
1500
ENDCHAR
STARTCHAR macron
ENCODING 175
SWIDTH 358 0
DWIDTH 4 0
BBX 3 1 1 7
BITMAP
54
ENDCHAR
STARTCHAR degree
ENCODING 176
SWIDTH 298 0
DWIDTH 4 0
BBX 2 3 1 5
BITMAP
90
50
50
ENDCHAR
STARTCHAR plusminus
ENCODING 177
SWIDTH 523 0
DWIDTH 6 0
BBX 5 5 1 1
BITMAP
0400
AA40
0400
0000
AA40
ENDCHAR
STARTCHAR acute
ENCODING 180
SWIDTH 269 0
DWIDTH 3 0
BBX 1 2 1 6
BITMAP
80
40
ENDCHAR
STARTCHAR paragraph
ENCODING 182
SWIDTH 513 0
DWIDTH 6 0
BBX 5 8 0 0
BITMAP
3A80
7840
7840
3840
0840
0840
0840
0840
ENDCHAR
STARTCHAR periodcentered
ENCODING 183
SWIDTH 207 0
DWIDTH 2 0
BBX 1 2 1 3
BITMAP
40
80
ENDCHAR
STARTCHAR cedilla
ENCODING 184
SWIDTH 257 0
DWIDTH 3 0
BBX 1 3 1 -2
BITMAP
40
80
40
ENDCHAR
STARTCHAR guillemotright
ENCODING 187
SWIDTH 431 0
DWIDTH 5 0
BBX 4 4 1 1
BITMAP
54
55
54
50
ENDCHAR
STARTCHAR questiondown
ENCODING 191
SWIDTH 473 0
DWIDTH 6 0
BBX 4 8 1 0
BITMAP
20
10
10
20
50
81
82
A9
ENDCHAR
STARTCHAR Agrave
ENCODING 192
SWIDTH 532 0
DWIDTH 6 0
BBX 6 10 0 0
BITMAP
0800
0000
0600
0A00
0940
1480
2080
2A90
5020
8020
ENDCHAR
STARTCHAR Aacute
ENCODING 193
SWIDTH 532 0
DWIDTH 6 0
BBX 6 10 0 0
BITMAP
0140
0100
0600
0A00
0940
1480
2080
2A90
5020
8020
ENDCHAR
STARTCHAR Acircumflex
ENCODING 194
SWIDTH 532 0
DWIDTH 6 0
BBX 6 10 0 0
BITMAP
0600
0400
0600
0A00
0940
1480
2080
2A90
5020
8020
ENDCHAR
STARTCHAR Atilde
ENCODING 195
SWIDTH 532 0
DWIDTH 6 0
BBX 6 10 0 0
BITMAP
0540
0440
0600
0A00
0940
1480
2080
2A90
5020
8020
ENDCHAR
STARTCHAR Adieresis
ENCODING 196
SWIDTH 532 0
DWIDTH 6 0
BBX 6 10 0 0
BITMAP
0840
0440
0600
0A00
0940
1480
2080
2A90
5020
8020
ENDCHAR
STARTCHAR Aring
ENCODING 197
SWIDTH 532 0
DWIDTH 6 0
BBX 6 11 0 0
BITMAP
0500
0500
0500
0700
0A00
0940
1480
2080
2A90
5020
8020
ENDCHAR
STARTCHAR AE
ENCODING 198
SWIDTH 773 0
DWIDTH 9 0
BBX 9 8 0 0
BITMAP
00EA40
028000
014000
084000
146A00
2A8000
504000
806A40
ENDCHAR
STARTCHAR Ccedilla
ENCODING 199
SWIDTH 542 0
DWIDTH 7 0
BBX 5 10 1 -2
BITMAP
AA40
8080
8040
8000
8000
8040
8080
AA40
0800
0400
ENDCHAR
STARTCHAR Egrave
ENCODING 200
SWIDTH 481 0
DWIDTH 6 0
BBX 4 10 1 0
BITMAP
20
00
AA
80
80
80
A9
80
80
AA
ENDCHAR
STARTCHAR Eacute
ENCODING 201
SWIDTH 481 0
DWIDTH 6 0
BBX 4 10 1 0
BITMAP
08
00
AA
80
80
80
A9
80
80
AA
ENDCHAR
STARTCHAR Ecircumflex
ENCODING 202
SWIDTH 481 0
DWIDTH 6 0
BBX 4 10 1 0
BITMAP
14
14
AA
80
80
80
A9
80
80
AA
ENDCHAR
STARTCHAR Edieresis
ENCODING 203
SWIDTH 481 0
DWIDTH 6 0
BBX 4 10 1 0
BITMAP
55
00
AA
80
80
80
A9
80
80
AA
ENDCHAR
STARTCHAR Igrave
ENCODING 204
SWIDTH 230 0
DWIDTH 3 0
BBX 2 10 0 0
BITMAP
80
10
20
20
20
20
20
20
20
20
ENDCHAR
STARTCHAR Iacute
ENCODING 205
SWIDTH 231 0
DWIDTH 3 0
BBX 2 10 1 0
BITMAP
50
40
80
80
80
80
80
80
80
80
ENDCHAR
STARTCHAR Icircumflex
ENCODING 206
SWIDTH 229 0
DWIDTH 3 0
BBX 3 10 0 0
BITMAP
60
44
20
20
20
20
20
20
20
20
ENDCHAR
STARTCHAR Idieresis
ENCODING 207
SWIDTH 230 0
DWIDTH 3 0
BBX 3 10 0 0
BITMAP
88
44
20
20
20
20
20
20
20
20
ENDCHAR
STARTCHAR Eth
ENCODING 208
SWIDTH 514 0
DWIDTH 6 0
BBX 6 8 0 0
BITMAP
2A90
2020
2020
2020
6920
2020
2020
2A90
ENDCHAR
STARTCHAR Ntilde
ENCODING 209
SWIDTH 579 0
DWIDTH 7 0
BBX 5 10 1 0
BITMAP
1500
1500
8080
D080
A080
8880
8880
8280
8180
8080
ENDCHAR
STARTCHAR Ograve
ENCODING 210
SWIDTH 553 0
DWIDTH 7 0
BBX 5 10 1 0
BITMAP
2000
0400
AA40
8080
8080
8080
8080
8080
8080
AA40
ENDCHAR
STARTCHAR Oacute
ENCODING 211
SWIDTH 553 0
DWIDTH 7 0
BBX 5 10 1 0
BITMAP
0500
0400
AA40
8080
8080
8080
8080
8080
8080
AA40
ENDCHAR
STARTCHAR Ocircumflex
ENCODING 212
SWIDTH 553 0
DWIDTH 7 0
BBX 5 10 1 0
BITMAP
1800
1100
AA40
8080
8080
8080
8080
8080
8080
AA40
ENDCHAR
STARTCHAR Otilde
ENCODING 213
SWIDTH 553 0
DWIDTH 7 0
BBX 5 10 1 0
BITMAP
1500
1500
AA40
8080
8080
8080
8080
8080
8080
AA40
ENDCHAR
STARTCHAR Odieresis
ENCODING 214
SWIDTH 553 0
DWIDTH 7 0
BBX 5 10 1 0
BITMAP
2200
1100
AA40
8080
8080
8080
8080
8080
8080
AA40
ENDCHAR
STARTCHAR multiply
ENCODING 215
SWIDTH 493 0
DWIDTH 6 0
BBX 4 4 1 2
BITMAP
41
68
28
85
ENDCHAR
STARTCHAR Oslash
ENCODING 216
SWIDTH 559 0
DWIDTH 7 0
BBX 6 8 0 0
BITMAP
1AA0
2060
2060
2120
2520
2420
3020
6A90
ENDCHAR
STARTCHAR Ugrave
ENCODING 217
SWIDTH 552 0
DWIDTH 7 0
BBX 5 10 1 0
BITMAP
2000
0400
8080
8080
8080
8080
8080
8080
8080
6A40
ENDCHAR
STARTCHAR Uacute
ENCODING 218
SWIDTH 552 0
DWIDTH 7 0
BBX 5 10 1 0
BITMAP
0500
0400
8080
8080
8080
8080
8080
8080
8080
6A40
ENDCHAR
STARTCHAR Ucircumflex
ENCODING 219
SWIDTH 552 0
DWIDTH 7 0
BBX 5 10 1 0
BITMAP
1800
1100
8080
8080
8080
8080
8080
8080
8080
6A40
ENDCHAR
STARTCHAR Udieresis
ENCODING 220
SWIDTH 552 0
DWIDTH 7 0
BBX 5 10 1 0
BITMAP
2200
1100
8080
8080
8080
8080
8080
8080
8080
6A40
ENDCHAR
STARTCHAR Yacute
ENCODING 221
SWIDTH 493 0
DWIDTH 6 0
BBX 6 10 0 0
BITMAP
0200
0100
5050
2080
2140
0A00
0900
0500
0500
0500
ENDCHAR
STARTCHAR Thorn
ENCODING 222
SWIDTH 501 0
DWIDTH 6 0
BBX 5 8 1 0
BITMAP
8000
8000
AA00
8100
8140
8200
A900
8000
ENDCHAR
STARTCHAR germandbls
ENCODING 223
SWIDTH 540 0
DWIDTH 6 0
BBX 5 8 1 0
BITMAP
6A00
8040
8080
8140
8A00
8080
8080
8A40
ENDCHAR
STARTCHAR agrave
ENCODING 224
SWIDTH 502 0
DWIDTH 6 0
BBX 5 8 0 0
BITMAP
0800
0000
2A80
5040
5040
5040
5080
2A80
ENDCHAR
STARTCHAR aacute
ENCODING 225
SWIDTH 502 0
DWIDTH 6 0
BBX 5 8 0 0
BITMAP
0200
0000
2A80
5040
5040
5040
5080
2A80
ENDCHAR
STARTCHAR acircumflex
ENCODING 226
SWIDTH 502 0
DWIDTH 6 0
BBX 5 8 0 0
BITMAP
0600
0000
2A80
5040
5040
5040
5080
2A80
ENDCHAR
STARTCHAR atilde
ENCODING 227
SWIDTH 504 0
DWIDTH 6 0
BBX 5 8 0 0
BITMAP
0540
0440
2A80
5040
5040
5040
5080
2A80
ENDCHAR
STARTCHAR adieresis
ENCODING 228
SWIDTH 502 0
DWIDTH 6 0
BBX 5 8 0 0
BITMAP
0840
0440
2A80
5040
5040
5040
5080
2A80
ENDCHAR
STARTCHAR aring
ENCODING 229
SWIDTH 502 0
DWIDTH 6 0
BBX 5 9 0 0
BITMAP
0500
0500
0500
2A80
5040
5040
5040
5080
2A80
ENDCHAR
STARTCHAR ae
ENCODING 230
SWIDTH 795 0
DWIDTH 10 0
BBX 9 6 0 0
BITMAP
1A6A40
008080
158080
10A580
508000
2A6A40
ENDCHAR
STARTCHAR ccedilla
ENCODING 231
SWIDTH 394 0
DWIDTH 5 0
BBX 4 8 0 -2
BITMAP
2A
50
50
50
50
2A
05
05
ENDCHAR
STARTCHAR egrave
ENCODING 232
SWIDTH 492 0
DWIDTH 6 0
BBX 6 8 0 0
BITMAP
0800
0000
2A80
5040
5050
6580
5000
2A80
ENDCHAR
STARTCHAR eacute
ENCODING 233
SWIDTH 492 0
DWIDTH 6 0
BBX 6 8 0 0
BITMAP
0200
0000
2A80
5040
5050
6580
5000
2A80
ENDCHAR
STARTCHAR ecircumflex
ENCODING 234
SWIDTH 492 0
DWIDTH 6 0
BBX 6 8 0 0
BITMAP
0500
0000
2A80
5040
5050
6580
5000
2A80
ENDCHAR
STARTCHAR edieresis
ENCODING 235
SWIDTH 492 0
DWIDTH 6 0
BBX 6 8 0 0
BITMAP
1540
0000
2A80
5040
5050
6580
5000
2A80
ENDCHAR
STARTCHAR igrave
ENCODING 236
SWIDTH 210 0
DWIDTH 3 0
BBX 2 8 0 0
BITMAP
80
00
20
20
20
20
20
20
ENDCHAR
STARTCHAR iacute
ENCODING 237
SWIDTH 208 0
DWIDTH 3 0
BBX 2 8 1 0
BITMAP
50
00
80
80
80
80
80
80
ENDCHAR
STARTCHAR icircumflex
ENCODING 238
SWIDTH 210 0
DWIDTH 3 0
BBX 2 8 0 0
BITMAP
60
00
20
20
20
20
20
20
ENDCHAR
STARTCHAR idieresis
ENCODING 239
SWIDTH 210 0
DWIDTH 3 0
BBX 3 8 0 0
BITMAP
88
44
20
20
20
20
20
20
ENDCHAR
STARTCHAR eth
ENCODING 240
SWIDTH 488 0
DWIDTH 6 0
BBX 5 8 0 0
BITMAP
0940
0A00
1140
1A80
1080
5080
5080
2A80
ENDCHAR
STARTCHAR ntilde
ENCODING 241
SWIDTH 507 0
DWIDTH 6 0
BBX 5 8 1 0
BITMAP
5500
1100
AA00
8140
8140
8140
8140
4140
ENDCHAR
STARTCHAR ograve
ENCODING 242
SWIDTH 496 0
DWIDTH 6 0
BBX 6 8 0 0
BITMAP
0800
0000
2A80
5040
5050
5050
5040
2A80
ENDCHAR
STARTCHAR oacute
ENCODING 243
SWIDTH 496 0
DWIDTH 6 0
BBX 6 8 0 0
BITMAP
0200
0000
2A80
5040
5050
5050
5040
2A80
ENDCHAR
STARTCHAR ocircumflex
ENCODING 244
SWIDTH 496 0
DWIDTH 6 0
BBX 6 8 0 0
BITMAP
0500
0000
2A80
5040
5050
5050
5040
2A80
ENDCHAR
STARTCHAR otilde
ENCODING 245
SWIDTH 496 0
DWIDTH 6 0
BBX 6 8 0 0
BITMAP
1200
0400
2A80
5040
5050
5050
5040
2A80
ENDCHAR
STARTCHAR odieresis
ENCODING 246
SWIDTH 496 0
DWIDTH 6 0
BBX 6 8 0 0
BITMAP
1540
0000
2A80
5040
5050
5050
5040
2A80
ENDCHAR
STARTCHAR divide
ENCODING 247
SWIDTH 510 0
DWIDTH 6 0
BBX 4 4 1 2
BITMAP
14
00
55
14
ENDCHAR
STARTCHAR oslash
ENCODING 248
SWIDTH 521 0
DWIDTH 6 0
BBX 6 6 0 0
BITMAP
2A90
2090
2250
2850
2050
6A80
ENDCHAR
STARTCHAR ugrave
ENCODING 249
SWIDTH 507 0
DWIDTH 6 0
BBX 5 8 1 0
BITMAP
2000
0000
4140
4140
4140
4140
4140
AA40
ENDCHAR
STARTCHAR uacute
ENCODING 250
SWIDTH 507 0
DWIDTH 6 0
BBX 5 8 1 0
BITMAP
0800
0000
4140
4140
4140
4140
4140
AA40
ENDCHAR
STARTCHAR ucircumflex
ENCODING 251
SWIDTH 507 0
DWIDTH 6 0
BBX 5 8 1 0
BITMAP
1400
0000
4140
4140
4140
4140
4140
AA40
ENDCHAR
STARTCHAR udieresis
ENCODING 252
SWIDTH 507 0
DWIDTH 6 0
BBX 5 8 1 0
BITMAP
5500
0000
4140
4140
4140
4140
4140
AA40
ENDCHAR
STARTCHAR yacute
ENCODING 253
SWIDTH 459 0
DWIDTH 6 0
BBX 5 10 0 -2
BITMAP
0200
0000
8080
5080
2140
2200
1600
0900
0800
6400
ENDCHAR
STARTCHAR thorn
ENCODING 254
SWIDTH 508 0
DWIDTH 6 0
BBX 5 10 1 -2
BITMAP
8000
8000
AA00
8140
8140
8140
8140
AA00
8000
8000
ENDCHAR
STARTCHAR ydieresis
ENCODING 255
SWIDTH 459 0
DWIDTH 6 0
BBX 5 10 0 -2
BITMAP
2200
1100
8080
5080
2140
2200
1600
0900
0800
6400
ENDCHAR
STARTCHAR Amacron
ENCODING 256
SWIDTH 532 0
DWIDTH 6 0
BBX 6 10 0 0
BITMAP
0540
0000
0600
0A00
0940
1480
2080
2A90
5020
8020
ENDCHAR
STARTCHAR amacron
ENCODING 257
SWIDTH 502 0
DWIDTH 6 0
BBX 5 8 0 0
BITMAP
0540
0000
2A80
5040
5040
5040
5080
2A80
ENDCHAR
STARTCHAR Abreve
ENCODING 258
SWIDTH 532 0
DWIDTH 6 0
BBX 6 10 0 0
BITMAP
0440
0500
0600
0A00
0940
1480
2080
2A90
5020
8020
ENDCHAR
STARTCHAR abreve
ENCODING 259
SWIDTH 502 0
DWIDTH 6 0
BBX 5 8 0 0
BITMAP
0440
0500
2A80
5040
5040
5040
5080
2A80
ENDCHAR
STARTCHAR Aogonek
ENCODING 260
SWIDTH 532 0
DWIDTH 6 0
BBX 6 10 0 -2
BITMAP
0600
0A00
0940
1480
2080
2A90
5020
8020
0010
0050
ENDCHAR
STARTCHAR aogonek
ENCODING 261
SWIDTH 502 0
DWIDTH 6 0
BBX 5 8 0 -2
BITMAP
2A80
5040
5040
5040
5080
2A80
0040
0040
ENDCHAR
STARTCHAR Cacute
ENCODING 262
SWIDTH 542 0
DWIDTH 7 0
BBX 5 10 1 0
BITMAP
0500
0400
AA40
8080
8040
8000
8000
8040
8080
AA40
ENDCHAR
STARTCHAR cacute
ENCODING 263
SWIDTH 394 0
DWIDTH 5 0
BBX 4 8 0 0
BITMAP
02
00
2A
50
50
50
50
2A
ENDCHAR
STARTCHAR Cdotaccent
ENCODING 266
SWIDTH 542 0
DWIDTH 7 0
BBX 5 10 1 0
BITMAP
0800
0000
AA40
8080
8040
8000
8000
8040
8080
AA40
ENDCHAR
STARTCHAR cdotaccent
ENCODING 267
SWIDTH 394 0
DWIDTH 5 0
BBX 4 8 0 0
BITMAP
08
04
2A
50
50
50
50
2A
ENDCHAR
STARTCHAR Ccaron
ENCODING 268
SWIDTH 542 0
DWIDTH 7 0
BBX 5 10 1 0
BITMAP
1500
0400
AA40
8080
8040
8000
8000
8040
8080
AA40
ENDCHAR
STARTCHAR ccaron
ENCODING 269
SWIDTH 394 0
DWIDTH 5 0
BBX 4 8 0 0
BITMAP
05
04
2A
50
50
50
50
2A
ENDCHAR
STARTCHAR Dcaron
ENCODING 270
SWIDTH 557 0
DWIDTH 7 0
BBX 5 10 1 0
BITMAP
1500
0400
AA40
8080
8080
8080
8080
8080
8080
AA40
ENDCHAR
STARTCHAR dcaron
ENCODING 271
SWIDTH 534 0
DWIDTH 6 0
BBX 7 8 0 0
BITMAP
0054
0054
2A90
5080
5040
5040
5040
2A80
ENDCHAR
STARTCHAR Dcroat
ENCODING 272
SWIDTH 514 0
DWIDTH 6 0
BBX 6 8 0 0
BITMAP
2A90
2020
2020
6520
2020
2020
2020
2A90
ENDCHAR
STARTCHAR dcroat
ENCODING 273
SWIDTH 539 0
DWIDTH 6 0
BBX 6 8 0 0
BITMAP
0040
05A0
0040
1A80
1080
5040
5040
2A80
ENDCHAR
STARTCHAR Emacron
ENCODING 274
SWIDTH 481 0
DWIDTH 6 0
BBX 4 10 1 0
BITMAP
14
00
AA
80
80
80
A9
80
80
AA
ENDCHAR
STARTCHAR emacron
ENCODING 275
SWIDTH 492 0
DWIDTH 6 0
BBX 6 8 0 0
BITMAP
0500
0000
2A80
5040
5050
6580
5000
2A80
ENDCHAR
STARTCHAR Ebreve
ENCODING 276
SWIDTH 481 0
DWIDTH 6 0
BBX 4 10 1 0
BITMAP
54
14
AA
80
80
80
A9
80
80
AA
ENDCHAR
STARTCHAR ebreve
ENCODING 277
SWIDTH 492 0
DWIDTH 6 0
BBX 6 8 0 0
BITMAP
1500
0500
2A80
5040
5050
6580
5000
2A80
ENDCHAR
STARTCHAR Edotaccent
ENCODING 278
SWIDTH 496 0
DWIDTH 6 0
BBX 4 10 1 0
BITMAP
14
00
AA
80
80
80
A9
80
80
AA
ENDCHAR
STARTCHAR edotaccent
ENCODING 279
SWIDTH 492 0
DWIDTH 6 0
BBX 6 8 0 0
BITMAP
0500
0000
2A80
5040
5050
6580
5000
2A80
ENDCHAR
STARTCHAR Eogonek
ENCODING 280
SWIDTH 481 0
DWIDTH 6 0
BBX 4 10 1 -2
BITMAP
AA
80
80
80
A9
80
80
AA
04
04
ENDCHAR
STARTCHAR eogonek
ENCODING 281
SWIDTH 492 0
DWIDTH 6 0
BBX 6 8 0 -2
BITMAP
2A80
5040
5050
6580
5000
2A80
0100
0100
ENDCHAR
STARTCHAR Ecaron
ENCODING 282
SWIDTH 481 0
DWIDTH 6 0
BBX 4 10 1 0
BITMAP
14
14
AA
80
80
80
A9
80
80
AA
ENDCHAR
STARTCHAR ecaron
ENCODING 283
SWIDTH 492 0
DWIDTH 6 0
BBX 6 8 0 0
BITMAP
0500
0000
2A80
5040
5050
6580
5000
2A80
ENDCHAR
STARTCHAR Gcircumflex
ENCODING 284
SWIDTH 539 0
DWIDTH 6 0
BBX 5 10 1 0
BITMAP
1800
1000
AA00
8080
8040
8000
8640
8080
8080
AA40
ENDCHAR
STARTCHAR gcircumflex
ENCODING 285
SWIDTH 506 0
DWIDTH 6 0
BBX 6 10 0 -2
BITMAP
0600
0000
2A90
1050
5050
5050
2090
1A90
0040
1A80
ENDCHAR
STARTCHAR Gbreve
ENCODING 286
SWIDTH 539 0
DWIDTH 6 0
BBX 5 10 1 0
BITMAP
1100
1400
AA00
8080
8040
8000
8640
8080
8080
AA40
ENDCHAR
STARTCHAR gbreve
ENCODING 287
SWIDTH 506 0
DWIDTH 6 0
BBX 6 10 0 -2
BITMAP
0440
0500
2A90
1050
5050
5050
2090
1A90
0040
1A80
ENDCHAR
STARTCHAR Gdotaccent
ENCODING 288
SWIDTH 539 0
DWIDTH 6 0
BBX 5 10 1 0
BITMAP
0800
0000
AA00
8080
8040
8000
8640
8080
8080
AA40
ENDCHAR
STARTCHAR gdotaccent
ENCODING 289
SWIDTH 506 0
DWIDTH 6 0
BBX 6 10 0 -2
BITMAP
0200
0100
2A90
1050
5050
5050
2090
1A90
0040
1A80
ENDCHAR
STARTCHAR uni0122
ENCODING 290
SWIDTH 539 0
DWIDTH 6 0
BBX 5 11 1 -3
BITMAP
AA00
8080
8040
8000
8640
8080
8080
AA40
0400
0800
0400
ENDCHAR
STARTCHAR uni0123
ENCODING 291
SWIDTH 506 0
DWIDTH 6 0
BBX 6 11 0 -2
BITMAP
0100
0200
0100
2A90
1050
5050
5050
2090
1A90
0040
1A80
ENDCHAR
STARTCHAR hcircumflex
ENCODING 293
SWIDTH 507 0
DWIDTH 6 0
BBX 5 9 1 0
BITMAP
1800
5100
8000
AA00
8140
8140
8140
8140
4140
ENDCHAR
STARTCHAR Hbar
ENCODING 294
SWIDTH 523 0
DWIDTH 6 0
BBX 7 8 0 0
BITMAP
2020
2020
6AA4
2020
2AA0
2020
2020
2020
ENDCHAR
STARTCHAR hbar
ENCODING 295
SWIDTH 544 0
DWIDTH 7 0
BBX 6 8 0 0
BITMAP
2000
6500
2000
2680
2020
2020
2020
2020
ENDCHAR
STARTCHAR Itilde
ENCODING 296
SWIDTH 230 0
DWIDTH 3 0
BBX 3 10 0 0
BITMAP
54
54
20
20
20
20
20
20
20
20
ENDCHAR
STARTCHAR itilde
ENCODING 297
SWIDTH 210 0
DWIDTH 3 0
BBX 3 8 0 0
BITMAP
54
44
20
20
20
20
20
20
ENDCHAR
STARTCHAR Imacron
ENCODING 298
SWIDTH 230 0
DWIDTH 3 0
BBX 3 10 0 0
BITMAP
54
00
20
20
20
20
20
20
20
20
ENDCHAR
STARTCHAR imacron
ENCODING 299
SWIDTH 208 0
DWIDTH 3 0
BBX 3 8 0 0
BITMAP
54
00
20
20
20
20
20
20
ENDCHAR
STARTCHAR Ibreve
ENCODING 300
SWIDTH 231 0
DWIDTH 3 0
BBX 3 10 0 0
BITMAP
44
50
20
20
20
20
20
20
20
20
ENDCHAR
STARTCHAR ibreve
ENCODING 301
SWIDTH 211 0
DWIDTH 3 0
BBX 3 8 0 0
BITMAP
44
50
20
20
20
20
20
20
ENDCHAR
STARTCHAR Iogonek
ENCODING 302
SWIDTH 230 0
DWIDTH 3 0
BBX 2 10 0 -2
BITMAP
20
20
20
20
20
20
20
20
50
50
ENDCHAR
STARTCHAR iogonek
ENCODING 303
SWIDTH 210 0
DWIDTH 3 0
BBX 2 10 0 -2
BITMAP
20
10
20
20
20
20
20
20
40
40
ENDCHAR
STARTCHAR Idotaccent
ENCODING 304
SWIDTH 230 0
DWIDTH 3 0
BBX 1 9 1 0
BITMAP
80
80
80
80
80
80
80
80
80
ENDCHAR
STARTCHAR dotlessi
ENCODING 305
SWIDTH 212 0
DWIDTH 3 0
BBX 1 6 1 0
BITMAP
80
80
80
80
80
80
ENDCHAR
STARTCHAR IJ
ENCODING 306
SWIDTH 721 0
DWIDTH 9 0
BBX 7 8 1 0
BITMAP
8008
8008
8008
8008
8008
8808
8808
86A4
ENDCHAR
STARTCHAR ij
ENCODING 307
SWIDTH 419 0
DWIDTH 5 0
BBX 3 10 1 -2
BITMAP
88
44
88
88
88
88
88
88
08
24
ENDCHAR
STARTCHAR Jcircumflex
ENCODING 308
SWIDTH 494 0
DWIDTH 6 0
BBX 6 10 0 0
BITMAP
0090
0110
0080
0080
0080
0080
0080
4080
8080
2A40
ENDCHAR
STARTCHAR jcircumflex
ENCODING 309
SWIDTH 209 0
DWIDTH 3 0
BBX 3 10 -1 -2
BITMAP
18
00
08
08
08
08
08
08
08
60
ENDCHAR
STARTCHAR uni0136
ENCODING 310
SWIDTH 530 0
DWIDTH 6 0
BBX 5 11 1 -3
BITMAP
8140
8200
8800
9400
9800
8500
8240
8080
0400
0800
0400
ENDCHAR
STARTCHAR uni0137
ENCODING 311
SWIDTH 431 0
DWIDTH 5 0
BBX 4 11 1 -3
BITMAP
40
80
85
88
94
94
88
42
10
10
10
ENDCHAR
STARTCHAR Lacute
ENCODING 313
SWIDTH 451 0
DWIDTH 5 0
BBX 4 10 1 0
BITMAP
50
40
80
80
80
80
80
80
80
AA
ENDCHAR
STARTCHAR lacute
ENCODING 314
SWIDTH 207 0
DWIDTH 2 0
BBX 2 11 1 0
BITMAP
10
80
00
80
80
80
80
80
80
80
80
ENDCHAR
STARTCHAR uni013B
ENCODING 315
SWIDTH 451 0
DWIDTH 5 0
BBX 4 11 1 -3
BITMAP
80
80
80
80
80
80
80
AA
00
14
10
ENDCHAR
STARTCHAR uni013C
ENCODING 316
SWIDTH 211 0
DWIDTH 3 0
BBX 1 11 1 -3
BITMAP
80
80
80
80
80
80
80
80
40
80
40
ENDCHAR
STARTCHAR Lcaron
ENCODING 317
SWIDTH 451 0
DWIDTH 5 0
BBX 4 8 1 0
BITMAP
85
85
84
80
80
80
80
AA
ENDCHAR
STARTCHAR lcaron
ENCODING 318
SWIDTH 274 0
DWIDTH 3 0
BBX 2 8 1 0
BITMAP
A0
A0
90
80
80
80
80
80
ENDCHAR
STARTCHAR Ldot
ENCODING 319
SWIDTH 500 0
DWIDTH 6 0
BBX 4 8 1 0
BITMAP
80
80
80
84
88
80
80
AA
ENDCHAR
STARTCHAR ldot
ENCODING 320
SWIDTH 314 0
DWIDTH 4 0
BBX 3 8 1 0
BITMAP
80
80
80
90
94
80
80
80
ENDCHAR
STARTCHAR Lslash
ENCODING 321
SWIDTH 504 0
DWIDTH 6 0
BBX 5 8 0 0
BITMAP
2000
2000
2800
6000
2000
2000
2000
2A80
ENDCHAR
STARTCHAR lslash
ENCODING 322
SWIDTH 296 0
DWIDTH 4 0
BBX 3 8 0 0
BITMAP
20
20
24
64
20
20
20
20
ENDCHAR
STARTCHAR Nacute
ENCODING 323
SWIDTH 579 0
DWIDTH 7 0
BBX 5 10 1 0
BITMAP
0200
0400
8080
D080
A080
8880
8880
8280
8180
8080
ENDCHAR
STARTCHAR nacute
ENCODING 324
SWIDTH 507 0
DWIDTH 6 0
BBX 5 8 1 0
BITMAP
0800
0000
AA00
8140
8140
8140
8140
4140
ENDCHAR
STARTCHAR uni0145
ENCODING 325
SWIDTH 579 0
DWIDTH 7 0
BBX 5 11 1 -3
BITMAP
8080
D080
A080
8880
8880
8280
8180
8080
0400
0800
0400
ENDCHAR
STARTCHAR uni0146
ENCODING 326
SWIDTH 505 0
DWIDTH 6 0
BBX 5 9 1 -3
BITMAP
AA00
8140
8140
8140
8140
4140
0000
1400
1000
ENDCHAR
STARTCHAR Ncaron
ENCODING 327
SWIDTH 579 0
DWIDTH 7 0
BBX 5 10 1 0
BITMAP
1500
0400
8080
D080
A080
8880
8880
8280
8180
8080
ENDCHAR
STARTCHAR ncaron
ENCODING 328
SWIDTH 507 0
DWIDTH 6 0
BBX 5 8 1 0
BITMAP
1400
0000
AA00
8140
8140
8140
8140
4140
ENDCHAR
STARTCHAR Eng
ENCODING 330
SWIDTH 519 0
DWIDTH 6 0
BBX 5 10 1 -2
BITMAP
8080
D080
A080
8880
8880
8280
8180
8080
0080
0240
ENDCHAR
STARTCHAR eng
ENCODING 331
SWIDTH 507 0
DWIDTH 6 0
BBX 5 8 1 -2
BITMAP
AA00
8140
8140
8140
8140
4140
0140
0600
ENDCHAR
STARTCHAR Omacron
ENCODING 332
SWIDTH 553 0
DWIDTH 7 0
BBX 5 10 1 0
BITMAP
1500
0000
AA40
8080
8080
8080
8080
8080
8080
AA40
ENDCHAR
STARTCHAR omacron
ENCODING 333
SWIDTH 496 0
DWIDTH 6 0
BBX 6 8 0 0
BITMAP
0500
0000
2A80
5040
5050
5050
5040
2A80
ENDCHAR
STARTCHAR Obreve
ENCODING 334
SWIDTH 553 0
DWIDTH 7 0
BBX 5 10 1 0
BITMAP
1100
1400
AA40
8080
8080
8080
8080
8080
8080
AA40
ENDCHAR
STARTCHAR obreve
ENCODING 335
SWIDTH 496 0
DWIDTH 6 0
BBX 6 8 0 0
BITMAP
1500
0500
2A80
5040
5050
5050
5040
2A80
ENDCHAR
STARTCHAR Ohungarumlaut
ENCODING 336
SWIDTH 553 0
DWIDTH 7 0
BBX 5 10 1 0
BITMAP
0600
1100
AA40
8080
8080
8080
8080
8080
8080
AA40
ENDCHAR
STARTCHAR ohungarumlaut
ENCODING 337
SWIDTH 496 0
DWIDTH 6 0
BBX 6 8 0 0
BITMAP
0580
0500
2A80
5040
5050
5050
5040
2A80
ENDCHAR
STARTCHAR OE
ENCODING 338
SWIDTH 775 0
DWIDTH 9 0
BBX 8 8 1 0
BITMAP
AAA9
8200
8200
8200
82A8
8200
8200
AAA9
ENDCHAR
STARTCHAR oe
ENCODING 339
SWIDTH 812 0
DWIDTH 10 0
BBX 9 6 0 0
BITMAP
2A6A40
505080
505080
506580
505000
2AAA40
ENDCHAR
STARTCHAR Racute
ENCODING 340
SWIDTH 534 0
DWIDTH 6 0
BBX 5 10 1 0
BITMAP
0800
0400
AA00
8080
8080
8040
AA00
8200
8200
8080
ENDCHAR
STARTCHAR racute
ENCODING 341
SWIDTH 313 0
DWIDTH 4 0
BBX 3 8 1 0
BITMAP
20
00
94
80
80
80
80
40
ENDCHAR
STARTCHAR uni0156
ENCODING 342
SWIDTH 534 0
DWIDTH 6 0
BBX 5 11 1 -3
BITMAP
AA00
8080
8080
8040
AA00
8200
8200
8080
0400
0400
0400
ENDCHAR
STARTCHAR uni0157
ENCODING 343
SWIDTH 313 0
DWIDTH 4 0
BBX 3 9 1 -3
BITMAP
94
80
80
80
80
40
40
40
40
ENDCHAR
STARTCHAR Rcaron
ENCODING 344
SWIDTH 534 0
DWIDTH 6 0
BBX 5 10 1 0
BITMAP
1400
1400
AA00
8080
8080
8040
AA00
8200
8200
8080
ENDCHAR
STARTCHAR rcaron
ENCODING 345
SWIDTH 313 0
DWIDTH 4 0
BBX 3 8 1 0
BITMAP
50
00
94
80
80
80
80
40
ENDCHAR
STARTCHAR Sacute
ENCODING 346
SWIDTH 562 0
DWIDTH 7 0
BBX 5 10 1 0
BITMAP
0500
0400
6A40
8080
8000
6400
0640
4080
8080
6A40
ENDCHAR
STARTCHAR sacute
ENCODING 347
SWIDTH 427 0
DWIDTH 5 0
BBX 5 8 0 0
BITMAP
0500
0000
2A00
5000
2400
0240
0080
2A40
ENDCHAR
STARTCHAR Scircumflex
ENCODING 348
SWIDTH 562 0
DWIDTH 7 0
BBX 5 10 1 0
BITMAP
1800
1100
6A40
8080
8000
6400
0640
4080
8080
6A40
ENDCHAR
STARTCHAR scircumflex
ENCODING 349
SWIDTH 427 0
DWIDTH 5 0
BBX 5 8 0 0
BITMAP
0900
0000
2A00
5000
2400
0240
0080
2A40
ENDCHAR
STARTCHAR uni015E
ENCODING 350
SWIDTH 562 0
DWIDTH 7 0
BBX 5 10 1 -2
BITMAP
6A40
8080
8000
6400
0640
4080
8080
6A40
0800
0400
ENDCHAR
STARTCHAR uni015F
ENCODING 351
SWIDTH 427 0
DWIDTH 5 0
BBX 5 8 0 -2
BITMAP
2A00
5000
2400
0240
0080
2A40
0900
0500
ENDCHAR
STARTCHAR Scaron
ENCODING 352
SWIDTH 562 0
DWIDTH 7 0
BBX 5 10 1 0
BITMAP
1500
0400
6A40
8080
8000
6400
0640
4080
8080
6A40
ENDCHAR
STARTCHAR scaron
ENCODING 353
SWIDTH 427 0
DWIDTH 5 0
BBX 5 8 0 0
BITMAP
1500
0400
2A00
5000
2400
0240
0080
2A40
ENDCHAR
STARTCHAR uni0162
ENCODING 354
SWIDTH 420 0
DWIDTH 5 0
BBX 5 11 0 -3
BITMAP
6A40
0800
0800
0800
0800
0800
0800
0800
0400
0800
0400
ENDCHAR
STARTCHAR uni0163
ENCODING 355
SWIDTH 347 0
DWIDTH 4 0
BBX 4 10 0 -3
BITMAP
20
79
20
20
20
20
19
04
08
04
ENDCHAR
STARTCHAR Tcaron
ENCODING 356
SWIDTH 420 0
DWIDTH 5 0
BBX 5 10 0 0
BITMAP
1500
0400
6A40
0800
0800
0800
0800
0800
0800
0800
ENDCHAR
STARTCHAR tcaron
ENCODING 357
SWIDTH 396 0
DWIDTH 5 0
BBX 5 8 0 0
BITMAP
1080
2080
7940
2000
2000
2000
2000
1900
ENDCHAR
STARTCHAR Tbar
ENCODING 358
SWIDTH 501 0
DWIDTH 6 0
BBX 5 8 0 0
BITMAP
6A40
0800
0800
1A40
0800
0800
0800
0800
ENDCHAR
STARTCHAR tbar
ENCODING 359
SWIDTH 350 0
DWIDTH 4 0
BBX 4 7 0 0
BITMAP
20
69
20
69
20
20
19
ENDCHAR
STARTCHAR Utilde
ENCODING 360
SWIDTH 552 0
DWIDTH 7 0
BBX 5 10 1 0
BITMAP
1500
1500
8080
8080
8080
8080
8080
8080
8080
6A40
ENDCHAR
STARTCHAR utilde
ENCODING 361
SWIDTH 507 0
DWIDTH 6 0
BBX 5 8 1 0
BITMAP
4800
1100
4140
4140
4140
4140
4140
AA40
ENDCHAR
STARTCHAR Umacron
ENCODING 362
SWIDTH 552 0
DWIDTH 7 0
BBX 5 10 1 0
BITMAP
1500
0000
8080
8080
8080
8080
8080
8080
8080
6A40
ENDCHAR
STARTCHAR umacron
ENCODING 363
SWIDTH 507 0
DWIDTH 6 0
BBX 5 8 1 0
BITMAP
1400
0000
4140
4140
4140
4140
4140
AA40
ENDCHAR
STARTCHAR Ubreve
ENCODING 364
SWIDTH 552 0
DWIDTH 7 0
BBX 5 10 1 0
BITMAP
1100
1400
8080
8080
8080
8080
8080
8080
8080
6A40
ENDCHAR
STARTCHAR ubreve
ENCODING 365
SWIDTH 507 0
DWIDTH 6 0
BBX 5 8 1 0
BITMAP
1500
1400
4140
4140
4140
4140
4140
AA40
ENDCHAR
STARTCHAR Uring
ENCODING 366
SWIDTH 552 0
DWIDTH 7 0
BBX 5 11 1 0
BITMAP
1400
1100
1500
8480
8080
8080
8080
8080
8080
8080
6A40
ENDCHAR
STARTCHAR uring
ENCODING 367
SWIDTH 507 0
DWIDTH 6 0
BBX 5 9 1 0
BITMAP
1400
1400
1400
4140
4140
4140
4140
4140
AA40
ENDCHAR
STARTCHAR Uhungarumlaut
ENCODING 368
SWIDTH 552 0
DWIDTH 7 0
BBX 5 10 1 0
BITMAP
1600
1100
8080
8080
8080
8080
8080
8080
8080
6A40
ENDCHAR
STARTCHAR uhungarumlaut
ENCODING 369
SWIDTH 507 0
DWIDTH 6 0
BBX 5 8 1 0
BITMAP
1600
1400
4140
4140
4140
4140
4140
AA40
ENDCHAR
STARTCHAR Uogonek
ENCODING 370
SWIDTH 552 0
DWIDTH 7 0
BBX 5 10 1 -2
BITMAP
8080
8080
8080
8080
8080
8080
8080
6A40
0400
1400
ENDCHAR
STARTCHAR uogonek
ENCODING 371
SWIDTH 503 0
DWIDTH 6 0
BBX 5 8 1 -2
BITMAP
4140
4140
4140
4140
4140
AA40
0100
0100
ENDCHAR
STARTCHAR Wcircumflex
ENCODING 372
SWIDTH 795 0
DWIDTH 10 0
BBX 9 10 0 0
BITMAP
009000
001000
809080
509080
216080
212140
221540
120A00
190A00
0C0A00
ENDCHAR
STARTCHAR wcircumflex
ENCODING 373
SWIDTH 682 0
DWIDTH 8 0
BBX 8 8 0 0
BITMAP
0140
0000
8182
5282
2245
2158
1828
0824
ENDCHAR
STARTCHAR Ycircumflex
ENCODING 374
SWIDTH 493 0
DWIDTH 6 0
BBX 6 10 0 0
BITMAP
0500
0500
5050
2080
2140
0A00
0900
0500
0500
0500
ENDCHAR
STARTCHAR ycircumflex
ENCODING 375
SWIDTH 459 0
DWIDTH 6 0
BBX 5 10 0 -2
BITMAP
0900
0000
8080
5080
2140
2200
1600
0900
0800
6400
ENDCHAR
STARTCHAR Ydieresis
ENCODING 376
SWIDTH 493 0
DWIDTH 6 0
BBX 6 10 0 0
BITMAP
1540
0100
5050
2080
2140
0A00
0900
0500
0500
0500
ENDCHAR
STARTCHAR Zacute
ENCODING 377
SWIDTH 482 0
DWIDTH 6 0
BBX 5 10 0 0
BITMAP
0200
0100
6AC0
0080
0200
0500
0800
1400
2000
6A80
ENDCHAR
STARTCHAR zacute
ENCODING 378
SWIDTH 405 0
DWIDTH 5 0
BBX 5 8 0 0
BITMAP
0200
0000
6A40
0200
0800
1400
2000
6A40
ENDCHAR
STARTCHAR Zdotaccent
ENCODING 379
SWIDTH 482 0
DWIDTH 6 0
BBX 5 10 0 0
BITMAP
0500
0000
6AC0
0080
0200
0500
0800
1400
2000
6A80
ENDCHAR
STARTCHAR zdotaccent
ENCODING 380
SWIDTH 405 0
DWIDTH 5 0
BBX 5 8 0 0
BITMAP
0800
0400
6A40
0200
0800
1400
2000
6A40
ENDCHAR
STARTCHAR Zcaron
ENCODING 381
SWIDTH 482 0
DWIDTH 6 0
BBX 5 10 0 0
BITMAP
0500
0500
6AC0
0080
0200
0500
0800
1400
2000
6A80
ENDCHAR
STARTCHAR zcaron
ENCODING 382
SWIDTH 405 0
DWIDTH 5 0
BBX 5 8 0 0
BITMAP
1500
0400
6A40
0200
0800
1400
2000
6A40
ENDCHAR
STARTCHAR florin
ENCODING 402
SWIDTH 494 0
DWIDTH 6 0
BBX 6 10 0 -2
BITMAP
0090
0200
0200
0A40
0500
0800
0800
0800
0400
6000
ENDCHAR
STARTCHAR AEacute
ENCODING 508
SWIDTH 773 0
DWIDTH 9 0
BBX 9 10 0 0
BITMAP
002000
001000
00EA40
028000
014000
084000
146A00
2A8000
504000
806A40
ENDCHAR
STARTCHAR aeacute
ENCODING 509
SWIDTH 795 0
DWIDTH 10 0
BBX 9 8 0 0
BITMAP
002000
000000
1A6A40
008080
158080
10A580
508000
2A6A40
ENDCHAR
STARTCHAR Oslashacute
ENCODING 510
SWIDTH 558 0
DWIDTH 7 0
BBX 6 10 0 0
BITMAP
0140
0100
1AA0
2060
2060
2120
2520
2420
3020
6A90
ENDCHAR
STARTCHAR oslashacute
ENCODING 511
SWIDTH 521 0
DWIDTH 6 0
BBX 6 8 0 0
BITMAP
0140
0000
2A90
2090
2250
2850
2050
6A80
ENDCHAR
STARTCHAR uni0218
ENCODING 536
SWIDTH 562 0
DWIDTH 7 0
BBX 5 11 1 -3
BITMAP
6A40
8080
8000
6400
0640
4080
8080
6A40
0400
0800
0400
ENDCHAR
STARTCHAR uni0219
ENCODING 537
SWIDTH 427 0
DWIDTH 5 0
BBX 5 9 0 -3
BITMAP
2A00
5000
2400
0240
0080
2A40
0400
0800
0400
ENDCHAR
STARTCHAR circumflex
ENCODING 710
SWIDTH 326 0
DWIDTH 4 0
BBX 2 2 1 6
BITMAP
50
50
ENDCHAR
STARTCHAR caron
ENCODING 711
SWIDTH 326 0
DWIDTH 4 0
BBX 2 2 1 6
BITMAP
50
50
ENDCHAR
STARTCHAR uni02C9
ENCODING 713
SWIDTH 358 0
DWIDTH 4 0
BBX 3 1 1 7
BITMAP
54
ENDCHAR
STARTCHAR breve
ENCODING 728
SWIDTH 332 0
DWIDTH 4 0
BBX 2 2 1 6
BITMAP
50
50
ENDCHAR
STARTCHAR dotaccent
ENCODING 729
SWIDTH 183 0
DWIDTH 2 0
BBX 2 1 0 7
BITMAP
50
ENDCHAR
STARTCHAR ring
ENCODING 730
SWIDTH 297 0
DWIDTH 4 0
BBX 3 3 0 6
BITMAP
14
44
14
ENDCHAR
STARTCHAR ogonek
ENCODING 731
SWIDTH 243 0
DWIDTH 3 0
BBX 1 2 1 -2
BITMAP
40
40
ENDCHAR
STARTCHAR tilde
ENCODING 732
SWIDTH 369 0
DWIDTH 4 0
BBX 4 2 0 6
BITMAP
55
11
ENDCHAR
STARTCHAR hungarumlaut
ENCODING 733
SWIDTH 377 0
DWIDTH 5 0
BBX 3 2 1 6
BITMAP
94
50
ENDCHAR
STARTCHAR Mu
ENCODING 924
SWIDTH 527 0
DWIDTH 6 0
BBX 5 8 1 -1
BITMAP
8140
8140
8140
8140
8140
C240
9500
8000
ENDCHAR
STARTCHAR Pi
ENCODING 928
SWIDTH 605 0
DWIDTH 7 0
BBX 7 8 0 0
BITMAP
6AA4
1420
1420
1420
1420
1420
1420
0410
ENDCHAR
STARTCHAR Sigma
ENCODING 931
SWIDTH 481 0
DWIDTH 6 0
BBX 5 8 0 0
BITMAP
6A80
2000
0800
0500
0800
1400
2000
2A40
ENDCHAR
STARTCHAR uni0901
ENCODING 2305
SWIDTH 0 0
DWIDTH 0 0
BBX 5 3 -4 8
BITMAP
0400
5040
2A00
ENDCHAR
STARTCHAR uni0902
ENCODING 2306
SWIDTH 0 0
DWIDTH 0 0
BBX 1 1 -2 9
BITMAP
40
ENDCHAR
STARTCHAR uni0903
ENCODING 2307
SWIDTH 247 0
DWIDTH 3 0
BBX 1 5 1 1
BITMAP
40
00
00
00
40
ENDCHAR
STARTCHAR uni0905
ENCODING 2309
SWIDTH 598 0
DWIDTH 7 0
BBX 7 8 0 0
BITMAP
2918
0220
0220
1920
02A0
0220
6920
0010
ENDCHAR
STARTCHAR uni0906
ENCODING 2310
SWIDTH 828 0
DWIDTH 10 0
BBX 10 8 0 0
BITMAP
292AA0
022080
022080
192080
02A080
022080
692080
001040
ENDCHAR
STARTCHAR uni0907
ENCODING 2311
SWIDTH 478 0
DWIDTH 6 0
BBX 6 8 0 0
BITMAP
AA90
1A40
2000
2000
1A40
1080
6080
2540
ENDCHAR
STARTCHAR uni0908
ENCODING 2312
SWIDTH 478 0
DWIDTH 6 0
BBX 6 11 0 0
BITMAP
0190
0200
0200
AA90
1A40
2000
2000
1A40
1080
6080
2540
ENDCHAR
STARTCHAR uni0909
ENCODING 2313
SWIDTH 471 0
DWIDTH 6 0
BBX 6 8 0 0
BITMAP
AA90
0080
0080
0640
0080
4080
5180
1500
ENDCHAR
STARTCHAR uni090A
ENCODING 2314
SWIDTH 661 0
DWIDTH 8 0
BBX 8 8 0 0
BITMAP
AAAA
0080
0080
06A8
0081
4082
5185
1514
ENDCHAR
STARTCHAR uni090B
ENCODING 2315
SWIDTH 753 0
DWIDTH 9 0
BBX 9 8 0 0
BITMAP
AAAA80
008000
1A8600
50A500
009600
028800
188800
104500
ENDCHAR
STARTCHAR uni090C
ENCODING 2316
SWIDTH 676 0
DWIDTH 8 0
BBX 8 10 0 -2
BITMAP
AAAA
0008
1968
2148
1148
1008
2808
0024
0010
001A
ENDCHAR
STARTCHAR uni090D
ENCODING 2317
SWIDTH 521 0
DWIDTH 6 0
BBX 7 10 0 1
BITMAP
1A80
0000
0000
AAA4
2010
2050
2180
2000
2000
1A80
ENDCHAR
STARTCHAR uni090E
ENCODING 2318
SWIDTH 522 0
DWIDTH 6 0
BBX 7 10 0 1
BITMAP
0800
0240
0050
AAA4
2010
2050
2180
2000
2000
1A80
ENDCHAR
STARTCHAR uni090F
ENCODING 2319
SWIDTH 526 0
DWIDTH 6 0
BBX 7 7 0 1
BITMAP
AAA4
2010
2050
2180
2000
2000
1A80
ENDCHAR
STARTCHAR uni0910
ENCODING 2320
SWIDTH 526 0
DWIDTH 6 0
BBX 7 10 0 1
BITMAP
0200
0140
0040
AAA4
2010
2050
2180
2000
2000
1A80
ENDCHAR
STARTCHAR uni0911
ENCODING 2321
SWIDTH 829 0
DWIDTH 10 0
BBX 10 11 0 0
BITMAP
002040
001A40
000000
291AA0
022080
022080
192080
02A080
022080
692080
001040
ENDCHAR
STARTCHAR uni0912
ENCODING 2322
SWIDTH 828 0
DWIDTH 10 0
BBX 10 11 0 0
BITMAP
001400
000900
000080
291AA0
022080
022080
192080
02A080
022080
692080
001040
ENDCHAR
STARTCHAR uni0913
ENCODING 2323
SWIDTH 829 0
DWIDTH 10 0
BBX 10 11 0 0
BITMAP
000500
000200
000040
291AA0
022080
022080
192080
02A080
022080
692080
001040
ENDCHAR
STARTCHAR uni0914
ENCODING 2324
SWIDTH 829 0
DWIDTH 10 0
BBX 10 11 0 0
BITMAP
000880
000280
000180
291AA0
022080
022080
192080
02A080
022080
692080
001040
ENDCHAR
STARTCHAR uni0915
ENCODING 2325
SWIDTH 725 0
DWIDTH 9 0
BBX 9 8 0 0
BITMAP
AAAA40
18A900
108200
508200
508200
108200
199900
004000
ENDCHAR
STARTCHAR uni0916
ENCODING 2326
SWIDTH 696 0
DWIDTH 8 0
BBX 9 8 0 0
BITMAP
AAAA40
085500
088500
644500
208500
146900
080500
040000
ENDCHAR
STARTCHAR uni0917
ENCODING 2327
SWIDTH 494 0
DWIDTH 6 0
BBX 6 8 0 0
BITMAP
AAA0
1480
1480
2080
5080
0080
0080
0040
ENDCHAR
STARTCHAR uni0918
ENCODING 2328
SWIDTH 559 0
DWIDTH 7 0
BBX 7 8 0 0
BITMAP
BAA4
2020
2820
2020
1020
2020
1A60
0010
ENDCHAR
STARTCHAR uni0919
ENCODING 2329
SWIDTH 505 0
DWIDTH 6 0
BBX 6 8 0 0
BITMAP
AAA0
1A40
2000
2010
1A40
0080
2080
1540
ENDCHAR
STARTCHAR uni091A
ENCODING 2330
SWIDTH 563 0
DWIDTH 7 0
BBX 7 8 0 0
BITMAP
AAA4
0020
6920
2020
2020
1A60
0020
0010
ENDCHAR
STARTCHAR uni091B
ENCODING 2331
SWIDTH 581 0
DWIDTH 7 0
BBX 7 7 0 1
BITMAP
AAA8
2020
20A0
2820
2010
2020
2AA0
ENDCHAR
STARTCHAR uni091C
ENCODING 2332
SWIDTH 547 0
DWIDTH 7 0
BBX 7 8 0 0
BITMAP
AAA4
0010
2A90
0510
0510
0510
6810
0010
ENDCHAR
STARTCHAR uni091D
ENCODING 2333
SWIDTH 664 0
DWIDTH 8 0
BBX 8 8 0 0
BITMAP
AAAA
2A08
2008
2AA8
0088
5088
6A48
1004
ENDCHAR
STARTCHAR uni091E
ENCODING 2334
SWIDTH 592 0
DWIDTH 7 0
BBX 7 8 0 0
BITMAP
AAA8
2820
0520
02A0
0120
0520
6820
0010
ENDCHAR
STARTCHAR uni091F
ENCODING 2335
SWIDTH 485 0
DWIDTH 6 0
BBX 6 7 0 1
BITMAP
AAA0
0080
1A40
1000
5000
1050
2A80
ENDCHAR
STARTCHAR uni0920
ENCODING 2336
SWIDTH 512 0
DWIDTH 6 0
BBX 6 7 0 1
BITMAP
AAA0
0080
1A80
1050
5050
1050
2A80
ENDCHAR
STARTCHAR uni0921
ENCODING 2337
SWIDTH 475 0
DWIDTH 6 0
BBX 6 8 0 0
BITMAP
AA90
1A40
2000
2000
1A40
0080
2080
1540
ENDCHAR
STARTCHAR uni0922
ENCODING 2338
SWIDTH 485 0
DWIDTH 6 0
BBX 6 7 0 1
BITMAP
AAA0
0080
1A40
2280
5150
1050
2A80
ENDCHAR
STARTCHAR uni0923
ENCODING 2339
SWIDTH 681 0
DWIDTH 8 0
BBX 8 8 0 0
BITMAP
AAAA
2048
2048
2148
1A08
0008
0008
0004
ENDCHAR
STARTCHAR uni0924
ENCODING 2340
SWIDTH 496 0
DWIDTH 6 0
BBX 6 8 0 0
BITMAP
AAA0
0080
1A80
1080
5080
5080
2080
1440
ENDCHAR
STARTCHAR uni0925
ENCODING 2341
SWIDTH 593 0
DWIDTH 7 0
BBX 7 8 0 0
BITMAP
2A28
2220
0220
6920
5020
1AA0
0020
0010
ENDCHAR
STARTCHAR uni0926
ENCODING 2342
SWIDTH 489 0
DWIDTH 6 0
BBX 6 8 0 0
BITMAP
AAA0
1A80
2000
5000
5040
2080
1A80
0040
ENDCHAR
STARTCHAR uni0927
ENCODING 2343
SWIDTH 560 0
DWIDTH 7 0
BBX 7 8 0 0
BITMAP
A4A4
2020
2820
2020
1020
2020
1A60
0010
ENDCHAR
STARTCHAR uni0928
ENCODING 2344
SWIDTH 473 0
DWIDTH 6 0
BBX 6 8 0 0
BITMAP
AA90
0080
2A80
5080
4080
0080
0080
0040
ENDCHAR
STARTCHAR uni0928093C
ENCODING 2345
SWIDTH 473 0
DWIDTH 6 0
BBX 6 8 0 0
BITMAP
AA90
0080
2A80
5080
4080
0080
0080
0440
ENDCHAR
STARTCHAR uni092A
ENCODING 2346
SWIDTH 503 0
DWIDTH 6 0
BBX 6 8 0 0
BITMAP
AAA0
2080
2080
2080
1A80
0080
0080
0040
ENDCHAR
STARTCHAR uni092B
ENCODING 2347
SWIDTH 739 0
DWIDTH 9 0
BBX 9 8 0 0
BITMAP
AAAA80
20A900
208200
208100
1A8100
008200
008900
004000
ENDCHAR
STARTCHAR uni092C
ENCODING 2348
SWIDTH 491 0
DWIDTH 6 0
BBX 6 8 0 0
BITMAP
AAA0
1880
2080
5880
5280
1180
1A80
0040
ENDCHAR
STARTCHAR uni092D
ENCODING 2349
SWIDTH 491 0
DWIDTH 6 0
BBX 6 8 0 0
BITMAP
92A0
2080
2080
2A80
2080
0080
0080
0040
ENDCHAR
STARTCHAR uni092E
ENCODING 2350
SWIDTH 490 0
DWIDTH 6 0
BBX 6 8 0 0
BITMAP
AAA0
2080
2080
2A80
2080
0080
0080
0040
ENDCHAR
STARTCHAR uni092F
ENCODING 2351
SWIDTH 564 0
DWIDTH 7 0
BBX 7 8 0 0
BITMAP
AAA4
0420
2820
5020
2020
1A60
0020
0010
ENDCHAR
STARTCHAR uni0930
ENCODING 2352
SWIDTH 337 0
DWIDTH 4 0
BBX 4 8 0 0
BITMAP
AA
08
08
64
20
14
08
04
ENDCHAR
STARTCHAR uni0930093C
ENCODING 2353
SWIDTH 347 0
DWIDTH 4 0
BBX 4 8 0 0
BITMAP
AA
05
04
68
20
14
08
40
ENDCHAR
STARTCHAR uni0932
ENCODING 2354
SWIDTH 676 0
DWIDTH 8 0
BBX 8 8 0 0
BITMAP
AAAA
0008
1968
2148
1148
1008
2808
0004
ENDCHAR
STARTCHAR uni0933
ENCODING 2355
SWIDTH 672 0
DWIDTH 8 0
BBX 8 7 0 1
BITMAP
AAAA
0020
1964
1144
5145
5145
2AA8
ENDCHAR
STARTCHAR uni0933093C
ENCODING 2356
SWIDTH 672 0
DWIDTH 8 0
BBX 8 8 0 0
BITMAP
AAAA
0020
1964
1144
5145
5145
2AA8
0400
ENDCHAR
STARTCHAR uni0935
ENCODING 2357
SWIDTH 484 0
DWIDTH 6 0
BBX 6 8 0 0
BITMAP
AA90
1880
2080
5080
5080
1080
1A80
0040
ENDCHAR
STARTCHAR uni0936
ENCODING 2358
SWIDTH 614 0
DWIDTH 7 0
BBX 8 8 0 0
BITMAP
2A19
1214
0214
6914
2014
1414
0814
0400
ENDCHAR
STARTCHAR uni0937
ENCODING 2359
SWIDTH 505 0
DWIDTH 6 0
BBX 6 8 0 0
BITMAP
BAA0
2480
2180
20C0
1A80
0080
0080
0040
ENDCHAR
STARTCHAR uni0938
ENCODING 2360
SWIDTH 575 0
DWIDTH 7 0
BBX 7 8 0 0
BITMAP
AAA8
0820
0820
6AA0
5020
2020
0820
0410
ENDCHAR
STARTCHAR uni0939
ENCODING 2361
SWIDTH 481 0
DWIDTH 6 0
BBX 6 9 0 -1
BITMAP
AA90
0080
1A40
2000
2A40
2080
1040
2000
1A40
ENDCHAR
STARTCHAR uni093C
ENCODING 2364
SWIDTH 0 0
DWIDTH 0 0
BBX 1 1 -2 -1
BITMAP
40
ENDCHAR
STARTCHAR uni093D
ENCODING 2365
SWIDTH 529 0
DWIDTH 6 0
BBX 5 8 1 0
BITMAP
6900
4000
6000
1900
0200
0140
9240
1500
ENDCHAR
STARTCHAR uni093E
ENCODING 2366
SWIDTH 231 0
DWIDTH 3 0
BBX 3 8 0 0
BITMAP
A4
20
20
20
20
20
20
10
ENDCHAR
STARTCHAR uni093F
ENCODING 2367
SWIDTH 231 0
DWIDTH 3 0
BBX 8 11 0 0
BITMAP
1AA9
2001
2000
A400
2000
2000
2000
2000
2000
2000
1000
ENDCHAR
STARTCHAR uni0940
ENCODING 2368
SWIDTH 231 0
DWIDTH 3 0
BBX 5 11 -2 0
BITMAP
6900
8200
0200
0A40
0200
0200
0200
0200
0200
0200
0100
ENDCHAR
STARTCHAR uni0941
ENCODING 2369
SWIDTH 0 0
DWIDTH 0 0
BBX 5 4 -4 -3
BITMAP
0600
4140
8140
2A00
ENDCHAR
STARTCHAR uni0942
ENCODING 2370
SWIDTH 0 0
DWIDTH 0 0
BBX 4 3 -3 -3
BITMAP
68
82
91
ENDCHAR
STARTCHAR uni0943
ENCODING 2371
SWIDTH 0 0
DWIDTH 0 0
BBX 4 4 -4 -3
BITMAP
14
50
50
2A
ENDCHAR
STARTCHAR uni0945
ENCODING 2373
SWIDTH 0 0
DWIDTH 0 0
BBX 4 2 -3 9
BITMAP
41
68
ENDCHAR
STARTCHAR uni0946
ENCODING 2374
SWIDTH 0 0
DWIDTH 0 0
BBX 3 4 -4 7
BITMAP
40
50
08
04
ENDCHAR
STARTCHAR uni0947
ENCODING 2375
SWIDTH 0 0
DWIDTH 0 0
BBX 3 3 -4 8
BITMAP
50
20
04
ENDCHAR
STARTCHAR uni0948
ENCODING 2376
SWIDTH 0 0
DWIDTH 0 0
BBX 3 3 -4 8
BITMAP
88
28
08
ENDCHAR
STARTCHAR uni0949
ENCODING 2377
SWIDTH 231 0
DWIDTH 3 0
BBX 5 11 -1 0
BITMAP
4140
2A00
0000
2900
0800
0800
0800
0800
0800
0800
0400
ENDCHAR
STARTCHAR uni094A
ENCODING 2378
SWIDTH 231 0
DWIDTH 3 0
BBX 5 11 -2 0
BITMAP
5000
2400
0600
0A40
0200
0200
0200
0200
0200
0200
0100
ENDCHAR
STARTCHAR uni094B
ENCODING 2379
SWIDTH 231 0
DWIDTH 3 0
BBX 4 11 -1 0
BITMAP
80
20
14
29
08
08
08
08
08
08
04
ENDCHAR
STARTCHAR uni094C
ENCODING 2380
SWIDTH 231 0
DWIDTH 3 0
BBX 4 11 -1 0
BITMAP
88
18
18
29
08
08
08
08
08
08
04
ENDCHAR
STARTCHAR uni094D
ENCODING 2381
SWIDTH 0 0
DWIDTH 0 0
BBX 2 2 -2 -3
BITMAP
50
20
ENDCHAR
STARTCHAR uni0950
ENCODING 2384
SWIDTH 847 0
DWIDTH 10 0
BBX 10 10 0 1
BITMAP
000400
000000
000080
1A0640
004640
004080
01A450
508850
504840
2A0A80
ENDCHAR
STARTCHAR uni0951
ENCODING 2385
SWIDTH 0 0
DWIDTH 0 0
BBX 1 3 -2 8
BITMAP
80
80
40
ENDCHAR
STARTCHAR uni0952
ENCODING 2386
SWIDTH 0 0
DWIDTH 0 0
BBX 4 1 -5 -2
BITMAP
69
ENDCHAR
STARTCHAR uni0953
ENCODING 2387
SWIDTH 0 0
DWIDTH 0 0
BBX 2 3 -3 8
BITMAP
80
50
10
ENDCHAR
STARTCHAR uni0954
ENCODING 2388
SWIDTH 0 0
DWIDTH 0 0
BBX 2 3 -2 8
BITMAP
20
50
40
ENDCHAR
STARTCHAR uni0915093C
ENCODING 2392
SWIDTH 725 0
DWIDTH 9 0
BBX 9 8 0 0
BITMAP
AAAA40
18A900
108200
508200
508200
108200
199900
144000
ENDCHAR
STARTCHAR uni0916093C
ENCODING 2393
SWIDTH 696 0
DWIDTH 8 0
BBX 9 8 0 0
BITMAP
AAAA40
085500
088500
644500
208500
146900
080500
440000
ENDCHAR
STARTCHAR uni0917093C
ENCODING 2394
SWIDTH 494 0
DWIDTH 6 0
BBX 6 8 0 0
BITMAP
AAA0
1480
1480
2080
5080
0080
0080
1040
ENDCHAR
STARTCHAR uni091C093C
ENCODING 2395
SWIDTH 547 0
DWIDTH 7 0
BBX 7 8 0 0
BITMAP
AAA4
0010
2A90
0510
0510
0510
6810
1010
ENDCHAR
STARTCHAR uni0921093C
ENCODING 2396
SWIDTH 475 0
DWIDTH 6 0
BBX 6 9 0 -1
BITMAP
AA90
1A40
2000
2000
1A40
0080
2080
1540
0400
ENDCHAR
STARTCHAR uni0922093C
ENCODING 2397
SWIDTH 485 0
DWIDTH 6 0
BBX 6 9 0 -1
BITMAP
AAA0
0080
1A40
2280
5150
1050
2A80
0000
0500
ENDCHAR
STARTCHAR uni092B093C
ENCODING 2398
SWIDTH 739 0
DWIDTH 9 0
BBX 9 8 0 0
BITMAP
AAAA80
20A900
208200
208100
1A8100
008200
008900
144000
ENDCHAR
STARTCHAR uni092F093C
ENCODING 2399
SWIDTH 564 0
DWIDTH 7 0
BBX 7 8 0 0
BITMAP
AAA4
0420
2820
5020
2020
1A60
0020
1010
ENDCHAR
STARTCHAR uni0960
ENCODING 2400
SWIDTH 753 0
DWIDTH 9 0
BBX 9 9 0 -1
BITMAP
AAAA80
008000
1A8600
109900
509600
028800
188A00
104800
000640
ENDCHAR
STARTCHAR uni0961
ENCODING 2401
SWIDTH 676 0
DWIDTH 8 0
BBX 8 11 0 -3
BITMAP
AAAA
0008
1968
2148
1148
1148
2814
0010
0028
0020
0028
ENDCHAR
STARTCHAR uni0964
ENCODING 2404
SWIDTH 286 0
DWIDTH 3 0
BBX 2 7 1 1
BITMAP
50
50
50
50
50
50
50
ENDCHAR
STARTCHAR uni0965
ENCODING 2405
SWIDTH 518 0
DWIDTH 6 0
BBX 4 8 1 0
BITMAP
52
52
52
52
52
52
52
01
ENDCHAR
STARTCHAR uni0966
ENCODING 2406
SWIDTH 519 0
DWIDTH 6 0
BBX 6 8 0 0
BITMAP
2A80
1050
5050
5050
5050
5050
2050
1540
ENDCHAR
STARTCHAR uni0967
ENCODING 2407
SWIDTH 288 0
DWIDTH 3 0
BBX 3 8 0 0
BITMAP
68
48
08
08
08
08
08
04
ENDCHAR
STARTCHAR uni0968
ENCODING 2408
SWIDTH 453 0
DWIDTH 5 0
BBX 5 8 0 0
BITMAP
2A40
5080
0080
0140
0800
2000
5000
6A40
ENDCHAR
STARTCHAR uni0969
ENCODING 2409
SWIDTH 489 0
DWIDTH 6 0
BBX 5 8 0 0
BITMAP
2A80
5080
0080
0640
0080
5080
5080
1500
ENDCHAR
STARTCHAR uni096A
ENCODING 2410
SWIDTH 453 0
DWIDTH 5 0
BBX 6 8 0 0
BITMAP
0240
0540
0440
2040
5040
AA90
0040
0040
ENDCHAR
STARTCHAR uni096B
ENCODING 2411
SWIDTH 480 0
DWIDTH 6 0
BBX 5 8 0 0
BITMAP
2A80
5000
6A40
1080
0040
1040
2080
1500
ENDCHAR
STARTCHAR uni096C
ENCODING 2412
SWIDTH 495 0
DWIDTH 6 0
BBX 6 8 0 0
BITMAP
2A80
1000
6A40
6050
5050
5050
2080
1540
ENDCHAR
STARTCHAR uni096D
ENCODING 2413
SWIDTH 380 0
DWIDTH 5 0
BBX 5 8 0 0
BITMAP
6A40
0200
0200
0500
0800
1400
2000
1000
ENDCHAR
STARTCHAR uni096E
ENCODING 2414
SWIDTH 523 0
DWIDTH 6 0
BBX 6 8 0 0
BITMAP
2A80
1050
2050
2A80
2050
5010
2050
1540
ENDCHAR
STARTCHAR uni096F
ENCODING 2415
SWIDTH 493 0
DWIDTH 6 0
BBX 5 8 0 0
BITMAP
2A80
5080
5080
2A80
0080
0080
0080
1900
ENDCHAR
STARTCHAR uni0970
ENCODING 2416
SWIDTH 391 0
DWIDTH 5 0
BBX 5 5 0 2
BITMAP
2900
5200
8140
5200
2900
ENDCHAR
STARTCHAR uni0972
ENCODING 2418
SWIDTH 598 0
DWIDTH 7 0
BBX 8 11 0 0
BITMAP
0042
0069
0000
2918
0220
0220
1920
02A0
0220
6920
0010
ENDCHAR
STARTCHAR Wgrave
ENCODING 7808
SWIDTH 795 0
DWIDTH 10 0
BBX 9 10 0 0
BITMAP
014000
004000
809080
509080
216080
212140
221540
120A00
190A00
0C0A00
ENDCHAR
STARTCHAR wgrave
ENCODING 7809
SWIDTH 682 0
DWIDTH 8 0
BBX 8 8 0 0
BITMAP
0200
0000
8182
5282
2245
2158
1828
0824
ENDCHAR
STARTCHAR Wacute
ENCODING 7810
SWIDTH 795 0
DWIDTH 10 0
BBX 9 10 0 0
BITMAP
002000
000000
809080
509080
216080
212140
221540
120A00
190A00
0C0A00
ENDCHAR
STARTCHAR wacute
ENCODING 7811
SWIDTH 682 0
DWIDTH 8 0
BBX 8 8 0 0
BITMAP
0090
0000
8182
5282
2245
2158
1828
0824
ENDCHAR
STARTCHAR Wdieresis
ENCODING 7812
SWIDTH 795 0
DWIDTH 10 0
BBX 9 10 0 0
BITMAP
022000
011000
809080
509080
216080
212140
221540
120A00
190A00
0C0A00
ENDCHAR
STARTCHAR wdieresis
ENCODING 7813
SWIDTH 682 0
DWIDTH 8 0
BBX 8 8 0 0
BITMAP
0550
0110
8182
5282
2245
2158
1828
0824
ENDCHAR
STARTCHAR uni1E9E
ENCODING 7838
SWIDTH 542 0
DWIDTH 7 0
BBX 5 8 1 0
BITMAP
6A80
8200
8200
8640
8080
8080
8080
8A40
ENDCHAR
STARTCHAR Ygrave
ENCODING 7922
SWIDTH 493 0
DWIDTH 6 0
BBX 6 10 0 0
BITMAP
0800
0400
5050
2080
2140
0A00
0900
0500
0500
0500
ENDCHAR
STARTCHAR ygrave
ENCODING 7923
SWIDTH 459 0
DWIDTH 6 0
BBX 5 10 0 -2
BITMAP
0800
0000
8080
5080
2140
2200
1600
0900
0800
6400
ENDCHAR
STARTCHAR uni200B
ENCODING 8203
SWIDTH 0 0
DWIDTH 0 0
BBX 1 1 0 0
BITMAP
00
ENDCHAR
STARTCHAR uni200C
ENCODING 8204
SWIDTH 0 0
DWIDTH 0 0
BBX 2 12 -1 -3
BITMAP
50
50
50
50
50
50
50
50
50
50
50
50
ENDCHAR
STARTCHAR uni200D
ENCODING 8205
SWIDTH 0 0
DWIDTH 0 0
BBX 4 12 -2 -3
BITMAP
69
28
55
14
14
14
14
14
14
14
14
14
ENDCHAR
STARTCHAR endash
ENCODING 8211
SWIDTH 408 0
DWIDTH 5 0
BBX 5 1 0 3
BITMAP
6A40
ENDCHAR
STARTCHAR emdash
ENCODING 8212
SWIDTH 537 0
DWIDTH 6 0
BBX 6 1 0 3
BITMAP
6A90
ENDCHAR
STARTCHAR quoteleft
ENCODING 8216
SWIDTH 179 0
DWIDTH 2 0
BBX 2 3 0 5
BITMAP
10
10
50
ENDCHAR
STARTCHAR quoteright
ENCODING 8217
SWIDTH 179 0
DWIDTH 2 0
BBX 2 3 0 5
BITMAP
50
50
40
ENDCHAR
STARTCHAR quotesinglbase
ENCODING 8218
SWIDTH 187 0
DWIDTH 2 0
BBX 2 3 0 -1
BITMAP
10
50
40
ENDCHAR
STARTCHAR quotedblleft
ENCODING 8220
SWIDTH 329 0
DWIDTH 4 0
BBX 4 3 0 5
BITMAP
10
15
55
ENDCHAR
STARTCHAR quotedblright
ENCODING 8221
SWIDTH 329 0
DWIDTH 4 0
BBX 4 3 0 5
BITMAP
55
54
44
ENDCHAR
STARTCHAR quotedblbase
ENCODING 8222
SWIDTH 337 0
DWIDTH 4 0
BBX 4 3 0 -1
BITMAP
15
54
44
ENDCHAR
STARTCHAR dagger
ENCODING 8224
SWIDTH 427 0
DWIDTH 5 0
BBX 5 8 0 0
BITMAP
0800
0400
5940
0800
0800
0800
0400
0400
ENDCHAR
STARTCHAR daggerdbl
ENCODING 8225
SWIDTH 427 0
DWIDTH 5 0
BBX 5 8 0 0
BITMAP
0800
0400
5940
0800
0800
5940
0400
0800
ENDCHAR
STARTCHAR bullet
ENCODING 8226
SWIDTH 273 0
DWIDTH 3 0
BBX 1 2 1 3
BITMAP
C0
C0
ENDCHAR
STARTCHAR ellipsis
ENCODING 8230
SWIDTH 591 0
DWIDTH 7 0
BBX 7 2 0 0
BITMAP
1114
5214
ENDCHAR
STARTCHAR perthousand
ENCODING 8240
SWIDTH 1027 0
DWIDTH 12 0
BBX 12 8 0 0
BITMAP
251000
411000
425000
148000
005515
011112
011111
042525
ENDCHAR
STARTCHAR guilsinglleft
ENCODING 8249
SWIDTH 290 0
DWIDTH 3 0
BBX 2 4 1 1
BITMAP
10
80
80
10
ENDCHAR
STARTCHAR guilsinglright
ENCODING 8250
SWIDTH 290 0
DWIDTH 3 0
BBX 2 4 1 1
BITMAP
40
50
50
40
ENDCHAR
STARTCHAR fraction
ENCODING 8260
SWIDTH 117 0
DWIDTH 1 0
BBX 6 8 -2 0
BITMAP
0010
0080
0100
0500
0800
2000
5000
4000
ENDCHAR
STARTCHAR Euro
ENCODING 8364
SWIDTH 523 0
DWIDTH 6 0
BBX 6 8 0 0
BITMAP
1A80
2050
2000
6500
6500
2010
2050
1A80
ENDCHAR
STARTCHAR uni20B9
ENCODING 8377
SWIDTH 414 0
DWIDTH 5 0
BBX 5 8 0 0
BITMAP
6A40
6A40
0500
6400
2000
1400
0800
0100
ENDCHAR
STARTCHAR trademark
ENCODING 8482
SWIDTH 591 0
DWIDTH 7 0
BBX 6 3 1 5
BITMAP
9550
4550
4410
ENDCHAR
STARTCHAR uni2126
ENCODING 8486
SWIDTH 629 0
DWIDTH 8 0
BBX 7 8 0 0
BITMAP
1AA0
2014
2014
2014
2014
2014
2424
6864
ENDCHAR
STARTCHAR partialdiff
ENCODING 8706
SWIDTH 481 0
DWIDTH 6 0
BBX 5 9 0 0
BITMAP
1500
0240
0080
1A80
5080
5080
5080
2080
1500
ENDCHAR
STARTCHAR uni2206
ENCODING 8710
SWIDTH 594 0
DWIDTH 7 0
BBX 7 8 0 0
BITMAP
0300
0540
0880
0450
2020
2020
5014
6AA4
ENDCHAR
STARTCHAR minus
ENCODING 8722
SWIDTH 523 0
DWIDTH 6 0
BBX 5 1 1 4
BITMAP
AA40
ENDCHAR
STARTCHAR approxequal
ENCODING 8776
SWIDTH 523 0
DWIDTH 6 0
BBX 4 3 1 2
BITMAP
55
00
55
ENDCHAR
STARTCHAR notequal
ENCODING 8800
SWIDTH 523 0
DWIDTH 6 0
BBX 5 5 1 1
BITMAP
0400
AA40
0400
AA40
2000
ENDCHAR
STARTCHAR lessequal
ENCODING 8804
SWIDTH 523 0
DWIDTH 6 0
BBX 5 5 1 1
BITMAP
0640
9000
5900
0000
AA40
ENDCHAR
STARTCHAR greaterequal
ENCODING 8805
SWIDTH 523 0
DWIDTH 6 0
BBX 5 5 1 1
BITMAP
A400
0640
6900
4000
AA40
ENDCHAR
STARTCHAR uni25CC
ENCODING 9676
SWIDTH 701 0
DWIDTH 8 0
BBX 7 7 1 1
BITMAP
2580
0020
8018
8000
0014
5060
1A40
ENDCHAR
STARTCHAR commaaccent
ENCODING 63171
SWIDTH 0 0
DWIDTH 0 0
BBX 1 3 2 -3
BITMAP
40
80
40
ENDCHAR
STARTCHAR .notdef
ENCODING -1
SWIDTH 600 0
DWIDTH 7 0
BBX 5 8 1 0
BITMAP
6A80
8080
8080
8080
8080
8080
8080
6A80
ENDCHAR
STARTCHAR .null
ENCODING -1
SWIDTH 0 0
DWIDTH 0 0
BBX 1 1 0 0
BITMAP
00
ENDCHAR
STARTCHAR nonmarkingreturn
ENCODING -1
SWIDTH 333 0
DWIDTH 4 0
BBX 1 1 0 0
BITMAP
00
ENDCHAR
STARTCHAR uni0915094D
ENCODING -1
SWIDTH 519 0
DWIDTH 6 0
BBX 8 8 0 0
BITMAP
AAA9
18A9
1081
5080
5080
1080
1980
0040
ENDCHAR
STARTCHAR uni0916094D
ENCODING -1
SWIDTH 468 0
DWIDTH 6 0
BBX 7 8 0 0
BITMAP
AAA4
0850
0880
6440
2084
1464
0800
0400
ENDCHAR
STARTCHAR uni0917094D
ENCODING -1
SWIDTH 264 0
DWIDTH 3 0
BBX 3 5 0 3
BITMAP
A8
14
14
20
50
ENDCHAR
STARTCHAR uni0918094D
ENCODING -1
SWIDTH 321 0
DWIDTH 4 0
BBX 6 7 0 1
BITMAP
BA90
1000
2000
2800
2000
2000
1A80
ENDCHAR
STARTCHAR uni0919094D
ENCODING -1
SWIDTH 505 0
DWIDTH 6 0
BBX 6 10 0 -2
BITMAP
AAA0
1A40
2000
2010
1A40
0080
2080
1540
0500
0200
ENDCHAR
STARTCHAR uni091A094D
ENCODING -1
SWIDTH 330 0
DWIDTH 4 0
BBX 6 7 0 1
BITMAP
AA90
0000
6900
2000
2000
2010
0A80
ENDCHAR
STARTCHAR uni091B094D
ENCODING -1
SWIDTH 581 0
DWIDTH 7 0
BBX 7 7 0 1
BITMAP
AAA8
2090
2020
2810
2010
2020
2A90
ENDCHAR
STARTCHAR uni091C094D
ENCODING -1
SWIDTH 309 0
DWIDTH 4 0
BBX 5 7 0 1
BITMAP
AA80
0000
2A80
0500
0500
0500
6800
ENDCHAR
STARTCHAR uni091D094D
ENCODING -1
SWIDTH 432 0
DWIDTH 5 0
BBX 7 8 0 0
BITMAP
AAA4
2A00
2000
1AA4
0080
5080
6A40
5000
ENDCHAR
STARTCHAR uni091E094D
ENCODING -1
SWIDTH 359 0
DWIDTH 4 0
BBX 6 7 0 1
BITMAP
AA90
0000
2800
0100
0290
0100
6800
ENDCHAR
STARTCHAR uni091F094D
ENCODING -1
SWIDTH 485 0
DWIDTH 6 0
BBX 6 10 0 -2
BITMAP
AAA0
0080
1A40
1000
5000
1050
2A80
0000
0200
0140
ENDCHAR
STARTCHAR uni0920094D
ENCODING -1
SWIDTH 512 0
DWIDTH 6 0
BBX 6 10 0 -2
BITMAP
AAA0
0080
1A80
1050
5050
1050
2A80
0000
0200
0100
ENDCHAR
STARTCHAR uni0921094D
ENCODING -1
SWIDTH 475 0
DWIDTH 6 0
BBX 6 10 0 -2
BITMAP
AA90
1A40
2000
2000
1A40
0080
2080
1540
0100
0140
ENDCHAR
STARTCHAR uni0922094D
ENCODING -1
SWIDTH 485 0
DWIDTH 6 0
BBX 6 10 0 -2
BITMAP
AAA0
0080
1A40
2280
5150
1050
2A80
0000
0200
0140
ENDCHAR
STARTCHAR uni0923094D
ENCODING -1
SWIDTH 454 0
DWIDTH 5 0
BBX 6 6 0 2
BITMAP
AA90
2040
2040
2040
2140
1A00
ENDCHAR
STARTCHAR uni0924094D
ENCODING -1
SWIDTH 263 0
DWIDTH 3 0
BBX 5 8 0 0
BITMAP
AA40
0000
1A40
1000
5000
5000
2000
1400
ENDCHAR
STARTCHAR uni0925094D
ENCODING -1
SWIDTH 359 0
DWIDTH 4 0
BBX 6 7 0 1
BITMAP
2A00
2200
0200
6900
5000
2010
1A80
ENDCHAR
STARTCHAR uni0926094D
ENCODING -1
SWIDTH 489 0
DWIDTH 6 0
BBX 6 10 0 -2
BITMAP
AAA0
1A80
2000
5000
5040
2080
1A80
0040
0200
0100
ENDCHAR
STARTCHAR uni0927094D
ENCODING -1
SWIDTH 321 0
DWIDTH 4 0
BBX 6 7 0 1
BITMAP
B490
1000
2000
2800
2000
2000
1A80
ENDCHAR
STARTCHAR uni0928094D
ENCODING -1
SWIDTH 233 0
DWIDTH 3 0
BBX 4 6 0 2
BITMAP
AA
00
00
6A
80
40
ENDCHAR
STARTCHAR uni092A094D
ENCODING -1
SWIDTH 269 0
DWIDTH 3 0
BBX 5 6 0 2
BITMAP
AA40
2000
2000
2000
2040
1A40
ENDCHAR
STARTCHAR uni092B094D
ENCODING -1
SWIDTH 530 0
DWIDTH 6 0
BBX 8 8 0 0
BITMAP
AAA9
20A9
2081
2080
1A80
0080
0080
0040
ENDCHAR
STARTCHAR uni092C094D
ENCODING -1
SWIDTH 265 0
DWIDTH 3 0
BBX 5 7 0 1
BITMAP
AA40
0000
1800
6400
5500
5180
1A40
ENDCHAR
STARTCHAR uni092D094D
ENCODING -1
SWIDTH 261 0
DWIDTH 3 0
BBX 5 6 0 2
BITMAP
9240
2000
2000
2A40
2000
1000
ENDCHAR
STARTCHAR uni092E094D
ENCODING -1
SWIDTH 261 0
DWIDTH 3 0
BBX 5 6 0 2
BITMAP
AA40
2000
2000
2A40
2000
1000
ENDCHAR
STARTCHAR uni092F094D
ENCODING -1
SWIDTH 323 0
DWIDTH 4 0
BBX 5 7 0 1
BITMAP
AA80
0400
0400
2400
5000
2000
1A40
ENDCHAR
STARTCHAR uni0930094D
ENCODING -1
SWIDTH 337 0
DWIDTH 4 0
BBX 4 10 0 -2
BITMAP
AA
08
08
64
20
14
08
04
04
04
ENDCHAR
STARTCHAR uni0932094D
ENCODING -1
SWIDTH 431 0
DWIDTH 5 0
BBX 7 7 0 1
BITMAP
AAA4
0000
1964
2140
1140
1000
2800
ENDCHAR
STARTCHAR uni0933094D
ENCODING -1
SWIDTH 677 0
DWIDTH 8 0
BBX 8 7 0 1
BITMAP
AAAA
0000
1964
1144
5145
5145
2AA8
ENDCHAR
STARTCHAR uni0935094D
ENCODING -1
SWIDTH 255 0
DWIDTH 3 0
BBX 5 7 0 1
BITMAP
AA40
0000
1800
5000
5000
5080
1A40
ENDCHAR
STARTCHAR uni0936094D
ENCODING -1
SWIDTH 378 0
DWIDTH 5 0
BBX 4 8 0 0
BITMAP
2A
12
02
69
20
14
08
04
ENDCHAR
STARTCHAR uni0937094D
ENCODING -1
SWIDTH 282 0
DWIDTH 3 0
BBX 5 6 0 2
BITMAP
BA40
2400
2500
2100
2080
1A40
ENDCHAR
STARTCHAR uni0938094D
ENCODING -1
SWIDTH 338 0
DWIDTH 4 0
BBX 6 8 0 0
BITMAP
AA90
0800
0800
6A90
5000
2000
0800
0400
ENDCHAR
STARTCHAR uni0939094D
ENCODING -1
SWIDTH 457 0
DWIDTH 5 0
BBX 7 9 0 -1
BITMAP
AA90
0080
1A40
2000
2AA4
2000
1000
2000
1A40
ENDCHAR
STARTCHAR uni0915093C094D
ENCODING -1
SWIDTH 519 0
DWIDTH 6 0
BBX 8 8 0 0
BITMAP
AAA9
18A9
1081
5080
5080
1080
1980
1040
ENDCHAR
STARTCHAR uni0916093C094D
ENCODING -1
SWIDTH 463 0
DWIDTH 6 0
BBX 7 8 0 0
BITMAP
AAA4
0850
0880
6440
2084
1464
0800
1400
ENDCHAR
STARTCHAR uni0917093C094D
ENCODING -1
SWIDTH 264 0
DWIDTH 3 0
BBX 3 8 0 0
BITMAP
A8
14
14
20
50
00
00
10
ENDCHAR
STARTCHAR uni091C093C094D
ENCODING -1
SWIDTH 314 0
DWIDTH 4 0
BBX 5 9 0 -1
BITMAP
AA80
0000
2A80
0500
0500
0500
6800
0000
1000
ENDCHAR
STARTCHAR uni0928093C094D
ENCODING -1
SWIDTH 241 0
DWIDTH 3 0
BBX 4 8 0 0
BITMAP
AA
00
00
2A
40
00
00
10
ENDCHAR
STARTCHAR uni092B093C094D
ENCODING -1
SWIDTH 530 0
DWIDTH 6 0
BBX 8 8 0 0
BITMAP
AAA9
20A9
2081
2080
1A80
0080
0080
1440
ENDCHAR
STARTCHAR uni092F093C094D
ENCODING -1
SWIDTH 325 0
DWIDTH 4 0
BBX 5 9 0 -1
BITMAP
AA80
0400
0400
2400
5000
2000
1A40
0000
0400
ENDCHAR
STARTCHAR uni09080902
ENCODING -1
SWIDTH 478 0
DWIDTH 6 0
BBX 6 11 0 0
BITMAP
0190
0240
0200
AA90
1A40
2000
2000
1A40
1080
6080
2540
ENDCHAR
STARTCHAR uni09300941
ENCODING -1
SWIDTH 533 0
DWIDTH 6 0
BBX 7 8 0 0
BITMAP
AAA4
0A80
0820
6420
2050
1540
0800
0400
ENDCHAR
STARTCHAR uni09300942
ENCODING -1
SWIDTH 645 0
DWIDTH 8 0
BBX 8 8 0 0
BITMAP
AAA9
0864
0888
6448
2008
1460
0800
0400
ENDCHAR
STARTCHAR uni09390941
ENCODING -1
SWIDTH 495 0
DWIDTH 6 0
BBX 6 11 0 -3
BITMAP
AAA0
1A40
2000
2000
2A40
2080
2000
1A40
0040
2040
1A80
ENDCHAR
STARTCHAR uni09390942
ENCODING -1
SWIDTH 492 0
DWIDTH 6 0
BBX 6 11 0 -3
BITMAP
AA90
0080
1A40
2000
2A40
2080
2000
2A40
2080
2040
1810
ENDCHAR
STARTCHAR uni09260943
ENCODING -1
SWIDTH 390 0
DWIDTH 5 0
BBX 5 7 0 1
BITMAP
AA40
1A00
2000
2000
2900
2000
2A00
ENDCHAR
STARTCHAR uni09390943
ENCODING -1
SWIDTH 519 0
DWIDTH 6 0
BBX 7 9 0 -1
BITMAP
AAA4
1A40
2000
1000
2A90
1510
5500
1150
1A40
ENDCHAR
STARTCHAR uni094D0930
ENCODING -1
SWIDTH 0 0
DWIDTH 0 0
BBX 4 3 -5 -2
BITMAP
14
28
82
ENDCHAR
STARTCHAR uni0930094D.1
ENCODING -1
SWIDTH 192 0
DWIDTH 2 0
BBX 5 4 -1 4
BITMAP
2900
0000
4040
6A00
ENDCHAR
STARTCHAR uni0930094D.2
ENCODING -1
SWIDTH 0 0
DWIDTH 0 0
BBX 2 4 -2 7
BITMAP
60
80
80
40
ENDCHAR
STARTCHAR uni0930094D0902
ENCODING -1
SWIDTH 0 0
DWIDTH 0 0
BBX 2 4 -2 7
BITMAP
60
90
80
40
ENDCHAR
STARTCHAR uni093E0930094D
ENCODING -1
SWIDTH 231 0
DWIDTH 3 0
BBX 3 11 0 0
BITMAP
18
20
20
A4
20
20
20
20
20
20
10
ENDCHAR
STARTCHAR uni093E0930094D0902
ENCODING -1
SWIDTH 231 0
DWIDTH 3 0
BBX 3 11 0 0
BITMAP
18
24
20
A4
20
20
20
20
20
20
10
ENDCHAR
STARTCHAR uni0930094D.aMatraI
ENCODING -1
SWIDTH 0 0
DWIDTH 0 0
BBX 3 3 -1 8
BITMAP
24
80
80
ENDCHAR
STARTCHAR uni0902.aMatraI
ENCODING -1
SWIDTH 0 0
DWIDTH 0 0
BBX 1 1 0 9
BITMAP
40
ENDCHAR
STARTCHAR uni0930094D0902.aMatraI
ENCODING -1
SWIDTH 0 0
DWIDTH 0 0
BBX 3 3 -1 8
BITMAP
24
80
90
ENDCHAR
STARTCHAR uni09400930094D
ENCODING -1
SWIDTH 231 0
DWIDTH 3 0
BBX 5 11 -2 0
BITMAP
6A80
8200
0200
0A40
0200
0200
0200
0200
0200
0200
0100
ENDCHAR
STARTCHAR uni09400902
ENCODING -1
SWIDTH 231 0
DWIDTH 3 0
BBX 5 11 -2 0
BITMAP
6940
4200
0200
0A40
0200
0200
0200
0200
0200
0200
0100
ENDCHAR
STARTCHAR uni09400930094D0902
ENCODING -1
SWIDTH 231 0
DWIDTH 3 0
BBX 5 11 -2 0
BITMAP
6A80
8240
0200
0A40
0200
0200
0200
0200
0200
0200
0100
ENDCHAR
STARTCHAR uni0940.aLong
ENCODING -1
SWIDTH 231 0
DWIDTH 3 0
BBX 8 11 -5 0
BITMAP
6AA4
8008
0008
0029
0008
0008
0008
0008
0008
0008
0004
ENDCHAR
STARTCHAR uni09400930094D.aLong
ENCODING -1
SWIDTH 231 0
DWIDTH 3 0
BBX 8 11 -5 0
BITMAP
6AAA
8008
0008
0029
0008
0008
0008
0008
0008
0008
0004
ENDCHAR
STARTCHAR uni09400902.aLong
ENCODING -1
SWIDTH 231 0
DWIDTH 3 0
BBX 8 11 -5 0
BITMAP
6AA5
4008
0008
0029
0008
0008
0008
0008
0008
0008
0004
ENDCHAR
STARTCHAR uni09400930094D0902.aLong
ENCODING -1
SWIDTH 231 0
DWIDTH 3 0
BBX 8 11 -5 0
BITMAP
6AAA
8009
0008
0029
0008
0008
0008
0008
0008
0008
0004
ENDCHAR
STARTCHAR uni09470930094D
ENCODING -1
SWIDTH 0 0
DWIDTH 0 0
BBX 4 3 -4 8
BITMAP
56
28
08
ENDCHAR
STARTCHAR uni09470902
ENCODING -1
SWIDTH 0 0
DWIDTH 0 0
BBX 4 3 -4 8
BITMAP
50
21
04
ENDCHAR
STARTCHAR uni09470901
ENCODING -1
SWIDTH 0 0
DWIDTH 0 0
BBX 6 3 -4 8
BITMAP
5040
26A0
0400
ENDCHAR
STARTCHAR uni09470930094D0902
ENCODING -1
SWIDTH 0 0
DWIDTH 0 0
BBX 4 3 -4 8
BITMAP
56
29
08
ENDCHAR
STARTCHAR uni09480930094D
ENCODING -1
SWIDTH 0 0
DWIDTH 0 0
BBX 4 4 -4 7
BITMAP
8A
18
18
04
ENDCHAR
STARTCHAR uni09480902
ENCODING -1
SWIDTH 0 0
DWIDTH 0 0
BBX 5 4 -4 7
BITMAP
8800
2940
1800
0400
ENDCHAR
STARTCHAR uni09480901
ENCODING -1
SWIDTH 0 0
DWIDTH 0 0
BBX 8 4 -4 7
BITMAP
8810
2905
18A8
0400
ENDCHAR
STARTCHAR uni09480930094D0902
ENCODING -1
SWIDTH 0 0
DWIDTH 0 0
BBX 4 4 -4 7
BITMAP
8A
29
18
04
ENDCHAR
STARTCHAR uni094B0930094D
ENCODING -1
SWIDTH 231 0
DWIDTH 3 0
BBX 4 11 -1 0
BITMAP
86
28
18
29
08
08
08
08
08
08
04
ENDCHAR
STARTCHAR uni094B0902
ENCODING -1
SWIDTH 231 0
DWIDTH 3 0
BBX 4 11 -1 0
BITMAP
81
20
14
29
08
08
08
08
08
08
04
ENDCHAR
STARTCHAR uni094B0930094D0902
ENCODING -1
SWIDTH 231 0
DWIDTH 3 0
BBX 4 11 -1 0
BITMAP
8A
29
18
29
08
08
08
08
08
08
04
ENDCHAR
STARTCHAR uni094C0930094D
ENCODING -1
SWIDTH 231 0
DWIDTH 3 0
BBX 4 11 -1 0
BITMAP
9A
68
18
29
08
08
08
08
08
08
04
ENDCHAR
STARTCHAR uni094C0902
ENCODING -1
SWIDTH 231 0
DWIDTH 3 0
BBX 4 11 -1 0
BITMAP
89
28
18
29
08
08
08
08
08
08
04
ENDCHAR
STARTCHAR uni094C0930094D0902
ENCODING -1
SWIDTH 231 0
DWIDTH 3 0
BBX 4 11 -1 0
BITMAP
9A
69
18
29
08
08
08
08
08
08
04
ENDCHAR
STARTCHAR uni0915094D0937
ENCODING -1
SWIDTH 656 0
DWIDTH 8 0
BBX 8 8 0 0
BITMAP
1A4A
2088
2AA8
1008
5048
1088
1A88
0044
ENDCHAR
STARTCHAR uni0915094D0937094D
ENCODING -1
SWIDTH 429 0
DWIDTH 5 0
BBX 7 8 0 0
BITMAP
1A40
2080
2AA4
1000
5040
1080
1A80
0040
ENDCHAR
STARTCHAR uni0915094D0937094D092E
ENCODING -1
SWIDTH 933 0
DWIDTH 11 0
BBX 12 8 0 0
BITMAP
1A5AA9
208810
2AA810
100AA0
504810
108010
1A8010
004010
ENDCHAR
STARTCHAR uni0915094D0937094D092E094D
ENCODING -1
SWIDTH 717 0
DWIDTH 9 0
BBX 10 8 0 0
BITMAP
1A5AA0
208800
2AA800
100A90
504800
108000
1A8000
004000
ENDCHAR
STARTCHAR uni0915094D0937094D092E094D092F
ENCODING -1
SWIDTH 1283 0
DWIDTH 15 0
BBX 16 8 0 0
BITMAP
1A5AAAA9
20880214
2AA81914
100AA014
50481414
10800AA4
19800014
00400000
ENDCHAR
STARTCHAR uni0915094D0937094D092F
ENCODING -1
SWIDTH 989 0
DWIDTH 12 0
BBX 12 8 0 0
BITMAP
1A5AAA
208148
2AAA08
100408
504808
1086A8
198008
004004
ENDCHAR
STARTCHAR uni0915094D0937094D0935
ENCODING -1
SWIDTH 936 0
DWIDTH 11 0
BBX 12 8 0 0
BITMAP
1A5AA9
208650
2AA810
100810
504820
1086A0
198010
004010
ENDCHAR
STARTCHAR uni091C094D091E
ENCODING -1
SWIDTH 629 0
DWIDTH 8 0
BBX 8 8 0 0
BITMAP
AAA9
1AA4
2014
2014
1A54
1094
2A54
1004
ENDCHAR
STARTCHAR uni091C094D091E094D
ENCODING -1
SWIDTH 398 0
DWIDTH 5 0
BBX 6 8 0 0
BITMAP
AAA0
1AA0
2000
2000
1A40
1080
2A40
1000
ENDCHAR
STARTCHAR uni091C094D091E094D092F
ENCODING -1
SWIDTH 975 0
DWIDTH 12 0
BBX 12 8 0 0
BITMAP
AAAAA9
1AA108
201608
201908
1A4408
108698
2A4008
100004
ENDCHAR
STARTCHAR uni0915094D0928
ENCODING -1
SWIDTH 1003 0
DWIDTH 12 0
BBX 12 8 0 0
BITMAP
AAAAAA
18A908
1082A8
508208
508208
108008
198008
004004
ENDCHAR
STARTCHAR uni0916094D0928
ENCODING -1
SWIDTH 958 0
DWIDTH 12 0
BBX 12 8 0 0
BITMAP
AAAAA9
086414
088414
648AA4
206814
140014
080014
040004
ENDCHAR
STARTCHAR uni0917094D0928
ENCODING -1
SWIDTH 736 0
DWIDTH 9 0
BBX 9 8 0 0
BITMAP
AAAA80
140200
14AA00
214200
514200
000200
000200
000100
ENDCHAR
STARTCHAR uni0918094D0928
ENCODING -1
SWIDTH 814 0
DWIDTH 10 0
BBX 10 8 0 0
BITMAP
BAAA90
200080
280080
102A80
205080
1A9080
000080
000040
ENDCHAR
STARTCHAR uni091A094D0928
ENCODING -1
SWIDTH 829 0
DWIDTH 10 0
BBX 10 8 0 0
BITMAP
AAAAA0
000080
690080
202A80
205080
095080
000080
000040
ENDCHAR
STARTCHAR uni091B094D0928
ENCODING -1
SWIDTH 977 0
DWIDTH 12 0
BBX 12 8 0 0
BITMAP
BAAAA9
209008
1022A8
281508
201508
202008
2A9008
000004
ENDCHAR
STARTCHAR uni091C094D0928
ENCODING -1
SWIDTH 831 0
DWIDTH 10 0
BBX 10 8 0 0
BITMAP
AAAAA0
000080
2AAA80
051080
051080
050080
680080
000040
ENDCHAR
STARTCHAR uni091D094D0928
ENCODING -1
SWIDTH 935 0
DWIDTH 11 0
BBX 12 8 0 0
BITMAP
AAAAA9
2A0010
200010
1AA810
008810
508010
6A4010
500010
ENDCHAR
STARTCHAR uni091F094D0928
ENCODING -1
SWIDTH 494 0
DWIDTH 6 0
BBX 6 11 0 -3
BITMAP
AAA0
0080
1A40
2000
5050
2050
1A80
0080
2A80
1080
0080
ENDCHAR
STARTCHAR uni0920094D0928
ENCODING -1
SWIDTH 516 0
DWIDTH 6 0
BBX 7 11 0 -3
BITMAP
AAA4
0080
1A80
2050
5050
2050
1A80
0080
2A80
1080
0080
ENDCHAR
STARTCHAR uni0921094D0928
ENCODING -1
SWIDTH 481 0
DWIDTH 6 0
BBX 6 11 0 -3
BITMAP
AA90
0080
1A40
2000
1A40
1080
2A80
0080
2A80
2080
1080
ENDCHAR
STARTCHAR uni0924094D0928
ENCODING -1
SWIDTH 756 0
DWIDTH 9 0
BBX 9 8 0 0
BITMAP
AAAA80
000200
10AA00
108200
504200
500200
200200
140100
ENDCHAR
STARTCHAR uni0925094D0928
ENCODING -1
SWIDTH 855 0
DWIDTH 10 0
BBX 11 8 0 0
BITMAP
2A2AA4
120040
691A80
502040
202040
1A9040
000040
000040
ENDCHAR
STARTCHAR uni0926094D0928
ENCODING -1
SWIDTH 955 0
DWIDTH 11 0
BBX 12 10 0 -2
BITMAP
AAAAA9
1A8014
2006A4
500814
504814
208014
1A8014
004004
005000
002000
ENDCHAR
STARTCHAR uni0927094D0928
ENCODING -1
SWIDTH 814 0
DWIDTH 10 0
BBX 10 8 0 0
BITMAP
B86A90
200080
280080
102A80
205080
1A5080
000080
000040
ENDCHAR
STARTCHAR uni0928094D0928
ENCODING -1
SWIDTH 738 0
DWIDTH 9 0
BBX 9 8 0 0
BITMAP
AAAA80
000200
2AAA00
514200
404200
000200
000200
000100
ENDCHAR
STARTCHAR uni092A094D0928
ENCODING -1
SWIDTH 782 0
DWIDTH 9 0
BBX 10 7 0 1
BITMAP
AAAA90
200140
206A40
208140
1A8140
000140
000140
ENDCHAR
STARTCHAR uni092B094D0928
ENCODING -1
SWIDTH 1013 0
DWIDTH 12 0
BBX 12 8 0 0
BITMAP
AAAAAA
20A908
2082A8
208208
1A8108
008008
008008
004004
ENDCHAR
STARTCHAR uni092C094D0928
ENCODING -1
SWIDTH 810 0
DWIDTH 10 0
BBX 10 8 0 0
BITMAP
AAAA90
180080
242A80
545080
525080
214080
1A0080
000040
ENDCHAR
STARTCHAR uni092D094D0928
ENCODING -1
SWIDTH 757 0
DWIDTH 9 0
BBX 9 8 0 0
BITMAP
92AA80
200200
206A00
2A8200
208200
000200
000200
000100
ENDCHAR
STARTCHAR uni092E094D0928
ENCODING -1
SWIDTH 757 0
DWIDTH 9 0
BBX 9 8 0 0
BITMAP
AAAA80
200200
206A00
2A8200
208200
000200
000200
000100
ENDCHAR
STARTCHAR uni092F094D0928
ENCODING -1
SWIDTH 829 0
DWIDTH 10 0
BBX 10 8 0 0
BITMAP
AAAAA0
040080
280080
502A80
205080
155080
000080
000040
ENDCHAR
STARTCHAR uni0935094D0928
ENCODING -1
SWIDTH 798 0
DWIDTH 10 0
BBX 10 8 0 0
BITMAP
AAAA90
180040
102A40
508040
504040
104040
1A0040
000040
ENDCHAR
STARTCHAR uni0936094D0928
ENCODING -1
SWIDTH 845 0
DWIDTH 10 0
BBX 10 8 0 0
BITMAP
2A2AA0
120080
021A80
692080
201080
140080
080080
000040
ENDCHAR
STARTCHAR uni0938094D0928
ENCODING -1
SWIDTH 831 0
DWIDTH 10 0
BBX 10 8 0 0
BITMAP
AAAAA0
080080
081A80
6A9080
501080
200080
080080
040040
ENDCHAR
STARTCHAR uni0939094D0928
ENCODING -1
SWIDTH 500 0
DWIDTH 6 0
BBX 6 9 0 -1
BITMAP
AAA0
1A80
2000
2000
2A90
2150
1110
2100
1A40
ENDCHAR
STARTCHAR uni0915094D0930
ENCODING -1
SWIDTH 725 0
DWIDTH 9 0
BBX 9 8 0 0
BITMAP
AAAA40
18A900
508200
508200
508200
1A9900
088000
144000
ENDCHAR
STARTCHAR uni0916094D0930
ENCODING -1
SWIDTH 698 0
DWIDTH 8 0
BBX 9 8 0 0
BITMAP
AAAA40
085500
088500
644500
208500
146900
082500
048000
ENDCHAR
STARTCHAR uni0917094D0930
ENCODING -1
SWIDTH 494 0
DWIDTH 6 0
BBX 6 8 0 0
BITMAP
AAA0
1480
1480
2080
5180
0580
0480
1040
ENDCHAR
STARTCHAR uni0918094D0930
ENCODING -1
SWIDTH 559 0
DWIDTH 7 0
BBX 7 8 0 0
BITMAP
BAA4
2020
2820
2020
1020
2020
1A60
0510
ENDCHAR
STARTCHAR uni0919094D0930
ENCODING -1
SWIDTH 505 0
DWIDTH 6 0
BBX 6 10 0 -2
BITMAP
AAA0
1A40
2000
2010
1A40
0080
2080
1E40
1600
1040
ENDCHAR
STARTCHAR uni091A094D0930
ENCODING -1
SWIDTH 563 0
DWIDTH 7 0
BBX 7 8 0 0
BITMAP
AAA4
0020
6920
2020
2020
1AA0
0220
0810
ENDCHAR
STARTCHAR uni091B094D0930
ENCODING -1
SWIDTH 581 0
DWIDTH 7 0
BBX 7 9 0 -1
BITMAP
AAA8
2020
20A0
2820
2010
2020
2AA0
0540
0840
ENDCHAR
STARTCHAR uni091C094D0930
ENCODING -1
SWIDTH 547 0
DWIDTH 7 0
BBX 7 8 0 0
BITMAP
AAA4
0010
2A90
0510
0510
0550
6990
0510
ENDCHAR
STARTCHAR uni091D094D0930
ENCODING -1
SWIDTH 684 0
DWIDTH 8 0
BBX 9 8 0 0
BITMAP
AAAA40
2A0400
200400
1AA800
008400
508C00
6A6800
509400
ENDCHAR
STARTCHAR uni091E094D0930
ENCODING -1
SWIDTH 598 0
DWIDTH 7 0
BBX 7 8 0 0
BITMAP
AAA8
2810
0110
02A0
0120
6860
0150
0110
ENDCHAR
STARTCHAR uni091F094D0930
ENCODING -1
SWIDTH 485 0
DWIDTH 6 0
BBX 6 9 0 -1
BITMAP
AAA0
0080
1A40
1000
5000
1050
2A80
0A00
1480
ENDCHAR
STARTCHAR uni0920094D0930
ENCODING -1
SWIDTH 512 0
DWIDTH 6 0
BBX 6 9 0 -1
BITMAP
AAA0
0080
1A80
1050
5050
1050
2A80
0A00
1480
ENDCHAR
STARTCHAR uni0921094D0930
ENCODING -1
SWIDTH 475 0
DWIDTH 6 0
BBX 6 9 0 -1
BITMAP
AA90
1A40
2000
2000
1A40
1080
2080
1A40
1540
ENDCHAR
STARTCHAR uni0922094D0930
ENCODING -1
SWIDTH 485 0
DWIDTH 6 0
BBX 6 9 0 -1
BITMAP
AAA0
0080
1A40
2280
5150
1050
2A80
0A00
1480
ENDCHAR
STARTCHAR uni0923094D0930
ENCODING -1
SWIDTH 681 0
DWIDTH 8 0
BBX 8 8 0 0
BITMAP
AAAA
2048
2048
2148
1A18
0018
0088
0104
ENDCHAR
STARTCHAR uni0924094D0930
ENCODING -1
SWIDTH 493 0
DWIDTH 6 0
BBX 6 8 0 0
BITMAP
AAA0
0080
1A80
5080
1080
0280
1880
1040
ENDCHAR
STARTCHAR uni0925094D0930
ENCODING -1
SWIDTH 593 0
DWIDTH 7 0
BBX 7 8 0 0
BITMAP
2A28
2220
0220
6920
5020
1AA0
0260
0910
ENDCHAR
STARTCHAR uni0926094D0930
ENCODING -1
SWIDTH 489 0
DWIDTH 6 0
BBX 6 8 0 0
BITMAP
AAA0
1A80
2000
5000
5040
2080
1A80
0540
ENDCHAR
STARTCHAR uni0927094D0930
ENCODING -1
SWIDTH 560 0
DWIDTH 7 0
BBX 7 8 0 0
BITMAP
B4A4
2020
2820
2020
1020
2020
1AA0
0510
ENDCHAR
STARTCHAR uni0928094D0930
ENCODING -1
SWIDTH 473 0
DWIDTH 6 0
BBX 6 8 0 0
BITMAP
AA90
0080
2A80
5180
4280
0880
1480
1040
ENDCHAR
STARTCHAR uni092A094D0930
ENCODING -1
SWIDTH 503 0
DWIDTH 6 0
BBX 6 8 0 0
BITMAP
AAA0
2080
2080
2080
1A80
0580
1480
1040
ENDCHAR
STARTCHAR uni092B094D0930
ENCODING -1
SWIDTH 741 0
DWIDTH 9 0
BBX 9 8 0 0
BITMAP
AAAA80
20A900
208200
208100
1A8200
058900
148000
104000
ENDCHAR
STARTCHAR uni092C094D0930
ENCODING -1
SWIDTH 491 0
DWIDTH 6 0
BBX 6 8 0 0
BITMAP
AAA0
1880
2080
5880
5280
1180
1A80
0440
ENDCHAR
STARTCHAR uni092D094D0930
ENCODING -1
SWIDTH 491 0
DWIDTH 6 0
BBX 6 8 0 0
BITMAP
92A0
2080
2080
2A80
2180
0580
0880
1040
ENDCHAR
STARTCHAR uni092E094D0930
ENCODING -1
SWIDTH 490 0
DWIDTH 6 0
BBX 6 8 0 0
BITMAP
AAA0
2080
2080
2A80
2180
0580
1880
1040
ENDCHAR
STARTCHAR uni092F094D0930
ENCODING -1
SWIDTH 564 0
DWIDTH 7 0
BBX 7 8 0 0
BITMAP
AAA4
0420
2820
5020
2020
1AA0
0220
0810
ENDCHAR
STARTCHAR uni0935094D0930
ENCODING -1
SWIDTH 484 0
DWIDTH 6 0
BBX 6 8 0 0
BITMAP
AA90
1880
2080
5080
5080
1080
1A80
1440
ENDCHAR
STARTCHAR uni0936094D0930
ENCODING -1
SWIDTH 558 0
DWIDTH 7 0
BBX 7 8 0 0
BITMAP
2A24
5220
2220
1D20
62A0
0260
0820
0010
ENDCHAR
STARTCHAR uni0938094D0930
ENCODING -1
SWIDTH 604 0
DWIDTH 7 0
BBX 8 8 0 0
BITMAP
AAA9
0810
0810
6AB0
50A0
2150
0810
0410
ENDCHAR
STARTCHAR uni0939094D0930
ENCODING -1
SWIDTH 505 0
DWIDTH 6 0
BBX 6 9 0 -1
BITMAP
AAA0
1A80
2000
2000
2A90
1150
5550
1000
1A40
ENDCHAR
STARTCHAR uni0915093C094D0930
ENCODING -1
SWIDTH 725 0
DWIDTH 9 0
BBX 9 9 0 -1
BITMAP
AAAA40
18A900
508200
508200
508200
1A9900
088000
144000
040000
ENDCHAR
STARTCHAR uni0916093C094D0930
ENCODING -1
SWIDTH 698 0
DWIDTH 8 0
BBX 9 9 0 -1
BITMAP
AAAA40
085500
088500
644500
208500
146900
082500
048000
001000
ENDCHAR
STARTCHAR uni0917093C094D0930
ENCODING -1
SWIDTH 494 0
DWIDTH 6 0
BBX 6 9 0 -1
BITMAP
AAA0
1480
1480
2080
5180
0580
0480
1040
0400
ENDCHAR
STARTCHAR uni091C093C094D0930
ENCODING -1
SWIDTH 547 0
DWIDTH 7 0
BBX 7 8 0 0
BITMAP
AAA4
0010
2A90
0510
0510
0550
6990
4510
ENDCHAR
STARTCHAR uni0921093C094D0930
ENCODING -1
SWIDTH 475 0
DWIDTH 6 0
BBX 6 9 0 -1
BITMAP
AA90
1A40
2000
2000
1A40
1080
2080
1F40
5540
ENDCHAR
STARTCHAR uni0922093C094D0930
ENCODING -1
SWIDTH 485 0
DWIDTH 6 0
BBX 6 9 0 -1
BITMAP
AAA0
0080
1A40
2280
5150
1050
2A80
4A00
1480
ENDCHAR
STARTCHAR uni0928093C094D0930
ENCODING -1
SWIDTH 473 0
DWIDTH 6 0
BBX 6 9 0 -1
BITMAP
AA90
0080
2A80
5180
4280
0880
1480
1040
0400
ENDCHAR
STARTCHAR uni092B093C094D0930
ENCODING -1
SWIDTH 741 0
DWIDTH 9 0
BBX 9 9 0 -1
BITMAP
AAAA80
20A900
208200
208100
1A8200
058900
148000
104000
040000
ENDCHAR
STARTCHAR uni092F093C094D0930
ENCODING -1
SWIDTH 564 0
DWIDTH 7 0
BBX 7 9 0 -1
BITMAP
AAA4
0420
2820
5020
2020
1AA0
0220
0810
0100
ENDCHAR
STARTCHAR uni0915094D0930094D
ENCODING -1
SWIDTH 518 0
DWIDTH 6 0
BBX 8 8 0 0
BITMAP
AAA9
18A9
5081
5080
5080
1A80
0880
1440
ENDCHAR
STARTCHAR uni0916094D0930094D
ENCODING -1
SWIDTH 469 0
DWIDTH 6 0
BBX 7 8 0 0
BITMAP
AAA4
0850
0880
6440
2084
1468
0820
0480
ENDCHAR
STARTCHAR uni0917094D0930094D
ENCODING -1
SWIDTH 264 0
DWIDTH 3 0
BBX 5 8 0 0
BITMAP
A800
1400
1400
2000
5140
0500
0800
1000
ENDCHAR
STARTCHAR uni0918094D0930094D
ENCODING -1
SWIDTH 319 0
DWIDTH 4 0
BBX 5 9 0 -1
BITMAP
BA80
1000
2000
2800
2000
2000
1A80
0600
0400
ENDCHAR
STARTCHAR uni091A094D0930094D
ENCODING -1
SWIDTH 331 0
DWIDTH 4 0
BBX 6 9 0 -1
BITMAP
AA40
0000
6900
2000
2000
2010
0A80
0600
0400
ENDCHAR
STARTCHAR uni091C094D0930094D
ENCODING -1
SWIDTH 312 0
DWIDTH 4 0
BBX 5 9 0 -1
BITMAP
AA80
0000
2A80
0500
0500
0500
6880
0200
0400
ENDCHAR
STARTCHAR uni091D094D0930094D
ENCODING -1
SWIDTH 441 0
DWIDTH 5 0
BBX 7 8 0 0
BITMAP
AAA4
2A00
2000
1AA8
0088
5084
6A50
5050
ENDCHAR
STARTCHAR uni091E094D0930094D
ENCODING -1
SWIDTH 374 0
DWIDTH 4 0
BBX 6 8 0 0
BITMAP
AA90
2800
0100
02A0
0120
6850
0180
0100
ENDCHAR
STARTCHAR uni091F094D0930094D
ENCODING -1
SWIDTH 485 0
DWIDTH 6 0
BBX 6 11 0 -3
BITMAP
AAA0
0080
1A40
1000
5000
1050
2A80
0A00
1480
0200
0140
ENDCHAR
STARTCHAR uni0920094D0930094D
ENCODING -1
SWIDTH 512 0
DWIDTH 6 0
BBX 6 11 0 -3
BITMAP
AAA0
0080
1A80
1050
5050
1050
2A80
0A00
1080
0200
0140
ENDCHAR
STARTCHAR uni0921094D0930094D
ENCODING -1
SWIDTH 475 0
DWIDTH 6 0
BBX 6 11 0 -3
BITMAP
AA90
1A40
2000
2000
1A40
0080
2080
1E40
1640
1040
0200
ENDCHAR
STARTCHAR uni0922094D0930094D
ENCODING -1
SWIDTH 485 0
DWIDTH 6 0
BBX 6 11 0 -3
BITMAP
AAA0
0080
1A40
2280
5150
1050
2A80
0A40
1480
0200
0140
ENDCHAR
STARTCHAR uni0923094D0930094D
ENCODING -1
SWIDTH 457 0
DWIDTH 5 0
BBX 7 8 0 0
BITMAP
AA90
2040
2040
2144
1A14
0020
0080
0100
ENDCHAR
STARTCHAR uni0924094D0930094D
ENCODING -1
SWIDTH 268 0
DWIDTH 3 0
BBX 5 8 0 0
BITMAP
AA80
0000
1A00
5040
1040
0200
1800
1000
ENDCHAR
STARTCHAR uni0925094D0930094D
ENCODING -1
SWIDTH 358 0
DWIDTH 4 0
BBX 6 9 0 -1
BITMAP
2A00
2200
0200
6900
5000
2010
1A80
0200
0400
ENDCHAR
STARTCHAR uni0926094D0930094D
ENCODING -1
SWIDTH 489 0
DWIDTH 6 0
BBX 6 10 0 -2
BITMAP
AAA0
1A80
2000
5000
5040
2080
1A80
0540
0140
0080
ENDCHAR
STARTCHAR uni0927094D0930094D
ENCODING -1
SWIDTH 322 0
DWIDTH 4 0
BBX 5 9 0 -1
BITMAP
B480
1000
2000
2800
2000
2000
1A80
0200
0400
ENDCHAR
STARTCHAR uni0928094D0930094D
ENCODING -1
SWIDTH 247 0
DWIDTH 3 0
BBX 5 8 0 0
BITMAP
AA40
0000
2A40
5040
4200
0800
1400
1000
ENDCHAR
STARTCHAR uni092A094D0930094D
ENCODING -1
SWIDTH 270 0
DWIDTH 3 0
BBX 5 8 0 0
BITMAP
AA00
2000
2000
2040
1A40
0500
1800
1000
ENDCHAR
STARTCHAR uni092B094D0930094D
ENCODING -1
SWIDTH 523 0
DWIDTH 6 0
BBX 8 8 0 0
BITMAP
AAA9
10A9
1081
1080
1A80
0880
1480
1040
ENDCHAR
STARTCHAR uni092C094D0930094D
ENCODING -1
SWIDTH 267 0
DWIDTH 3 0
BBX 5 9 0 -1
BITMAP
AA40
0000
1800
6400
5500
5180
1A00
0900
1000
ENDCHAR
STARTCHAR uni092D094D0930094D
ENCODING -1
SWIDTH 257 0
DWIDTH 3 0
BBX 5 8 0 0
BITMAP
9240
2000
2000
2A40
2140
0500
1800
1000
ENDCHAR
STARTCHAR uni092E094D0930094D
ENCODING -1
SWIDTH 261 0
DWIDTH 3 0
BBX 5 8 0 0
BITMAP
AA40
2000
2000
2A40
2140
0500
1800
1000
ENDCHAR
STARTCHAR uni092F094D0930094D
ENCODING -1
SWIDTH 323 0
DWIDTH 4 0
BBX 6 9 0 -1
BITMAP
AA40
0400
0400
2400
5000
2010
1A80
0600
0400
ENDCHAR
STARTCHAR uni0935094D0930094D
ENCODING -1
SWIDTH 255 0
DWIDTH 3 0
BBX 4 9 0 -1
BITMAP
A9
00
18
50
50
50
1A
08
10
ENDCHAR
STARTCHAR uni0938094D0930094D
ENCODING -1
SWIDTH 347 0
DWIDTH 4 0
BBX 6 8 0 0
BITMAP
AA80
0800
0800
6A90
5080
2140
0900
0400
ENDCHAR
STARTCHAR uni0915093C094D0930094D
ENCODING -1
SWIDTH 518 0
DWIDTH 6 0
BBX 8 9 0 -1
BITMAP
AAA9
18A9
5081
5080
5080
1A80
0980
1440
0400
ENDCHAR
STARTCHAR uni0916093C094D0930094D
ENCODING -1
SWIDTH 466 0
DWIDTH 6 0
BBX 7 9 0 -1
BITMAP
AAA4
0850
0880
6440
2084
1468
0820
0480
0010
ENDCHAR
STARTCHAR uni0917093C094D0930094D
ENCODING -1
SWIDTH 264 0
DWIDTH 3 0
BBX 5 9 0 -1
BITMAP
A800
1400
1400
2000
5140
0500
0800
1000
0400
ENDCHAR
STARTCHAR uni091C093C094D0930094D
ENCODING -1
SWIDTH 320 0
DWIDTH 4 0
BBX 5 9 0 -1
BITMAP
AA80
0000
2A80
0500
0500
0540
6980
0600
4000
ENDCHAR
STARTCHAR uni0928093C094D0930094D
ENCODING -1
SWIDTH 247 0
DWIDTH 3 0
BBX 5 9 0 -1
BITMAP
AA40
0000
2A40
5040
4200
0800
1400
1000
0400
ENDCHAR
STARTCHAR uni092B093C094D0930094D
ENCODING -1
SWIDTH 523 0
DWIDTH 6 0
BBX 8 9 0 -1
BITMAP
AAA9
10A9
1081
1080
1A80
0880
1480
1040
0400
ENDCHAR
STARTCHAR uni092F093C094D0930094D
ENCODING -1
SWIDTH 323 0
DWIDTH 4 0
BBX 5 9 0 -1
BITMAP
AA40
0400
0400
2400
5000
2000
1A40
0500
0100
ENDCHAR
STARTCHAR uni0915094D0915
ENCODING -1
SWIDTH 1255 0
DWIDTH 15 0
BBX 15 8 0 0
BITMAP
AAAAAAA8
18A99990
10820814
50820814
50820814
10820814
1981A890
00400400
ENDCHAR
STARTCHAR uni0915094D0916
ENCODING -1
SWIDTH 1256 0
DWIDTH 15 0
BBX 15 8 0 0
BITMAP
AAAAAAA8
18A82260
10822520
50829420
50814520
108082A0
19805020
00401010
ENDCHAR
STARTCHAR uni0915094D091A
ENCODING -1
SWIDTH 1086 0
DWIDTH 13 0
BBX 13 8 0 0
BITMAP
AAAAAA80
18A40200
1086A200
50814200
50814200
1080AA00
19800200
00400100
ENDCHAR
STARTCHAR uni0915094D091C
ENCODING -1
SWIDTH 1071 0
DWIDTH 13 0
BBX 13 8 0 0
BITMAP
AAAAAA80
18800200
10A5AA00
50802200
50802200
10802200
19868200
00400100
ENDCHAR
STARTCHAR uni0915094D091F
ENCODING -1
SWIDTH 984 0
DWIDTH 12 0
BBX 12 8 0 0
BITMAP
AAAAA9
18A908
1083A4
508100
508500
108105
0582A8
004000
ENDCHAR
STARTCHAR uni0915094D0923
ENCODING -1
SWIDTH 1183 0
DWIDTH 14 0
BBX 15 8 0 0
BITMAP
AAAAAAA4
18AA0440
10820440
50820440
5081A040
10800040
19800040
00400040
ENDCHAR
STARTCHAR uni0915094D0924
ENCODING -1
SWIDTH 761 0
DWIDTH 9 0
BBX 9 8 0 0
BITMAP
AAAA80
004000
2AAA00
205140
204140
204140
094A00
004000
ENDCHAR
STARTCHAR uni0915094D0925
ENCODING -1
SWIDTH 1118 0
DWIDTH 13 0
BBX 14 8 0 0
BITMAP
AAA5A190
18811540
10AAA140
50820140
50820140
1081AA40
19800140
00400000
ENDCHAR
STARTCHAR uni0915094D0926
ENCODING -1
SWIDTH 1009 0
DWIDTH 12 0
BBX 12 8 0 0
BITMAP
AAAAAA
18A9A8
108200
508200
508204
108205
1981A9
004000
ENDCHAR
STARTCHAR uni0915094D092A
ENCODING -1
SWIDTH 1007 0
DWIDTH 12 0
BBX 12 8 0 0
BITMAP
AAAAAA
18AA08
108208
508208
5081A8
108008
198008
004004
ENDCHAR
STARTCHAR uni0915094D092B
ENCODING -1
SWIDTH 1242 0
DWIDTH 15 0
BBX 15 8 0 0
BITMAP
AAAAAAA8
18AA0A90
10820820
50820810
5081A810
10800820
19800890
00400400
ENDCHAR
STARTCHAR uni0915094D092E
ENCODING -1
SWIDTH 994 0
DWIDTH 12 0
BBX 12 8 0 0
BITMAP
AAAAAA
18AA08
108208
5082A8
508208
108108
198008
004004
ENDCHAR
STARTCHAR uni0915094D092F
ENCODING -1
SWIDTH 1076 0
DWIDTH 13 0
BBX 13 8 0 0
BITMAP
AAAAAA80
18805200
10AA8200
50820200
50820200
1081AA00
19800200
00400100
ENDCHAR
STARTCHAR uni0915094D0932
ENCODING -1
SWIDTH 1178 0
DWIDTH 14 0
BBX 14 8 0 0
BITMAP
AAAAAAA0
18A90080
10839680
50821480
50811480
10810080
05829080
00400040
ENDCHAR
STARTCHAR uni0915094D0935
ENCODING -1
SWIDTH 1013 0
DWIDTH 12 0
BBX 12 8 0 0
BITMAP
AAAAAA
18A998
108208
508208
508208
108208
1981A8
004004
ENDCHAR
STARTCHAR uni0915094D0936
ENCODING -1
SWIDTH 1194 0
DWIDTH 14 0
BBX 15 8 0 0
BITMAP
AAA4A864
18A90850
10820850
5082A450
50814050
10808050
19802050
00401040
ENDCHAR
STARTCHAR uni0915094D0938
ENCODING -1
SWIDTH 1143 0
DWIDTH 14 0
BBX 14 8 0 0
BITMAP
AAAAAA90
18A82080
10822080
5082AA80
50814080
10808080
19805080
00401040
ENDCHAR
STARTCHAR uni0916094D0916
ENCODING -1
SWIDTH 1223 0
DWIDTH 15 0
BBX 15 8 0 0
BITMAP
AAAAAAA4
08505620
08805820
64468820
20860820
14654660
08008020
04001010
ENDCHAR
STARTCHAR uni0916094D0924
ENCODING -1
SWIDTH 984 0
DWIDTH 12 0
BBX 12 8 0 0
BITMAP
AAAAA9
085008
0882A8
644508
208508
146908
080608
040144
ENDCHAR
STARTCHAR uni0916094D092E
ENCODING -1
SWIDTH 965 0
DWIDTH 12 0
BBX 12 8 0 0
BITMAP
AAAAA9
085504
088504
6446A4
208504
146404
080004
040004
ENDCHAR
STARTCHAR uni0916094D092F
ENCODING -1
SWIDTH 1047 0
DWIDTH 13 0
BBX 13 8 0 0
BITMAP
AAAAAA40
08508100
08864100
64450100
20850500
1466A900
08000100
04000100
ENDCHAR
STARTCHAR uni0916094D0935
ENCODING -1
SWIDTH 975 0
DWIDTH 12 0
BBX 12 8 0 0
BITMAP
AAAAA9
085288
088508
654508
208508
146508
080198
040004
ENDCHAR
STARTCHAR uni0916094D0936
ENCODING -1
SWIDTH 1123 0
DWIDTH 13 0
BBX 14 8 0 0
BITMAP
AAA2A190
08511140
08802140
644A9140
20890140
14660140
08018140
04004040
ENDCHAR
STARTCHAR uni0917094D0917
ENCODING -1
SWIDTH 744 0
DWIDTH 9 0
BBX 9 8 0 0
BITMAP
AAAA80
145200
145200
208200
514200
000200
000200
000100
ENDCHAR
STARTCHAR uni0917094D0918
ENCODING -1
SWIDTH 823 0
DWIDTH 10 0
BBX 10 8 0 0
BITMAP
AAAAA0
148080
14A480
208080
508080
008080
006A80
000040
ENDCHAR
STARTCHAR uni0917094D091C
ENCODING -1
SWIDTH 801 0
DWIDTH 10 0
BBX 10 8 0 0
BITMAP
AAAA90
140080
14AA80
201480
501480
001480
01A080
000040
ENDCHAR
STARTCHAR uni0917094D0923
ENCODING -1
SWIDTH 945 0
DWIDTH 11 0
BBX 12 7 0 1
BITMAP
AAAAA9
148214
148214
208214
506814
000014
000014
ENDCHAR
STARTCHAR uni0917094D0926
ENCODING -1
SWIDTH 748 0
DWIDTH 9 0
BBX 9 8 0 0
BITMAP
AAAA80
146A00
148000
108000
508100
008200
006A00
000100
ENDCHAR
STARTCHAR uni0917094D0927
ENCODING -1
SWIDTH 823 0
DWIDTH 10 0
BBX 10 8 0 0
BITMAP
AAA2A0
148080
14A480
208080
508080
008080
006A80
000040
ENDCHAR
STARTCHAR uni0917094D092C
ENCODING -1
SWIDTH 755 0
DWIDTH 9 0
BBX 9 8 0 0
BITMAP
AAAA80
146600
149200
209200
508A00
008300
006A00
000100
ENDCHAR
STARTCHAR uni0917094D092D
ENCODING -1
SWIDTH 755 0
DWIDTH 9 0
BBX 9 8 0 0
BITMAP
AA4680
148200
148200
20AA00
508200
004200
000200
000100
ENDCHAR
STARTCHAR uni0917094D092E
ENCODING -1
SWIDTH 754 0
DWIDTH 9 0
BBX 9 8 0 0
BITMAP
AAAA80
148200
148200
20AA00
508200
004200
000200
000100
ENDCHAR
STARTCHAR uni0917094D092F
ENCODING -1
SWIDTH 828 0
DWIDTH 10 0
BBX 10 8 0 0
BITMAP
AAAAA0
141480
14A080
208080
508080
006A80
000080
000040
ENDCHAR
STARTCHAR uni0917094D0932
ENCODING -1
SWIDTH 924 0
DWIDTH 11 0
BBX 11 8 0 0
BITMAP
AAAAA8
140020
1465A0
204520
514520
004020
00A020
000010
ENDCHAR
STARTCHAR uni0917094D0935
ENCODING -1
SWIDTH 747 0
DWIDTH 9 0
BBX 9 8 0 0
BITMAP
AAAA80
146600
148200
208200
508200
008200
006A00
000100
ENDCHAR
STARTCHAR uni0917094D0938
ENCODING -1
SWIDTH 839 0
DWIDTH 10 0
BBX 10 8 0 0
BITMAP
AAAAA0
142080
142080
21AA80
508080
005080
002080
001040
ENDCHAR
STARTCHAR uni0918094D092E
ENCODING -1
SWIDTH 818 0
DWIDTH 10 0
BBX 10 8 0 0
BITMAP
AAAAA0
201080
281080
102A80
101080
205080
1A8080
000040
ENDCHAR
STARTCHAR uni0918094D092F
ENCODING -1
SWIDTH 867 0
DWIDTH 10 0
BBX 11 7 0 1
BITMAP
AAAAA4
200850
286450
208050
105050
207A90
1A4050
ENDCHAR
STARTCHAR uni091A094D091A
ENCODING -1
SWIDTH 868 0
DWIDTH 10 0
BBX 11 7 0 1
BITMAP
AAAAA4
000050
696950
202050
202050
1A9A90
000050
ENDCHAR
STARTCHAR uni091A094D091B
ENCODING -1
SWIDTH 922 0
DWIDTH 11 0
BBX 11 7 0 1
BITMAP
AAAAA8
002020
6920A0
202810
202014
1AA010
001AA0
ENDCHAR
STARTCHAR uni091A094D092E
ENCODING -1
SWIDTH 830 0
DWIDTH 10 0
BBX 10 8 0 0
BITMAP
AAAAA0
002080
6A2080
202A80
202080
1A8080
000080
000040
ENDCHAR
STARTCHAR uni091A094D092F
ENCODING -1
SWIDTH 904 0
DWIDTH 11 0
BBX 11 8 0 0
BITMAP
AAAAA8
000520
692820
201020
202020
1A9AA0
000020
000010
ENDCHAR
STARTCHAR uni091B094D092F
ENCODING -1
SWIDTH 1068 0
DWIDTH 13 0
BBX 13 8 0 0
BITMAP
AAAAAA80
20AA8200
20202200
28102200
20128200
20220200
2A90A600
00000100
ENDCHAR
STARTCHAR uni091B094D0935
ENCODING -1
SWIDTH 581 0
DWIDTH 7 0
BBX 7 9 0 -1
BITMAP
BAA8
2020
20A0
2820
2010
2020
2AA0
2020
1A90
ENDCHAR
STARTCHAR uni091C094D0915
ENCODING -1
SWIDTH 1054 0
DWIDTH 13 0
BBX 13 8 0 0
BITMAP
AAAAAA40
0018A900
2A908200
05508200
05508200
05508200
68199900
00004000
ENDCHAR
STARTCHAR uni091C094D091C
ENCODING -1
SWIDTH 903 0
DWIDTH 11 0
BBX 11 8 0 0
BITMAP
AAAAA8
000020
2A5AA0
050220
050220
050220
686820
000010
ENDCHAR
STARTCHAR uni091C094D091D
ENCODING -1
SWIDTH 990 0
DWIDTH 12 0
BBX 12 8 0 0
BITMAP
AAAAAA
001A08
2A9008
052AA8
050048
055048
686A08
005004
ENDCHAR
STARTCHAR uni091C094D091F
ENCODING -1
SWIDTH 815 0
DWIDTH 10 0
BBX 10 7 0 1
BITMAP
AAAA90
000080
2A9A40
055000
055000
055040
682A80
ENDCHAR
STARTCHAR uni091C094D0921
ENCODING -1
SWIDTH 797 0
DWIDTH 10 0
BBX 10 8 0 0
BITMAP
AAAA90
001A40
2A9000
055000
052A40
050080
685080
001500
ENDCHAR
STARTCHAR uni091C094D0924
ENCODING -1
SWIDTH 830 0
DWIDTH 10 0
BBX 10 8 0 0
BITMAP
AAAAA0
000080
2AAA80
041080
055080
055080
682080
001440
ENDCHAR
STARTCHAR uni091C094D0926
ENCODING -1
SWIDTH 817 0
DWIDTH 10 0
BBX 10 8 0 0
BITMAP
AAAA90
001A80
2A9000
055000
055040
052080
681A80
000040
ENDCHAR
STARTCHAR uni091C094D092C
ENCODING -1
SWIDTH 820 0
DWIDTH 10 0
BBX 10 8 0 0
BITMAP
AAAAA0
001880
2AA080
055880
055180
055180
681A80
000040
ENDCHAR
STARTCHAR uni091C094D092E
ENCODING -1
SWIDTH 813 0
DWIDTH 10 0
BBX 10 8 0 0
BITMAP
AAAA90
005080
2A9080
056A80
055080
050080
680080
000040
ENDCHAR
STARTCHAR uni091C094D092F
ENCODING -1
SWIDTH 893 0
DWIDTH 11 0
BBX 11 8 0 0
BITMAP
AAAAA4
000820
2AA820
055020
052020
051A60
680020
000010
ENDCHAR
STARTCHAR uni091C094D0935
ENCODING -1
SWIDTH 813 0
DWIDTH 10 0
BBX 10 8 0 0
BITMAP
AAAA90
001880
2A9080
055080
055080
055080
681980
000040
ENDCHAR
STARTCHAR uni091D094D092E
ENCODING -1
SWIDTH 936 0
DWIDTH 11 0
BBX 12 8 0 0
BITMAP
AAAAA9
2A0810
200810
1AAAA0
008810
508010
6A4010
500010
ENDCHAR
STARTCHAR uni091D094D092F
ENCODING -1
SWIDTH 1000 0
DWIDTH 12 0
BBX 12 8 0 0
BITMAP
AAAAAA
2A0148
200A08
1AA808
008808
5086A8
6A4008
500004
ENDCHAR
STARTCHAR uni091E094D091B
ENCODING -1
SWIDTH 913 0
DWIDTH 11 0
BBX 11 7 0 1
BITMAP
AABAA8
682020
0520A0
02B820
052010
682020
002A90
ENDCHAR
STARTCHAR uni091E094D091C
ENCODING -1
SWIDTH 932 0
DWIDTH 11 0
BBX 11 8 0 0
BITMAP
AAAAA8
000020
281AA0
050220
028220
050220
682920
000010
ENDCHAR
STARTCHAR uni091E094D0936
ENCODING -1
SWIDTH 975 0
DWIDTH 12 0
BBX 12 8 0 0
BITMAP
AA1A09
281148
010148
02AA08
012008
680808
000508
000104
ENDCHAR
STARTCHAR uni091F094D091F
ENCODING -1
SWIDTH 494 0
DWIDTH 6 0
BBX 6 11 0 -3
BITMAP
AAA0
1A40
1000
5000
1040
1A80
0080
2A40
5000
5040
1A40
ENDCHAR
STARTCHAR uni091F094D0920
ENCODING -1
SWIDTH 495 0
DWIDTH 6 0
BBX 6 11 0 -3
BITMAP
AAA0
1A40
1000
5000
1040
1A80
0180
2A80
5050
1050
1A40
ENDCHAR
STARTCHAR uni091F094D092F
ENCODING -1
SWIDTH 990 0
DWIDTH 12 0
BBX 12 8 0 0
BITMAP
AAAAAA
008008
1AAA48
100088
500648
105808
2A82A8
000004
ENDCHAR
STARTCHAR uni091F094D0935
ENCODING -1
SWIDTH 501 0
DWIDTH 6 0
BBX 6 9 0 -1
BITMAP
AAA0
0080
1A40
2000
5050
2050
2A80
2080
1A40
ENDCHAR
STARTCHAR uni0920094D092F
ENCODING -1
SWIDTH 998 0
DWIDTH 12 0
BBX 12 8 0 0
BITMAP
AAAAAA
008008
1A9A48
105088
505648
105808
2A82A8
000004
ENDCHAR
STARTCHAR uni0921094D0921
ENCODING -1
SWIDTH 493 0
DWIDTH 6 0
BBX 6 12 0 -4
BITMAP
AAA0
0080
1A40
2000
1A40
1080
2A40
2000
2A40
0080
1080
1A40
ENDCHAR
STARTCHAR uni0921094D0922
ENCODING -1
SWIDTH 493 0
DWIDTH 6 0
BBX 6 11 0 -3
BITMAP
AAA0
0080
1A40
2000
1A40
1080
2A40
2280
1150
1050
2A80
ENDCHAR
STARTCHAR uni0921094D092F
ENCODING -1
SWIDTH 973 0
DWIDTH 12 0
BBX 12 8 0 0
BITMAP
AAAAA9
1AAA08
200148
200148
1A4A08
008818
208698
154004
ENDCHAR
STARTCHAR uni0921094D0935
ENCODING -1
SWIDTH 493 0
DWIDTH 6 0
BBX 6 10 0 -2
BITMAP
AAA0
0080
1A40
2000
1A40
1080
2A80
2080
2080
1A40
ENDCHAR
STARTCHAR uni0922094D092F
ENCODING -1
SWIDTH 981 0
DWIDTH 12 0
BBX 12 8 0 0
BITMAP
AAAAA9
008008
1AAA08
218088
515A08
115808
2A86A8
000004
ENDCHAR
STARTCHAR uni0923094D091F
ENCODING -1
SWIDTH 908 0
DWIDTH 11 0
BBX 11 7 0 1
BITMAP
AAAAA8
204020
204690
214800
1A0414
000814
000AA0
ENDCHAR
STARTCHAR uni0923094D0920
ENCODING -1
SWIDTH 936 0
DWIDTH 11 0
BBX 12 7 0 1
BITMAP
AAAAA9
204020
2046A0
214814
1A0414
000814
000AA0
ENDCHAR
STARTCHAR uni0923094D0921
ENCODING -1
SWIDTH 892 0
DWIDTH 11 0
BBX 11 8 0 0
BITMAP
AAAAA4
204A90
204800
214400
1A0010
000420
000820
000550
ENDCHAR
STARTCHAR uni0923094D0922
ENCODING -1
SWIDTH 908 0
DWIDTH 11 0
BBX 11 7 0 1
BITMAP
AAAAA8
204020
2046A0
214860
1A0454
000814
000AA0
ENDCHAR
STARTCHAR uni0923094D0923
ENCODING -1
SWIDTH 1127 0
DWIDTH 14 0
BBX 14 8 0 0
BITMAP
AAAAAA90
20482040
20482040
21482040
1A069040
00000040
00000040
00000040
ENDCHAR
STARTCHAR uni0923094D092E
ENCODING -1
SWIDTH 932 0
DWIDTH 11 0
BBX 11 8 0 0
BITMAP
AAAAA8
204820
204820
214AA0
1A0420
000020
000020
000010
ENDCHAR
STARTCHAR uni0923094D092F
ENCODING -1
SWIDTH 998 0
DWIDTH 12 0
BBX 12 8 0 0
BITMAP
AAAAAA
204148
204A08
214808
1A0808
0006A8
000008
000004
ENDCHAR
STARTCHAR uni0923094D0935
ENCODING -1
SWIDTH 923 0
DWIDTH 11 0
BBX 11 8 0 0
BITMAP
AAAAA8
204660
204820
214820
1A0820
000820
0006A0
000010
ENDCHAR
STARTCHAR uni0924094D0915
ENCODING -1
SWIDTH 992 0
DWIDTH 12 0
BBX 12 8 0 0
BITMAP
AAAAAA
0066A4
1A8208
108204
508204
508208
206A24
140100
ENDCHAR
STARTCHAR uni0924094D0916
ENCODING -1
SWIDTH 1014 0
DWIDTH 12 0
BBX 12 8 0 0
BITMAP
AAAAAA
000858
1A4948
10A548
505148
502068
200808
140404
ENDCHAR
STARTCHAR uni0924094D0924
ENCODING -1
SWIDTH 542 0
DWIDTH 7 0
BBX 7 8 0 0
BITMAP
AAA4
0050
6A90
2050
2050
2050
1450
0510
ENDCHAR
STARTCHAR uni0924094D0925
ENCODING -1
SWIDTH 869 0
DWIDTH 10 0
BBX 11 8 0 0
BITMAP
A96864
004550
1AA850
108050
508050
506A90
200050
140000
ENDCHAR
STARTCHAR uni0924094D092A
ENCODING -1
SWIDTH 757 0
DWIDTH 9 0
BBX 9 8 0 0
BITMAP
AAAA80
008200
2A8200
508200
506A00
500200
200200
140100
ENDCHAR
STARTCHAR uni0924094D092B
ENCODING -1
SWIDTH 992 0
DWIDTH 12 0
BBX 12 8 0 0
BITMAP
AAAAAA
0082A4
2A8208
508204
506A04
500208
200224
140100
ENDCHAR
STARTCHAR uni0924094D092E
ENCODING -1
SWIDTH 764 0
DWIDTH 9 0
BBX 9 8 0 0
BITMAP
AAAA80
008200
1A8200
10AA00
508200
500200
200200
140100
ENDCHAR
STARTCHAR uni0924094D092F
ENCODING -1
SWIDTH 830 0
DWIDTH 10 0
BBX 10 8 0 0
BITMAP
AAAAA0
001480
1AA080
108080
508080
506A80
200080
140040
ENDCHAR
STARTCHAR uni0924094D0932
ENCODING -1
SWIDTH 957 0
DWIDTH 11 0
BBX 12 8 0 0
BITMAP
AAAAA9
000014
155564
108214
508214
508014
206414
140004
ENDCHAR
STARTCHAR uni0924094D0935
ENCODING -1
SWIDTH 751 0
DWIDTH 9 0
BBX 9 8 0 0
BITMAP
AAAA80
006600
1A8200
108200
508200
508200
206A00
140100
ENDCHAR
STARTCHAR uni0924094D0938
ENCODING -1
SWIDTH 876 0
DWIDTH 11 0
BBX 11 8 0 0
BITMAP
AAAAA4
000450
1A5450
10AA90
508050
502050
201450
140410
ENDCHAR
STARTCHAR uni0925094D092F
ENCODING -1
SWIDTH 931 0
DWIDTH 11 0
BBX 11 8 0 0
BITMAP
2A2AA8
120220
022920
692020
502020
1A9AA0
000020
000010
ENDCHAR
STARTCHAR uni0925094D0935
ENCODING -1
SWIDTH 862 0
DWIDTH 10 0
BBX 11 7 0 1
BITMAP
2A2AA4
120950
022050
692050
502050
1A9050
000A90
ENDCHAR
STARTCHAR uni0926094D0917
ENCODING -1
SWIDTH 489 0
DWIDTH 6 0
BBX 6 9 0 -1
BITMAP
AAA0
1A80
2000
5000
2080
1A80
0880
0840
2000
ENDCHAR
STARTCHAR uni0926094D0918
ENCODING -1
SWIDTH 686 0
DWIDTH 8 0
BBX 9 8 0 0
BITMAP
AAAA40
01A800
2A0000
520000
520100
260500
50A900
2A4000
ENDCHAR
STARTCHAR uni0926094D0926
ENCODING -1
SWIDTH 506 0
DWIDTH 6 0
BBX 6 8 0 0
BITMAP
AAA0
1A80
2000
2000
2900
2050
2A90
0050
ENDCHAR
STARTCHAR uni0926094D0927
ENCODING -1
SWIDTH 686 0
DWIDTH 8 0
BBX 9 8 0 0
BITMAP
AAAA40
00A800
260000
520000
520500
260500
50A900
2A4000
ENDCHAR
STARTCHAR uni0926094D092C
ENCODING -1
SWIDTH 481 0
DWIDTH 6 0
BBX 6 10 0 -2
BITMAP
AA90
0080
1A80
2000
5000
2080
2A80
2880
2280
1A40
ENDCHAR
STARTCHAR uni0926094D092D
ENCODING -1
SWIDTH 499 0
DWIDTH 6 0
BBX 6 10 0 -2
BITMAP
AAA0
0080
1A80
2000
2080
1A80
5080
1080
1A80
1080
ENDCHAR
STARTCHAR uni0926094D092E
ENCODING -1
SWIDTH 706 0
DWIDTH 8 0
BBX 9 7 0 1
BITMAP
AAAA40
2A4500
500500
504500
2A8500
00A900
008500
ENDCHAR
STARTCHAR uni0926094D092F
ENCODING -1
SWIDTH 583 0
DWIDTH 7 0
BBX 7 8 0 0
BITMAP
AAA8
1920
2020
2820
2020
2020
2AA0
0010
ENDCHAR
STARTCHAR uni0926094D0935
ENCODING -1
SWIDTH 483 0
DWIDTH 6 0
BBX 6 10 0 -2
BITMAP
AA90
0080
1A80
2000
5000
2080
2A80
2080
2080
1A40
ENDCHAR
STARTCHAR uni0927094D092E
ENCODING -1
SWIDTH 817 0
DWIDTH 10 0
BBX 10 8 0 0
BITMAP
B46AA0
201080
281080
202A80
101080
205080
1A8080
000040
ENDCHAR
STARTCHAR uni0927094D092F
ENCODING -1
SWIDTH 886 0
DWIDTH 11 0
BBX 11 8 0 0
BITMAP
A46AA4
200820
286420
205020
101060
206A60
1A4020
000010
ENDCHAR
STARTCHAR uni0927094D0935
ENCODING -1
SWIDTH 810 0
DWIDTH 10 0
BBX 10 8 0 0
BITMAP
B46A90
201880
285080
205080
105080
205080
1A9980
000040
ENDCHAR
STARTCHAR uni0928094D0915
ENCODING -1
SWIDTH 973 0
DWIDTH 12 0
BBX 12 8 0 0
BITMAP
AAAAA9
00A2A4
2A4208
814208
414208
004208
006664
000100
ENDCHAR
STARTCHAR uni0928094D091A
ENCODING -1
SWIDTH 820 0
DWIDTH 10 0
BBX 10 8 0 0
BITMAP
AAAAA0
000080
01A880
698080
408080
002A80
000080
000040
ENDCHAR
STARTCHAR uni0928094D091B
ENCODING -1
SWIDTH 781 0
DWIDTH 9 0
BBX 10 7 0 1
BITMAP
AAAA90
020140
020600
2A9040
520080
020040
01AA00
ENDCHAR
STARTCHAR uni0928094D091F
ENCODING -1
SWIDTH 715 0
DWIDTH 9 0
BBX 9 7 0 1
BITMAP
AAAA40
000500
6A4000
810000
410100
014200
00A900
ENDCHAR
STARTCHAR uni0928094D0921
ENCODING -1
SWIDTH 705 0
DWIDTH 8 0
BBX 9 8 0 0
BITMAP
AAAA40
00A900
2A4000
814000
406900
000200
014200
005400
ENDCHAR
STARTCHAR uni0928094D0924
ENCODING -1
SWIDTH 717 0
DWIDTH 9 0
BBX 9 8 0 0
BITMAP
AAAA40
000200
6AAA00
820200
420200
020200
014200
005100
ENDCHAR
STARTCHAR uni0928094D0925
ENCODING -1
SWIDTH 804 0
DWIDTH 10 0
BBX 10 8 0 0
BITMAP
A4A490
014480
001480
6AA080
420180
01A980
000080
000040
ENDCHAR
STARTCHAR uni0928094D0926
ENCODING -1
SWIDTH 724 0
DWIDTH 9 0
BBX 9 8 0 0
BITMAP
AAAA40
00A900
2A4000
814000
414100
014200
006A00
000100
ENDCHAR
STARTCHAR uni0928094D0927
ENCODING -1
SWIDTH 753 0
DWIDTH 9 0
BBX 9 8 0 0
BITMAP
AA8680
020200
2A9200
820200
420200
020200
01AA00
000100
ENDCHAR
STARTCHAR uni0928094D092A
ENCODING -1
SWIDTH 742 0
DWIDTH 9 0
BBX 9 8 0 0
BITMAP
AAAA80
004200
004200
6A8200
40AA00
000200
000200
000100
ENDCHAR
STARTCHAR uni0928094D092B
ENCODING -1
SWIDTH 970 0
DWIDTH 12 0
BBX 12 8 0 0
BITMAP
AAAAA9
0142A4
6A4208
804208
406608
000208
000264
000100
ENDCHAR
STARTCHAR uni0928094D092D
ENCODING -1
SWIDTH 739 0
DWIDTH 9 0
BBX 9 8 0 0
BITMAP
AA4A80
008200
008200
2AAA00
408200
000200
000200
000100
ENDCHAR
STARTCHAR uni0928094D092E
ENCODING -1
SWIDTH 735 0
DWIDTH 9 0
BBX 9 8 0 0
BITMAP
AAAA80
004200
004200
2AAA00
404200
000200
000200
000100
ENDCHAR
STARTCHAR uni0928094D092F
ENCODING -1
SWIDTH 801 0
DWIDTH 10 0
BBX 10 8 0 0
BITMAP
AAAA90
002080
6A9080
814080
014180
006980
000080
000040
ENDCHAR
STARTCHAR uni0928094D0935
ENCODING -1
SWIDTH 732 0
DWIDTH 9 0
BBX 9 8 0 0
BITMAP
AAAA40
00A200
2A4200
814200
414200
004200
006600
000100
ENDCHAR
STARTCHAR uni0928094D0938
ENCODING -1
SWIDTH 867 0
DWIDTH 10 0
BBX 11 8 0 0
BITMAP
AAAAA4
001450
6A1450
80AA90
408050
002050
002050
000400
ENDCHAR
STARTCHAR uni0928094D0939
ENCODING -1
SWIDTH 714 0
DWIDTH 9 0
BBX 9 9 0 -1
BITMAP
AAAA40
000200
00A900
2A4000
40A900
004200
014100
014000
006900
ENDCHAR
STARTCHAR uni092A094D091F
ENCODING -1
SWIDTH 489 0
DWIDTH 6 0
BBX 6 8 0 0
BITMAP
AAA0
2080
2080
2A80
1000
5050
2080
1540
ENDCHAR
STARTCHAR uni092A094D0920
ENCODING -1
SWIDTH 506 0
DWIDTH 6 0
BBX 6 8 0 0
BITMAP
AAA0
2040
2080
2A80
2040
1050
2080
1540
ENDCHAR
STARTCHAR uni092A094D0924
ENCODING -1
SWIDTH 495 0
DWIDTH 6 0
BBX 6 8 0 0
BITMAP
AAA0
1080
2080
2A80
1080
5080
2080
1440
ENDCHAR
STARTCHAR uni092A094D092A
ENCODING -1
SWIDTH 770 0
DWIDTH 9 0
BBX 10 8 0 0
BITMAP
AAAA90
208100
208100
208200
1A6A00
000100
000100
000100
ENDCHAR
STARTCHAR uni092A094D092B
ENCODING -1
SWIDTH 1003 0
DWIDTH 12 0
BBX 12 8 0 0
BITMAP
AAAAAA
208264
208204
208205
165605
000204
000224
000100
ENDCHAR
STARTCHAR uni092A094D092E
ENCODING -1
SWIDTH 774 0
DWIDTH 9 0
BBX 10 8 0 0
BITMAP
AAAA90
208140
208140
20AA40
1A8140
000140
000140
000100
ENDCHAR
STARTCHAR uni092A094D092F
ENCODING -1
SWIDTH 855 0
DWIDTH 10 0
BBX 11 8 0 0
BITMAP
AAAAA4
200840
20A440
208040
1A8080
002A80
000040
000040
ENDCHAR
STARTCHAR uni092A094D0932
ENCODING -1
SWIDTH 960 0
DWIDTH 12 0
BBX 12 8 0 0
BITMAP
AAAAA9
200004
2069A4
208214
1A8104
008004
006404
000004
ENDCHAR
STARTCHAR uni092A094D0935
ENCODING -1
SWIDTH 780 0
DWIDTH 9 0
BBX 10 7 0 1
BITMAP
AAAA90
202540
208140
208140
1A8140
004140
002A40
ENDCHAR
STARTCHAR uni092A094D0938
ENCODING -1
SWIDTH 880 0
DWIDTH 11 0
BBX 11 8 0 0
BITMAP
AAAAA4
200410
201410
20AA90
1A8010
002010
001410
000410
ENDCHAR
STARTCHAR uni092B094D091C
ENCODING -1
SWIDTH 1100 0
DWIDTH 13 0
BBX 14 8 0 0
BITMAP
AAAAAA90
20800100
20A8AA00
20802100
1A802100
00802100
00829100
00400100
ENDCHAR
STARTCHAR uni092B094D091F
ENCODING -1
SWIDTH 1006 0
DWIDTH 12 0
BBX 12 8 0 0
BITMAP
AAAAAA
20A908
2082A8
208200
1A8201
008205
0081A8
004000
ENDCHAR
STARTCHAR uni092B094D0924
ENCODING -1
SWIDTH 1034 0
DWIDTH 12 0
BBX 13 8 0 0
BITMAP
AAAAAA40
20990500
2082A900
20820500
1A820500
00820500
00824500
00404000
ENDCHAR
STARTCHAR uni092B094D092A
ENCODING -1
SWIDTH 1021 0
DWIDTH 12 0
BBX 13 8 0 0
BITMAP
AAAAAA40
20AA0400
20820400
20820800
1A81A800
00800400
00800400
00400400
ENDCHAR
STARTCHAR uni092B094D092B
ENCODING -1
SWIDTH 1256 0
DWIDTH 15 0
BBX 15 8 0 0
BITMAP
AAAAAAA8
20AA0990
20820814
20820814
1A81A814
00800814
00800890
00400400
ENDCHAR
STARTCHAR uni092B094D092F
ENCODING -1
SWIDTH 1120 0
DWIDTH 13 0
BBX 13 8 0 0
BITMAP
AAAAAA80
20801200
20AA8200
20820200
1A820200
0080AA00
00800200
00400100
ENDCHAR
STARTCHAR uni092B094D0932
ENCODING -1
SWIDTH 1202 0
DWIDTH 14 0
BBX 15 8 0 0
BITMAP
AAAAAAA4
20A90050
2082A690
20820850
1A820450
00820050
00819050
00400000
ENDCHAR
STARTCHAR uni092B094D0936
ENCODING -1
SWIDTH 1211 0
DWIDTH 15 0
BBX 15 8 0 0
BITMAP
AAA9A824
20A84510
20820410
2082A410
1A814010
00808010
00802010
00401010
ENDCHAR
STARTCHAR uni092C094D091C
ENCODING -1
SWIDTH 883 0
DWIDTH 11 0
BBX 11 8 0 0
BITMAP
AAAAA4
180010
302A90
540510
550510
114510
1AA810
000010
ENDCHAR
STARTCHAR uni092C094D091D
ENCODING -1
SWIDTH 962 0
DWIDTH 12 0
BBX 12 9 0 -1
BITMAP
AAAAA9
186A04
608004
548004
51AAA4
1A4104
005204
005504
004000
ENDCHAR
STARTCHAR uni092C094D0924
ENCODING -1
SWIDTH 786 0
DWIDTH 9 0
BBX 10 8 0 0
BITMAP
AAAA90
180140
202A40
588140
518140
118140
1A9140
001000
ENDCHAR
STARTCHAR uni092C094D0926
ENCODING -1
SWIDTH 775 0
DWIDTH 9 0
BBX 10 8 0 0
BITMAP
AAAA90
182A40
248000
548000
528040
20C140
1A6A40
000040
ENDCHAR
STARTCHAR uni092C094D0927
ENCODING -1
SWIDTH 844 0
DWIDTH 10 0
BBX 10 8 0 0
BITMAP
AAA1A0
188080
246480
548080
528080
20C080
1A6A80
000040
ENDCHAR
STARTCHAR uni092C094D092C
ENCODING -1
SWIDTH 783 0
DWIDTH 9 0
BBX 10 7 0 1
BITMAP
AAAA90
182540
209140
589540
518540
11C240
1A6A40
ENDCHAR
STARTCHAR uni092C094D092D
ENCODING -1
SWIDTH 764 0
DWIDTH 9 0
BBX 9 8 0 0
BITMAP
AA4680
188200
208200
58AA00
518200
118200
1A0200
000100
ENDCHAR
STARTCHAR uni092C094D092F
ENCODING -1
SWIDTH 852 0
DWIDTH 10 0
BBX 11 8 0 0
BITMAP
AAAAA4
180840
24A440
558040
518080
10AA80
1A0040
000040
ENDCHAR
STARTCHAR uni092C094D0932
ENCODING -1
SWIDTH 961 0
DWIDTH 12 0
BBX 12 8 0 0
BITMAP
AAAAA9
180004
3029A4
548214
518204
118004
056404
000004
ENDCHAR
STARTCHAR uni092C094D0935
ENCODING -1
SWIDTH 776 0
DWIDTH 9 0
BBX 10 8 0 0
BITMAP
AAAA90
182540
208140
588140
518140
11C140
1A6A40
000100
ENDCHAR
STARTCHAR uni092C094D0936
ENCODING -1
SWIDTH 926 0
DWIDTH 11 0
BBX 11 8 0 0
BITMAP
A92928
184220
200220
58A920
529020
10A020
1A0820
000410
ENDCHAR
STARTCHAR uni092C094D0938
ENCODING -1
SWIDTH 897 0
DWIDTH 11 0
BBX 11 8 0 0
BITMAP
AAAAA4
180820
200820
58AAA0
529020
10A020
1A1420
000410
ENDCHAR
STARTCHAR uni092D094D092F
ENCODING -1
SWIDTH 827 0
DWIDTH 10 0
BBX 10 8 0 0
BITMAP
92AAA0
201480
20A080
2A8080
108080
006A80
000080
000040
ENDCHAR
STARTCHAR uni092D094D0932
ENCODING -1
SWIDTH 941 0
DWIDTH 11 0
BBX 12 8 0 0
BITMAP
92AAA9
200014
2065A4
2A8514
208114
008014
006414
000010
ENDCHAR
STARTCHAR uni092D094D0935
ENCODING -1
SWIDTH 755 0
DWIDTH 9 0
BBX 9 8 0 0
BITMAP
92AA80
206600
208200
2A8200
208200
108200
006A00
000100
ENDCHAR
STARTCHAR uni092E094D0924
ENCODING -1
SWIDTH 765 0
DWIDTH 9 0
BBX 9 8 0 0
BITMAP
AAAA80
200200
206A00
2A8200
208200
008200
008200
001100
ENDCHAR
STARTCHAR uni092E094D0926
ENCODING -1
SWIDTH 766 0
DWIDTH 9 0
BBX 10 7 0 1
BITMAP
AAAA90
202A00
208000
2A8000
208140
108140
006A40
ENDCHAR
STARTCHAR uni092E094D092A
ENCODING -1
SWIDTH 762 0
DWIDTH 9 0
BBX 9 8 0 0
BITMAP
AAAA80
208200
208200
2A8200
106A00
000200
000200
000100
ENDCHAR
STARTCHAR uni092E094D092C
ENCODING -1
SWIDTH 768 0
DWIDTH 9 0
BBX 10 8 0 0
BITMAP
AAAA90
206500
209100
2A9500
208600
108300
006A00
000100
ENDCHAR
STARTCHAR uni092E094D092D
ENCODING -1
SWIDTH 768 0
DWIDTH 9 0
BBX 10 8 0 0
BITMAP
AA4690
208100
208100
2AAA00
208100
000100
000100
000100
ENDCHAR
STARTCHAR uni092E094D092E
ENCODING -1
SWIDTH 759 0
DWIDTH 9 0
BBX 9 8 0 0
BITMAP
AAAA80
208200
208200
2AAA00
208200
000200
000200
000100
ENDCHAR
STARTCHAR uni092E094D092F
ENCODING -1
SWIDTH 834 0
DWIDTH 10 0
BBX 10 8 0 0
BITMAP
AAAAA0
201480
20A080
2A8080
108080
006A80
000080
000040
ENDCHAR
STARTCHAR uni092E094D0932
ENCODING -1
SWIDTH 945 0
DWIDTH 11 0
BBX 12 7 0 1
BITMAP
AAAAA9
200014
2069A4
2A8614
208114
008014
006414
ENDCHAR
STARTCHAR uni092E094D0935
ENCODING -1
SWIDTH 761 0
DWIDTH 9 0
BBX 9 8 0 0
BITMAP
AAAA80
206600
208200
2A8200
208200
108200
006A00
000100
ENDCHAR
STARTCHAR uni092E094D0936
ENCODING -1
SWIDTH 884 0
DWIDTH 11 0
BBX 11 8 0 0
BITMAP
A86824
208520
200520
2AA820
208020
105020
002020
000410
ENDCHAR
STARTCHAR uni092E094D0938
ENCODING -1
SWIDTH 816 0
DWIDTH 10 0
BBX 10 8 0 0
BITMAP
AAAA90
202080
202080
2AAA80
214080
108080
005080
001040
ENDCHAR
STARTCHAR uni092E094D0939
ENCODING -1
SWIDTH 758 0
DWIDTH 9 0
BBX 9 9 0 -1
BITMAP
AAAA80
200200
206A00
2A8000
206900
108100
008100
008000
002A00
ENDCHAR
STARTCHAR uni092F094D092F
ENCODING -1
SWIDTH 897 0
DWIDTH 11 0
BBX 11 8 0 0
BITMAP
AAAAA4
040420
282820
505020
206020
1A5A60
000020
000010
ENDCHAR
STARTCHAR uni0930094D092F
ENCODING -1
SWIDTH 713 0
DWIDTH 9 0
BBX 9 8 0 0
BITMAP
AAAA40
008100
6A4100
050100
050500
01A500
000100
000100
ENDCHAR
STARTCHAR uni0930094D0939
ENCODING -1
SWIDTH 619 0
DWIDTH 7 0
BBX 8 9 0 -1
BITMAP
AAA9
0014
42A4
6900
02A0
0504
0404
0500
01A4
ENDCHAR
STARTCHAR uni0932094D0915
ENCODING -1
SWIDTH 1182 0
DWIDTH 14 0
BBX 15 8 0 0
BITMAP
AAAAAAA4
00025680
19681450
21481010
11481010
10082050
28016140
00001000
ENDCHAR
STARTCHAR uni0932094D0916
ENCODING -1
SWIDTH 1195 0
DWIDTH 14 0
BBX 15 8 0 0
BITMAP
AAAAAAA4
00008550
19A48850
214A5450
11420850
10024690
28008050
00004000
ENDCHAR
STARTCHAR uni0932094D0917
ENCODING -1
SWIDTH 950 0
DWIDTH 11 0
BBX 12 7 0 1
BITMAP
AAAAA9
000214
195214
214214
114814
100014
280014
ENDCHAR
STARTCHAR uni0932094D091C
ENCODING -1
SWIDTH 1035 0
DWIDTH 12 0
BBX 13 7 0 1
BITMAP
AAAAAA40
00000500
1952A900
21404500
11405500
10004500
280A4500
ENDCHAR
STARTCHAR uni0932094D091F
ENCODING -1
SWIDTH 929 0
DWIDTH 11 0
BBX 11 7 0 1
BITMAP
AAAAA8
000020
1966A0
214800
114800
100808
2806A0
ENDCHAR
STARTCHAR uni0932094D0920
ENCODING -1
SWIDTH 953 0
DWIDTH 11 0
BBX 12 7 0 1
BITMAP
AAAAA9
000020
1966A0
214814
114808
100804
2806A0
ENDCHAR
STARTCHAR uni0932094D0921
ENCODING -1
SWIDTH 916 0
DWIDTH 11 0
BBX 11 8 0 0
BITMAP
AAAAA8
0006A0
196800
214800
1146A0
100014
280820
000150
ENDCHAR
STARTCHAR uni0932094D0922
ENCODING -1
SWIDTH 924 0
DWIDTH 11 0
BBX 11 7 0 1
BITMAP
AAAAA8
000020
1966A0
214860
110884
100804
2806A0
ENDCHAR
STARTCHAR uni0932094D0924
ENCODING -1
SWIDTH 929 0
DWIDTH 11 0
BBX 11 8 0 0
BITMAP
AAAAA8
000020
19A6A0
214820
114820
100820
280820
000110
ENDCHAR
STARTCHAR uni0932094D0925
ENCODING -1
SWIDTH 1061 0
DWIDTH 13 0
BBX 13 8 0 0
BITMAP
AA929240
00052200
19A42200
214A8200
11080200
1002A600
28000200
00000100
ENDCHAR
STARTCHAR uni0932094D0926
ENCODING -1
SWIDTH 939 0
DWIDTH 11 0
BBX 12 8 0 0
BITMAP
AAAAA9
0002A0
196800
214800
114804
100814
280154
000004
ENDCHAR
STARTCHAR uni0932094D092A
ENCODING -1
SWIDTH 939 0
DWIDTH 11 0
BBX 12 8 0 0
BITMAP
AAAAA9
000814
196814
214814
1006A4
100014
280014
000010
ENDCHAR
STARTCHAR uni0932094D092B
ENCODING -1
SWIDTH 1176 0
DWIDTH 14 0
BBX 14 8 0 0
BITMAP
AAAAAAA0
00082680
19682450
21482050
1106A050
10002040
28002140
00001000
ENDCHAR
STARTCHAR uni0932094D092C
ENCODING -1
SWIDTH 949 0
DWIDTH 11 0
BBX 12 7 0 1
BITMAP
AAAAA9
000254
196914
214954
114854
100424
280154
ENDCHAR
STARTCHAR uni0932094D092D
ENCODING -1
SWIDTH 931 0
DWIDTH 11 0
BBX 11 8 0 0
BITMAP
AAA468
000820
196820
214AA0
114820
100020
280020
000010
ENDCHAR
STARTCHAR uni0932094D092E
ENCODING -1
SWIDTH 931 0
DWIDTH 11 0
BBX 11 8 0 0
BITMAP
AAAAA8
000820
196820
214AA0
114820
100020
280020
000010
ENDCHAR
STARTCHAR uni0932094D092F
ENCODING -1
SWIDTH 1033 0
DWIDTH 12 0
BBX 13 7 0 1
BITMAP
AAAAAA40
19648500
21448500
114A4500
11040500
1001A900
28000500
ENDCHAR
STARTCHAR uni0932094D0932
ENCODING -1
SWIDTH 1112 0
DWIDTH 13 0
BBX 14 7 0 1
BITMAP
AAAAAA90
00000140
19665A40
21486140
11481140
10080140
28064140
ENDCHAR
STARTCHAR uni0932094D0935
ENCODING -1
SWIDTH 940 0
DWIDTH 11 0
BBX 12 8 0 0
BITMAP
AAAAA9
000254
196814
214814
114814
100824
280164
000010
ENDCHAR
STARTCHAR uni0932094D0938
ENCODING -1
SWIDTH 1068 0
DWIDTH 13 0
BBX 13 8 0 0
BITMAP
AAAAAA80
00008200
19648200
214AAA00
11450200
10020200
28014200
00004100
ENDCHAR
STARTCHAR uni0932094D0939
ENCODING -1
SWIDTH 922 0
DWIDTH 11 0
BBX 11 8 0 0
BITMAP
AAAAA8
0006A0
196800
214800
1146A0
100814
280800
0006A0
ENDCHAR
STARTCHAR uni0933094D092F
ENCODING -1
SWIDTH 1050 0
DWIDTH 13 0
BBX 13 8 0 0
BITMAP
AAAAAA40
19648200
11464200
51450200
51450600
2145A600
19640200
00000100
ENDCHAR
STARTCHAR uni0935094D092F
ENCODING -1
SWIDTH 852 0
DWIDTH 10 0
BBX 11 8 0 0
BITMAP
AAAAA4
180840
10A440
508040
508080
106A80
1A0040
000040
ENDCHAR
STARTCHAR uni0935094D0932
ENCODING -1
SWIDTH 961 0
DWIDTH 12 0
BBX 12 8 0 0
BITMAP
AAAAA9
1829A4
108214
508204
508104
108004
1A6404
000004
ENDCHAR
STARTCHAR uni0935094D0935
ENCODING -1
SWIDTH 776 0
DWIDTH 9 0
BBX 10 8 0 0
BITMAP
AAAA90
182540
108140
508140
508140
108140
156640
000100
ENDCHAR
STARTCHAR uni0935094D0939
ENCODING -1
SWIDTH 754 0
DWIDTH 9 0
BBX 9 9 0 -1
BITMAP
AAAA80
000200
186A00
508000
506900
508100
1A8100
008000
002A00
ENDCHAR
STARTCHAR uni0936094D0915
ENCODING -1
SWIDTH 1093 0
DWIDTH 13 0
BBX 13 8 0 0
BITMAP
2A2AAA80
1219A900
02209140
69208140
20208140
14208140
081A8900
04004000
ENDCHAR
STARTCHAR uni0936094D091A
ENCODING -1
SWIDTH 950 0
DWIDTH 11 0
BBX 12 7 0 1
BITMAP
2A2AA9
120014
022A54
690814
200814
1406A4
080014
ENDCHAR
STARTCHAR uni0936094D091B
ENCODING -1
SWIDTH 968 0
DWIDTH 12 0
BBX 12 8 0 0
BITMAP
2A2AA9
121004
021464
690908
201408
141408
080AA4
040000
ENDCHAR
STARTCHAR uni0936094D091F
ENCODING -1
SWIDTH 854 0
DWIDTH 10 0
BBX 11 7 0 1
BITMAP
2A2AA4
120080
020A80
692000
202010
142020
081A90
ENDCHAR
STARTCHAR uni0936094D0924
ENCODING -1
SWIDTH 864 0
DWIDTH 10 0
BBX 11 8 0 0
BITMAP
2A2AA4
120050
021A90
692050
202050
142050
082050
000400
ENDCHAR
STARTCHAR uni0936094D092E
ENCODING -1
SWIDTH 885 0
DWIDTH 11 0
BBX 11 8 0 0
BITMAP
2A2AA4
121420
021420
691AA0
201420
140020
080020
000010
ENDCHAR
STARTCHAR uni0936094D092F
ENCODING -1
SWIDTH 940 0
DWIDTH 11 0
BBX 12 8 0 0
BITMAP
2A2AA9
120214
021914
692014
202024
140AA4
080014
000010
ENDCHAR
STARTCHAR uni0936094D0932
ENCODING -1
SWIDTH 1039 0
DWIDTH 12 0
BBX 13 8 0 0
BITMAP
2A2AAA40
12000500
021A6900
69208500
20204500
14200500
08190500
00000100
ENDCHAR
STARTCHAR uni0936094D0935
ENCODING -1
SWIDTH 850 0
DWIDTH 10 0
BBX 11 8 0 0
BITMAP
2A2AA4
121940
022040
692040
202040
142080
080A80
040040
ENDCHAR
STARTCHAR uni0936094D0936
ENCODING -1
SWIDTH 1009 0
DWIDTH 12 0
BBX 12 8 0 0
BITMAP
2A0A4A
121488
020088
692A48
201408
140808
080208
040104
ENDCHAR
STARTCHAR uni0937094D0915
ENCODING -1
SWIDTH 1039 0
DWIDTH 12 0
BBX 13 8 0 0
BITMAP
BAAAAA40
2429A800
21518200
20C14200
1A814200
00514200
001A5800
00004000
ENDCHAR
STARTCHAR uni0937094D091F
ENCODING -1
SWIDTH 493 0
DWIDTH 6 0
BBX 6 8 0 0
BITMAP
BAA0
2480
2180
2A80
1000
5050
2080
1540
ENDCHAR
STARTCHAR uni0937094D0920
ENCODING -1
SWIDTH 511 0
DWIDTH 6 0
BBX 6 8 0 0
BITMAP
BFE0
3FC0
3FC0
2F80
2040
5050
2080
1540
ENDCHAR
STARTCHAR uni0937094D0923
ENCODING -1
SWIDTH 980 0
DWIDTH 12 0
BBX 12 8 0 0
BITMAP
BAAAA9
244208
214208
209208
1A5908
000008
000008
000004
ENDCHAR
STARTCHAR uni0937094D092A
ENCODING -1
SWIDTH 980 0
DWIDTH 12 0
BBX 12 8 0 0
BITMAP
BAAAA9
244208
214208
209208
1A5908
000008
000008
000004
ENDCHAR
STARTCHAR uni0937094D092B
ENCODING -1
SWIDTH 1036 0
DWIDTH 12 0
BBX 13 8 0 0
BITMAP
BAAAAA40
2441A800
21414200
20914200
1A6A4200
00014200
00015800
00004000
ENDCHAR
STARTCHAR uni0937094D092E
ENCODING -1
SWIDTH 791 0
DWIDTH 9 0
BBX 10 8 0 0
BITMAP
BAAA90
244140
254140
21AA40
1A8140
000140
000140
000040
ENDCHAR
STARTCHAR uni0937094D092F
ENCODING -1
SWIDTH 877 0
DWIDTH 11 0
BBX 11 8 0 0
BITMAP
BAAAA4
240810
216410
208010
1A5050
001A50
000010
000010
ENDCHAR
STARTCHAR uni0937094D0935
ENCODING -1
SWIDTH 802 0
DWIDTH 10 0
BBX 10 8 0 0
BITMAP
BAAA90
242880
215080
20C080
1A8080
005180
001980
000040
ENDCHAR
STARTCHAR uni0937094D0937
ENCODING -1
SWIDTH 804 0
DWIDTH 10 0
BBX 10 8 0 0
BITMAP
BAAA90
246480
214580
209180
1A5980
000080
000080
000040
ENDCHAR
STARTCHAR uni0938094D0915
ENCODING -1
SWIDTH 1089 0
DWIDTH 13 0
BBX 13 8 0 0
BITMAP
AAAAAA80
08199900
08208140
6AA08140
50208140
20208140
081A8900
04004000
ENDCHAR
STARTCHAR uni0938094D0916
ENCODING -1
SWIDTH 990 0
DWIDTH 12 0
BBX 12 8 0 0
BITMAP
AAAAAA
080898
080A08
6AA208
508208
2020A8
081408
040404
ENDCHAR
STARTCHAR uni0938094D091C
ENCODING -1
SWIDTH 970 0
DWIDTH 12 0
BBX 12 8 0 0
BITMAP
AAAAA9
080008
080AA8
6A9148
500048
200148
081A08
040004
ENDCHAR
STARTCHAR uni0938094D091F
ENCODING -1
SWIDTH 844 0
DWIDTH 10 0
BBX 10 8 0 0
BITMAP
AAAAA0
080080
081A80
6AA000
502010
202010
081A80
040000
ENDCHAR
STARTCHAR uni0938094D0924
ENCODING -1
SWIDTH 852 0
DWIDTH 10 0
BBX 11 8 0 0
BITMAP
AAAAA4
080040
081A80
6AA040
502040
202040
082040
040440
ENDCHAR
STARTCHAR uni0938094D0925
ENCODING -1
SWIDTH 960 0
DWIDTH 12 0
BBX 12 8 0 0
BITMAP
AA5A09
082144
080144
6AAA04
502014
201AA4
080004
040004
ENDCHAR
STARTCHAR uni0938094D0926
ENCODING -1
SWIDTH 851 0
DWIDTH 10 0
BBX 11 8 0 0
BITMAP
AAAAA4
080A80
082000
6AA000
502050
202050
080A90
040000
ENDCHAR
STARTCHAR uni0938094D092A
ENCODING -1
SWIDTH 857 0
DWIDTH 10 0
BBX 11 8 0 0
BITMAP
AAAAA4
082050
082050
6AA050
501A90
200050
080050
040040
ENDCHAR
STARTCHAR uni0938094D092B
ENCODING -1
SWIDTH 1092 0
DWIDTH 13 0
BBX 13 8 0 0
BITMAP
AAAAAA80
08209900
08208140
6AA08140
501A8140
20008140
08008900
04004000
ENDCHAR
STARTCHAR uni0938094D092C
ENCODING -1
SWIDTH 857 0
DWIDTH 10 0
BBX 11 8 0 0
BITMAP
AAAAA4
081950
082450
6AA550
502190
202090
080A90
040040
ENDCHAR
STARTCHAR uni0938094D092E
ENCODING -1
SWIDTH 850 0
DWIDTH 10 0
BBX 11 8 0 0
BITMAP
AAAAA4
082040
082040
6AAA80
502040
201040
080040
040040
ENDCHAR
STARTCHAR uni0938094D092F
ENCODING -1
SWIDTH 920 0
DWIDTH 11 0
BBX 11 8 0 0
BITMAP
AAAAA8
080520
082820
6AA020
502020
201AA0
080020
040010
ENDCHAR
STARTCHAR uni0938094D0932
ENCODING -1
SWIDTH 1027 0
DWIDTH 12 0
BBX 13 8 0 0
BITMAP
AAAAAA40
08000500
081A6900
6AA14500
50204500
20200500
08190500
04000400
ENDCHAR
STARTCHAR uni0938094D0935
ENCODING -1
SWIDTH 842 0
DWIDTH 10 0
BBX 10 8 0 0
BITMAP
AAAAA0
081980
082080
6AA080
502080
202080
081A80
040040
ENDCHAR
STARTCHAR uni0938094D0938
ENCODING -1
SWIDTH 871 0
DWIDTH 10 0
BBX 11 8 0 0
BITMAP
AAAAA4
081450
081450
6AAA90
508050
202050
082050
040410
ENDCHAR
STARTCHAR uni0939094D0923
ENCODING -1
SWIDTH 1136 0
DWIDTH 14 0
BBX 14 11 0 -3
BITMAP
AAAAAA90
00882080
1A482080
20082080
2A442080
20829080
10400080
20000040
1A400000
01000000
01400000
ENDCHAR
STARTCHAR uni0939094D092E
ENCODING -1
SWIDTH 746 0
DWIDTH 9 0
BBX 9 9 0 -1
BITMAP
AAAA80
1A8200
200200
200200
2A8200
10AA00
508200
204200
1A4100
ENDCHAR
STARTCHAR uni0939094D092F
ENCODING -1
SWIDTH 785 0
DWIDTH 9 0
BBX 10 10 0 -2
BITMAP
AAAA90
008140
2A8140
200140
2AA140
201140
50A140
508140
106A40
150040
ENDCHAR
STARTCHAR uni0939094D0932
ENCODING -1
SWIDTH 1110 0
DWIDTH 13 0
BBX 14 11 0 -3
BITMAP
AAAAAA90
1A400140
20065A40
20086140
2A481140
20880140
20064140
1A400100
00000000
02000000
01400000
ENDCHAR
STARTCHAR uni0939094D0935
ENCODING -1
SWIDTH 920 0
DWIDTH 11 0
BBX 11 11 0 -3
BITMAP
AAAAA8
154660
200820
200820
2A4820
208820
1046A0
200010
1A4000
010000
014000
ENDCHAR
STARTCHAR uni0915093C094D0915093C
ENCODING -1
SWIDTH 1275 0
DWIDTH 15 0
BBX 16 8 0 0
BITMAP
AAAAAAA9
18A996A0
10820514
50820508
50820508
10820514
1980A960
10404000
ENDCHAR
STARTCHAR uni0915093C094D0924
ENCODING -1
SWIDTH 1016 0
DWIDTH 12 0
BBX 13 8 0 0
BITMAP
AAAAAA40
18A90400
1082A800
50820400
50820400
10820400
19820400
10404400
ENDCHAR
STARTCHAR uni0915093C094D092B
ENCODING -1
SWIDTH 1246 0
DWIDTH 15 0
BBX 15 8 0 0
BITMAP
AAAAAAA8
18AA0A90
10820820
50820814
5081A814
10800820
19800890
10400400
ENDCHAR
STARTCHAR uni0915093C094D092B093C
ENCODING -1
SWIDTH 1247 0
DWIDTH 15 0
BBX 15 8 0 0
BITMAP
AAAAAAA8
18AA0A90
10820820
50820814
5081A814
10800820
19800890
10404400
ENDCHAR
STARTCHAR uni0915093C094D092C
ENCODING -1
SWIDTH 1043 0
DWIDTH 13 0
BBX 13 8 0 0
BITMAP
AAAAAA40
18A9A100
10828100
50825100
50821500
10820900
1A80A900
10400100
ENDCHAR
STARTCHAR uni0915093C094D092E
ENCODING -1
SWIDTH 998 0
DWIDTH 12 0
BBX 12 8 0 0
BITMAP
AAAAAA
18AA08
108208
5082A8
508208
108108
198008
104004
ENDCHAR
STARTCHAR uni0916093C094D0924
ENCODING -1
SWIDTH 984 0
DWIDTH 12 0
BBX 12 8 0 0
BITMAP
AAAAA9
085008
0882A8
644508
208508
146908
080608
041144
ENDCHAR
STARTCHAR uni0916093C094D092E
ENCODING -1
SWIDTH 965 0
DWIDTH 12 0
BBX 12 8 0 0
BITMAP
AAAAA9
085504
088504
6446A4
208504
146404
080004
041004
ENDCHAR
STARTCHAR uni0916093C094D092F
ENCODING -1
SWIDTH 1045 0
DWIDTH 13 0
BBX 13 8 0 0
BITMAP
AAAAAA40
08508100
08864100
64440100
20850500
1466A900
08000100
04100100
ENDCHAR
STARTCHAR uni0916093C094D0935
ENCODING -1
SWIDTH 972 0
DWIDTH 12 0
BBX 12 8 0 0
BITMAP
AAAAA9
085288
088508
644508
208508
146908
080198
041004
ENDCHAR
STARTCHAR uni0916093C094D0936
ENCODING -1
SWIDTH 1123 0
DWIDTH 13 0
BBX 14 8 0 0
BITMAP
AAA2A190
08511140
08802140
644A9140
20890140
14660140
08018140
04104040
ENDCHAR
STARTCHAR uni0916093C094D0938
ENCODING -1
SWIDTH 1066 0
DWIDTH 13 0
BBX 13 8 0 0
BITMAP
AAAAAA40
08508200
08808200
644AAA00
20850200
14660200
08014200
04104100
ENDCHAR
STARTCHAR uni091C093C094D091C093C
ENCODING -1
SWIDTH 934 0
DWIDTH 11 0
BBX 11 8 0 0
BITMAP
AAAAA8
000020
2A5AA0
050220
050220
050220
686820
101410
ENDCHAR
STARTCHAR uni091C093C094D092F
ENCODING -1
SWIDTH 893 0
DWIDTH 11 0
BBX 11 8 0 0
BITMAP
AAAAA4
000820
2AA420
055020
052020
051A60
680020
100010
ENDCHAR
STARTCHAR uni092B093C094D091C093C
ENCODING -1
SWIDTH 1100 0
DWIDTH 13 0
BBX 14 8 0 0
BITMAP
AAAAAA90
20800100
20A8AA00
20802100
1A802100
00802100
00829100
10404100
ENDCHAR
STARTCHAR uni092B093C094D0924
ENCODING -1
SWIDTH 1036 0
DWIDTH 12 0
BBX 13 8 0 0
BITMAP
AAAAAA40
20A90500
2082A900
20820500
1A820500
00820500
00824500
10404000
ENDCHAR
STARTCHAR uni092B093C094D092B093C
ENCODING -1
SWIDTH 1256 0
DWIDTH 15 0
BBX 15 8 0 0
BITMAP
AAAAAAA8
20AA0990
20820814
20820814
1A81A814
00800814
00800890
10404400
ENDCHAR
STARTCHAR uni092B093C094D0938
ENCODING -1
SWIDTH 1141 0
DWIDTH 14 0
BBX 14 8 0 0
BITMAP
AAAAAA90
20A82080
20822080
2082AA80
1A814080
00808080
00805080
10401040
ENDCHAR
STARTCHAR uni092C094D091C093C
ENCODING -1
SWIDTH 883 0
DWIDTH 11 0
BBX 11 8 0 0
BITMAP
AAAAA4
180010
302A90
540510
550510
114510
1AA810
001010
ENDCHAR
STARTCHAR uni0932094D091C093C
ENCODING -1
SWIDTH 1062 0
DWIDTH 13 0
BBX 13 8 0 0
BITMAP
AAAAAA40
00000500
1952A900
21404500
11405500
10004500
280A4500
00010000
ENDCHAR
STARTCHAR uni0936094D0915093C
ENCODING -1
SWIDTH 1093 0
DWIDTH 13 0
BBX 13 8 0 0
BITMAP
2A2AAA80
12199900
02209140
69208140
20208140
14208140
081A8900
04044000
ENDCHAR
STARTCHAR uni0924094D0924094D
ENCODING -1
SWIDTH 309 0
DWIDTH 4 0
BBX 5 8 0 0
BITMAP
AA80
0000
6A80
2000
2000
2000
2400
0400
ENDCHAR
STARTCHAR uni0928094D092D094D
ENCODING -1
SWIDTH 505 0
DWIDTH 6 0
BBX 8 6 0 2
BITMAP
AA09
0140
0040
6AA9
8040
0040
ENDCHAR
STARTCHAR uni0928094D0938094D
ENCODING -1
SWIDTH 635 0
DWIDTH 8 0
BBX 9 8 0 0
BITMAP
AAAA80
001400
2A1400
50AA80
408000
002000
001000
000400
ENDCHAR
STARTCHAR uni092E094D092D094D
ENCODING -1
SWIDTH 533 0
DWIDTH 6 0
BBX 8 6 0 2
BITMAP
AA45
2080
2080
2AA9
2080
1040
ENDCHAR
STARTCHAR uni0932094D092D094D
ENCODING -1
SWIDTH 694 0
DWIDTH 8 0
BBX 10 7 0 1
BITMAP
AAA450
000800
196800
214A90
114800
100000
280000
ENDCHAR
STARTCHAR uni0938094D0924094D0930094D
ENCODING -1
SWIDTH 575 0
DWIDTH 7 0
BBX 9 8 0 0
BITMAP
AAA900
080000
082A00
6A8040
500140
200600
081400
041000
ENDCHAR
STARTCHAR uni0915094D0924094D092F
ENCODING -1
SWIDTH 1356 0
DWIDTH 16 0
BBX 17 8 0 0
BITMAP
AAAAAAAA40
18A9008500
1082AA4500
5082080500
5082080900
108202A900
1982000500
0040400400
ENDCHAR
STARTCHAR uni0915094D0924094D0930
ENCODING -1
SWIDTH 997 0
DWIDTH 12 0
BBX 12 8 0 0
BITMAP
AAAAAA
18A908
1082A8
508208
508108
108028
198098
004104
ENDCHAR
STARTCHAR uni0915094D0924094D0935
ENCODING -1
SWIDTH 1242 0
DWIDTH 15 0
BBX 15 8 0 0
BITMAP
AAAAAAA8
18A90660
1082A820
50850420
50850420
10850820
198206A0
00414010
ENDCHAR
STARTCHAR uni0915094D092A094D0930
ENCODING -1
SWIDTH 1007 0
DWIDTH 12 0
BBX 12 8 0 0
BITMAP
AAAAAA
18AA08
508208
508208
5081A8
1A8058
008088
004104
ENDCHAR
STARTCHAR uni0915094D0935094D092F
ENCODING -1
SWIDTH 1384 0
DWIDTH 17 0
BBX 17 8 0 0
BITMAP
AAAAAAAA40
18A9908200
1082064200
5082050200
5082050600
208205A600
1981A40200
0040000100
ENDCHAR
STARTCHAR uni0915094D0938094D091F
ENCODING -1
SWIDTH 1376 0
DWIDTH 17 0
BBX 17 8 0 0
BITMAP
AAAAAAAA40
18A9200500
108220A900
5082AA4000
5081410100
1080810200
058050A900
0040100000
ENDCHAR
STARTCHAR uni0915094D0938094D0921
ENCODING -1
SWIDTH 1388 0
DWIDTH 17 0
BBX 17 8 0 0
BITMAP
AAAAAAAA40
18A9206900
5082208000
5082AA4000
5081406900
2A80804200
0080508200
0040105500
ENDCHAR
STARTCHAR uni0915094D0938094D0924
ENCODING -1
SWIDTH 1423 0
DWIDTH 17 0
BBX 17 8 0 0
BITMAP
AAAAAAAA80
18A9200200
1082206A00
5082AA8200
5081404200
1080804200
1980508200
0040101100
ENDCHAR
STARTCHAR uni0915094D0938094D092A094D0930
ENCODING -1
SWIDTH 1437 0
DWIDTH 17 0
BBX 18 8 0 0
BITMAP
AAAAAAAA90
18A9208100
5082208100
5082AA8200
5081406A00
1A80800500
0080502100
0040104100
ENDCHAR
STARTCHAR uni0915094D0938094D092A094D0932
ENCODING -1
SWIDTH 1866 0
DWIDTH 22 0
BBX 23 8 0 0
BITMAP
AAAAAAAAAAA4
18A920800050
10822081A690
5082AA820850
5081406A0450
108080020050
058050019050
004010000000
ENDCHAR
STARTCHAR uni0917094D0927094D092F
ENCODING -1
SWIDTH 1156 0
DWIDTH 14 0
BBX 14 8 0 0
BITMAP
AAA1AAA0
14801480
14A4A080
20808080
50808080
0080AA80
006A0080
00000040
ENDCHAR
STARTCHAR uni0917094D0927094D0935
ENCODING -1
SWIDTH 1084 0
DWIDTH 13 0
BBX 13 8 0 0
BITMAP
AAA1AA80
14806600
14648200
20808200
50808200
00808200
006A6A00
00000100
ENDCHAR
STARTCHAR uni0917094D0928094D092F
ENCODING -1
SWIDTH 1069 0
DWIDTH 13 0
BBX 13 8 0 0
BITMAP
AAAAAA80
14005200
14AA8200
21410200
61420200
0001AA00
00000200
00000100
ENDCHAR
STARTCHAR uni0917094D092D094D092F
ENCODING -1
SWIDTH 1102 0
DWIDTH 13 0
BBX 14 8 0 0
BITMAP
AA46AA90
14802100
14829100
20AA0100
50820200
0000AA00
00000100
00000100
ENDCHAR
STARTCHAR uni0917094D0930094D092F
ENCODING -1
SWIDTH 817 0
DWIDTH 10 0
BBX 10 8 0 0
BITMAP
AAAA90
141480
14A080
204080
508080
006A80
000880
002040
ENDCHAR
STARTCHAR uni091A094D091B094D0935
ENCODING -1
SWIDTH 913 0
DWIDTH 11 0
BBX 11 9 0 -1
BITMAP
AABAA8
002020
6920A0
202820
202010
202020
0AAAA0
002020
001A90
ENDCHAR
STARTCHAR uni091C094D091C094D091E
ENCODING -1
SWIDTH 945 0
DWIDTH 11 0
BBX 12 8 0 0
BITMAP
AAAAA9
001AA4
2A9014
055014
052A54
055094
686A54
005000
ENDCHAR
STARTCHAR uni091C094D091C094D092F
ENCODING -1
SWIDTH 1252 0
DWIDTH 15 0
BBX 15 8 0 0
BITMAP
AAAAAAA8
00000520
2A5AA820
05012020
05022020
05011AA0
68680020
00000010
ENDCHAR
STARTCHAR uni091C094D091C094D0935
ENCODING -1
SWIDTH 1243 0
DWIDTH 15 0
BBX 14 8 0 0
BITMAP
AAAAAAA0
00001980
2A5AA080
05012080
05022080
05012080
68681A80
00000040
ENDCHAR
STARTCHAR uni0924094D0915094D092F
ENCODING -1
SWIDTH 1346 0
DWIDTH 16 0
BBX 16 8 0 0
BITMAP
AAAAAAAA
00660088
1A826A08
10820808
50820808
508202A8
206A0008
14010004
ENDCHAR
STARTCHAR uni0924094D0915094D0930
ENCODING -1
SWIDTH 995 0
DWIDTH 12 0
BBX 12 8 0 0
BITMAP
AAAAAA
006664
1A8208
108205
508205
508208
206A24
141100
ENDCHAR
STARTCHAR uni0924094D0915094D0935
ENCODING -1
SWIDTH 1282 0
DWIDTH 15 0
BBX 16 8 0 0
BITMAP
AAAAAAA9
00666654
1A820814
10820814
50820814
50820814
206A02A4
14010000
ENDCHAR
STARTCHAR uni0924094D0915094D0937
ENCODING -1
SWIDTH 943 0
DWIDTH 11 0
BBX 12 8 0 0
BITMAP
AA6A19
002114
1A6AA4
108014
508114
508214
206A14
140110
ENDCHAR
STARTCHAR uni0924094D0916094D0930
ENCODING -1
SWIDTH 1008 0
DWIDTH 12 0
BBX 12 8 0 0
BITMAP
AAAAAA
000898
1A4948
10A508
505148
5020A8
201458
140484
ENDCHAR
STARTCHAR uni0924094D0924094D092F
ENCODING -1
SWIDTH 888 0
DWIDTH 11 0
BBX 11 8 0 0
BITMAP
AAAAA4
000820
6A4820
206420
205060
201A60
240020
040010
ENDCHAR
STARTCHAR uni0924094D0924094D0935
ENCODING -1
SWIDTH 788 0
DWIDTH 9 0
BBX 10 8 0 0
BITMAP
AAAA90
002940
6A8140
208140
208140
204140
242A40
040040
ENDCHAR
STARTCHAR uni0924094D0928094D092F
ENCODING -1
SWIDTH 1098 0
DWIDTH 13 0
BBX 13 8 0 0
BITMAP
AAAAAA80
00002200
1A6A9200
50820200
50420200
5000AA00
20000200
14000100
ENDCHAR
STARTCHAR uni0924094D092A094D0930
ENCODING -1
SWIDTH 763 0
DWIDTH 9 0
BBX 9 8 0 0
BITMAP
AAAA80
008200
1A8200
108200
506A00
501600
202200
144100
ENDCHAR
STARTCHAR uni0924094D092A094D0932
ENCODING -1
SWIDTH 1219 0
DWIDTH 15 0
BBX 15 8 0 0
BITMAP
AAAAAAA4
00800020
1A81A6A0
10820820
506A0420
50020020
20009020
14000010
ENDCHAR
STARTCHAR uni0924094D092E094D092F
ENCODING -1
SWIDTH 1096 0
DWIDTH 13 0
BBX 13 8 0 0
BITMAP
AAAAAA80
00802200
1A828200
10AA0200
50820200
5000AA00
20000200
14000100
ENDCHAR
STARTCHAR uni0924094D0930094D092F
ENCODING -1
SWIDTH 848 0
DWIDTH 10 0
BBX 10 8 0 0
BITMAP
AAAAA0
000880
2A4880
50A080
008080
012A80
140080
100040
ENDCHAR
STARTCHAR uni0924094D0938094D092F
ENCODING -1
SWIDTH 1234 0
DWIDTH 15 0
BBX 15 8 0 0
BITMAP
AAAAAAA4
00080520
1A482820
10AA9020
50502020
50201A60
20140020
14040010
ENDCHAR
STARTCHAR uni0924094D0938094D0935
ENCODING -1
SWIDTH 1155 0
DWIDTH 14 0
BBX 14 8 0 0
BITMAP
AAAAAAA0
00081880
1A482080
10AA9080
50505080
50202080
20141A80
14040040
ENDCHAR
STARTCHAR uni0926094D0917094D0930
ENCODING -1
SWIDTH 493 0
DWIDTH 6 0
BBX 6 11 0 -3
BITMAP
AAA0
0080
1A80
2000
5040
2080
1A80
0880
09C0
2680
0400
ENDCHAR
STARTCHAR uni0926094D092C094D0930
ENCODING -1
SWIDTH 483 0
DWIDTH 6 0
BBX 6 11 0 -3
BITMAP
AA90
0080
1A80
2000
5000
2080
2A80
2880
2280
1A40
0500
ENDCHAR
STARTCHAR uni0926094D092F094D092D
ENCODING -1
SWIDTH 607 0
DWIDTH 7 0
BBX 8 10 0 -2
BITMAP
AAA9
1A14
2014
2914
2014
2014
1AA4
5654
0514
0110
ENDCHAR
STARTCHAR uni0926094D092F094D0930
ENCODING -1
SWIDTH 595 0
DWIDTH 7 0
BBX 7 8 0 0
BITMAP
AAA8
1A20
2020
2920
2020
1020
2AA0
0150
ENDCHAR
STARTCHAR uni0927094D0928094D092F
ENCODING -1
SWIDTH 1138 0
DWIDTH 14 0
BBX 14 8 0 0
BITMAP
B8AAAA90
20002080
282A9080
20414080
20904180
1A906980
00000080
00000040
ENDCHAR
STARTCHAR uni0928094D0915094D0938
ENCODING -1
SWIDTH 1384 0
DWIDTH 17 0
BBX 17 8 0 0
BITMAP
AAAAAAAA40
00A2A08200
2A42084200
81420AAA00
4142050200
0042020200
0066014200
0001004100
ENDCHAR
STARTCHAR uni0928094D0924094D092F
ENCODING -1
SWIDTH 1073 0
DWIDTH 13 0
BBX 13 8 0 0
BITMAP
AAAAAA80
00005200
006A8200
6A410200
41420200
0141AA00
01800200
00500100
ENDCHAR
STARTCHAR uni0928094D0924094D0930
ENCODING -1
SWIDTH 732 0
DWIDTH 9 0
BBX 9 8 0 0
BITMAP
AAAA40
000200
6A4600
814200
400600
001A00
005200
004100
ENDCHAR
STARTCHAR uni0928094D0924094D0938
ENCODING -1
SWIDTH 1134 0
DWIDTH 14 0
BBX 14 8 0 0
BITMAP
AAAAAA90
00002080
6A411080
8142AA80
41414080
01408080
00805080
00501040
ENDCHAR
STARTCHAR uni0928094D0925094D092F
ENCODING -1
SWIDTH 1168 0
DWIDTH 14 0
BBX 14 8 0 0
BITMAP
A8A4AAA0
00481480
0008A080
6AA48080
41408080
00AA6A80
00000080
00000040
ENDCHAR
STARTCHAR uni0928094D0925094D0935
ENCODING -1
SWIDTH 1089 0
DWIDTH 13 0
BBX 13 8 0 0
BITMAP
A8A4AA80
00486600
00088200
6AA48200
41408200
00AA4200
00002A00
00000100
ENDCHAR
STARTCHAR uni0928094D0926094D0930
ENCODING -1
SWIDTH 734 0
DWIDTH 9 0
BBX 9 8 0 0
BITMAP
AAAA40
00AA00
2A8000
814000
414100
004200
006A00
002500
ENDCHAR
STARTCHAR uni0928094D0926094D0935
ENCODING -1
SWIDTH 732 0
DWIDTH 9 0
BBX 9 10 0 -2
BITMAP
AAAA40
000200
006A00
6A4000
814000
004200
00AA00
008200
008200
006900
ENDCHAR
STARTCHAR uni0928094D0927094D092F
ENCODING -1
SWIDTH 1097 0
DWIDTH 13 0
BBX 13 8 0 0
BITMAP
AA96AA80
01402200
2AE28200
51420200
01020200
0142AA00
00A90200
00000100
ENDCHAR
STARTCHAR uni0928094D0927094D0930
ENCODING -1
SWIDTH 783 0
DWIDTH 9 0
BBX 10 8 0 0
BITMAP
AA9690
014140
2AE140
514140
510140
014140
00AA40
001400
ENDCHAR
STARTCHAR uni0928094D0927094D0935
ENCODING -1
SWIDTH 1036 0
DWIDTH 12 0
BBX 13 7 0 1
BITMAP
AA96AA40
01409500
2AE10500
51420500
51020500
01420500
00A9A900
ENDCHAR
STARTCHAR uni0928094D0928094D092F
ENCODING -1
SWIDTH 1071 0
DWIDTH 13 0
BBX 13 8 0 0
BITMAP
AAAAAA80
00005200
6AAA8200
81410200
40020200
0001A600
00000200
00000100
ENDCHAR
STARTCHAR uni0928094D092A094D0930
ENCODING -1
SWIDTH 737 0
DWIDTH 9 0
BBX 9 8 0 0
BITMAP
AAAA80
014200
6A4200
804200
406A00
001600
005200
004100
ENDCHAR
STARTCHAR uni0928094D092B094D0930
ENCODING -1
SWIDTH 975 0
DWIDTH 12 0
BBX 12 8 0 0
BITMAP
AAAAA9
0142A4
6A4208
804208
406A08
002264
005200
004100
ENDCHAR
STARTCHAR uni0928094D092D094D092F
ENCODING -1
SWIDTH 1071 0
DWIDTH 13 0
BBX 13 8 0 0
BITMAP
AA0AAA80
00405200
6A428200
80A90200
40420200
0001AA00
00000200
00000100
ENDCHAR
STARTCHAR uni0928094D092D094D0935
ENCODING -1
SWIDTH 995 0
DWIDTH 12 0
BBX 12 8 0 0
BITMAP
AA0AAA
004198
2A4208
80A908
404108
004208
0001A8
000004
ENDCHAR
STARTCHAR uni0928094D092E094D092F
ENCODING -1
SWIDTH 1071 0
DWIDTH 13 0
BBX 13 8 0 0
BITMAP
AAAAAA80
00405200
6A428200
80A90200
40420200
0001AA00
00000200
00000100
ENDCHAR
STARTCHAR uni0928094D0938094D091F
ENCODING -1
SWIDTH 1113 0
DWIDTH 13 0
BBX 14 8 0 0
BITMAP
AAAAAA90
00100100
2A204000
51AA8000
40808040
00508080
00206A40
00100000
ENDCHAR
STARTCHAR uni0928094D0938094D092E094D092F
ENCODING -1
SWIDTH 1453 0
DWIDTH 17 0
BBX 18 8 0 0
BITMAP
AAAAAAAA90
0020802140
6A20819140
41AAAA0140
4080814140
005000AA40
0020000140
0010000000
ENDCHAR
STARTCHAR uni0928094D0938094D092F
ENCODING -1
SWIDTH 1194 0
DWIDTH 14 0
BBX 15 8 0 0
BITMAP
AAAAAAA4
00200840
69209040
81AA8040
40808080
00502A80
00200040
00100040
ENDCHAR
STARTCHAR uni092A094D0924094D092F
ENCODING -1
SWIDTH 1119 0
DWIDTH 13 0
BBX 14 8 0 0
BITMAP
AAAAAA90
20002140
206A9140
20820140
1A814140
0080AA40
00900140
00100000
ENDCHAR
STARTCHAR uni092C094D091C094D092F
ENCODING -1
SWIDTH 1235 0
DWIDTH 15 0
BBX 15 8 0 0
BITMAP
AAAAAAA8
18000520
302AA820
58051020
55052020
11451A60
1AA80020
00000010
ENDCHAR
STARTCHAR uni092C094D0927094D0935
ENCODING -1
SWIDTH 1097 0
DWIDTH 13 0
BBX 13 8 0 0
BITMAP
AAA0AA80
18806600
24648200
54808200
52808200
21C08200
1A6A6A00
00000100
ENDCHAR
STARTCHAR uni092C094D092D094D0930
ENCODING -1
SWIDTH 764 0
DWIDTH 9 0
BBX 9 8 0 0
BITMAP
AA4680
188200
208200
58AA00
528300
118A00
1A6200
004100
ENDCHAR
STARTCHAR uni092C094D0932094D092F
ENCODING -1
SWIDTH 480 0
DWIDTH 6 0
BBX 16 8 0 0
BITMAP
AAAAAAAA
18299148
34821548
58820908
51810408
10C00698
1A640008
00000004
ENDCHAR
STARTCHAR uni092D094D0930094D092F
ENCODING -1
SWIDTH 830 0
DWIDTH 10 0
BBX 10 8 0 0
BITMAP
91AAA0
201480
20A080
2A8080
118080
056A80
040080
100040
ENDCHAR
STARTCHAR uni092E094D092A094D0930
ENCODING -1
SWIDTH 765 0
DWIDTH 9 0
BBX 9 8 0 0
BITMAP
AAAA80
208200
208200
2A8200
106A00
001600
002200
004100
ENDCHAR
STARTCHAR uni092E094D092C094D092F
ENCODING -1
SWIDTH 1124 0
DWIDTH 13 0
BBX 14 8 0 0
BITMAP
AAAAAA90
20642140
20919140
2A950140
10864140
00826A40
00690140
00000040
ENDCHAR
STARTCHAR uni092E094D092C094D0930
ENCODING -1
SWIDTH 768 0
DWIDTH 9 0
BBX 10 8 0 0
BITMAP
AAAA90
206500
209100
2A9500
208A00
108300
006A00
001100
ENDCHAR
STARTCHAR uni092E094D092D094D092F
ENCODING -1
SWIDTH 1101 0
DWIDTH 13 0
BBX 14 8 0 0
BITMAP
AA46AA90
20802100
20829100
2AAA0100
10820200
0000AA00
00000100
00000100
ENDCHAR
STARTCHAR uni092E094D092D094D0930
ENCODING -1
SWIDTH 759 0
DWIDTH 9 0
BBX 9 8 0 0
BITMAP
AA4680
208200
208200
2AAA00
208700
000A00
002200
004100
ENDCHAR
STARTCHAR uni092E094D092D094D0935
ENCODING -1
SWIDTH 1028 0
DWIDTH 12 0
BBX 13 7 0 1
BITMAP
AA46AA40
20809500
20820500
2AAA0500
20820500
10420500
0000A900
ENDCHAR
STARTCHAR uni0932094D0915094D092F
ENCODING -1
SWIDTH 1534 0
DWIDTH 18 0
BBX 19 8 0 0
BITMAP
AAAAAAAAA4
0002500850
19A81AA450
2148148050
1108105050
1004202A90
2801600050
0000100000
ENDCHAR
STARTCHAR uni0932094D0925094D092F
ENCODING -1
SWIDTH 1397 0
DWIDTH 17 0
BBX 17 8 0 0
BITMAP
AA9296AA40
0005204200
1144228200
114A850200
1108020200
1002A5A600
2800000200
0000000100
ENDCHAR
STARTCHAR uni0932094D0926094D0930
ENCODING -1
SWIDTH 933 0
DWIDTH 11 0
BBX 12 8 0 0
BITMAP
AAAAA9
0002A0
196800
214800
114814
100814
2801A4
000140
ENDCHAR
STARTCHAR uni0932094D0932094D092F
ENCODING -1
SWIDTH 1476 0
DWIDTH 18 0
BBX 18 8 0 0
BITMAP
AAAAAAAA90
1966991080
2148212080
1148219080
1108104080
1008006980
2806400080
0000000040
ENDCHAR
STARTCHAR uni0932094D0935094D0921
ENCODING -1
SWIDTH 1247 0
DWIDTH 15 0
BBX 15 8 0 0
BITMAP
AAAAAAA8
000246A0
196C0800
21480800
114806A0
10081014
28016420
00000550
ENDCHAR
STARTCHAR uni0937094D0915094D0930
ENCODING -1
SWIDTH 1042 0
DWIDTH 13 0
BBX 13 8 0 0
BITMAP
BAAAAA40
2428A800
21508200
20C04200
1A804200
00514200
001A5800
00144000
ENDCHAR
STARTCHAR uni0937094D091F094D092F
ENCODING -1
SWIDTH 997 0
DWIDTH 12 0
BBX 12 8 0 0
BITMAP
BAAAAA
24AA48
218088
100648
100408
5052A8
208008
154004
ENDCHAR
STARTCHAR uni0937094D091F094D0930
ENCODING -1
SWIDTH 493 0
DWIDTH 6 0
BBX 6 10 0 -2
BITMAP
BAA0
2480
2180
2A80
1000
5050
2080
1B40
1540
1040
ENDCHAR
STARTCHAR uni0937094D091F094D0935
ENCODING -1
SWIDTH 493 0
DWIDTH 6 0
BBX 6 10 0 -2
BITMAP
BAA0
2880
2180
2A80
1000
1050
2A80
2080
2080
1A40
ENDCHAR
STARTCHAR uni0937094D0920094D092F
ENCODING -1
SWIDTH 1006 0
DWIDTH 12 0
BBX 12 8 0 0
BITMAP
BFEAAA
3FEA48
3FC088
2F8088
209648
105508
2042A8
154004
ENDCHAR
STARTCHAR uni0937094D0920094D0930
ENCODING -1
SWIDTH 512 0
DWIDTH 6 0
BBX 6 10 0 -2
BITMAP
BFE0
3FC0
3FC0
2F80
2050
1050
2080
1F40
1540
1040
ENDCHAR
STARTCHAR uni0937094D0923094D092F
ENCODING -1
SWIDTH 1273 0
DWIDTH 15 0
BBX 16 8 0 0
BITMAP
BAAAAAA9
24820214
21821914
20C22014
1A692024
00000AA4
00000014
00000010
ENDCHAR
STARTCHAR uni0937094D092A094D0930
ENCODING -1
SWIDTH 798 0
DWIDTH 10 0
BBX 10 8 0 0
BITMAP
BAAA90
244040
214040
20D140
1A5A40
000840
002040
001040
ENDCHAR
STARTCHAR uni0937094D092E094D092F
ENCODING -1
SWIDTH 1121 0
DWIDTH 13 0
BBX 14 7 0 1
BITMAP
BAAAAA90
24402140
21419140
21AA0140
1A814140
0000AA40
00000140
ENDCHAR
STARTCHAR uni0938094D0915094D0930
ENCODING -1
SWIDTH 1084 0
DWIDTH 13 0
BBX 13 8 0 0
BITMAP
AAAAAA80
08199900
08208100
6AA08140
50208140
20208100
081A8900
04044000
ENDCHAR
STARTCHAR uni0938094D0915094D0935
ENCODING -1
SWIDTH 1369 0
DWIDTH 16 0
BBX 17 8 0 0
BITMAP
AAAAAAAA40
0819999500
0820820500
6AA0820500
5020820500
2020810500
081A80A900
0400400000
ENDCHAR
STARTCHAR uni0938094D0924094D092F
ENCODING -1
SWIDTH 1185 0
DWIDTH 14 0
BBX 15 8 0 0
BITMAP
AAAAAAA4
08000840
081AA440
6AA08040
50208080
20202A80
08200040
04040040
ENDCHAR
STARTCHAR uni0938094D0924094D0930
ENCODING -1
SWIDTH 818 0
DWIDTH 10 0
BBX 10 8 0 0
BITMAP
AAAAA0
080080
082A80
6A9080
500080
200680
081880
041040
ENDCHAR
STARTCHAR uni0938094D0924094D0935
ENCODING -1
SWIDTH 1126 0
DWIDTH 14 0
BBX 14 8 0 0
BITMAP
AAAAAA90
08002840
081A9040
6AA08040
50208040
20205140
08202A40
04040040
ENDCHAR
STARTCHAR uni0938094D0925094D092F
ENCODING -1
SWIDTH 1303 0
DWIDTH 16 0
BBX 16 8 0 0
BITMAP
AA5A1AA9
08114208
08015908
6AAA1408
50201418
200A9698
08000008
04000004
ENDCHAR
STARTCHAR uni0938094D092A094D0930
ENCODING -1
SWIDTH 850 0
DWIDTH 10 0
BBX 11 8 0 0
BITMAP
AAAAA4
082040
082040
6AA080
501A80
200540
080840
041040
ENDCHAR
STARTCHAR uni0938094D092E094D092F
ENCODING -1
SWIDTH 1189 0
DWIDTH 14 0
BBX 15 8 0 0
BITMAP
AAAAAAA4
08200850
0820A450
6AAA8050
50208090
20002A90
08000050
04000040
ENDCHAR
STARTCHAR uni093F.a01
ENCODING -1
SWIDTH 231 0
DWIDTH 3 0
BBX 6 11 0 0
BITMAP
1A90
2020
2000
A400
2000
2000
2000
2000
2000
2000
1000
ENDCHAR
STARTCHAR uni093F.a04
ENCODING -1
SWIDTH 231 0
DWIDTH 3 0
BBX 8 11 0 0
BITMAP
1AA9
2002
2000
A400
2000
2000
2000
2000
2000
2000
1000
ENDCHAR
STARTCHAR uni093F.a05
ENCODING -1
SWIDTH 231 0
DWIDTH 3 0
BBX 8 11 0 0
BITMAP
1AAA
2001
2000
A400
2000
2000
2000
2000
2000
2000
1000
ENDCHAR
STARTCHAR uni093F.a06
ENCODING -1
SWIDTH 231 0
DWIDTH 3 0
BBX 9 11 0 0
BITMAP
1AAA40
200080
200000
A40000
200000
200000
200000
200000
200000
200000
100000
ENDCHAR
STARTCHAR uni093F.a07
ENCODING -1
SWIDTH 231 0
DWIDTH 3 0
BBX 10 11 0 0
BITMAP
1AAA80
200050
200000
A40000
200000
200000
200000
200000
200000
200000
100000
ENDCHAR
STARTCHAR uni093F.a08
ENCODING -1
SWIDTH 231 0
DWIDTH 3 0
BBX 10 11 0 0
BITMAP
1AAA90
200020
200000
A40000
200000
200000
200000
200000
200000
200000
100000
ENDCHAR
STARTCHAR uni093F.a09
ENCODING -1
SWIDTH 231 0
DWIDTH 3 0
BBX 11 11 0 0
BITMAP
1AAAA0
200014
200000
A40000
200000
200000
200000
200000
200000
200000
100000
ENDCHAR
STARTCHAR uni093F.a10
ENCODING -1
SWIDTH 231 0
DWIDTH 3 0
BBX 11 11 0 0
BITMAP
1AAAA4
200008
200000
A40000
200000
200000
200000
200000
200000
200000
100000
ENDCHAR
STARTCHAR uni093F.a11
ENCODING -1
SWIDTH 231 0
DWIDTH 3 0
BBX 12 11 0 0
BITMAP
1AAAA8
200001
200000
A40000
200000
200000
200000
200000
200000
200000
100000
ENDCHAR
STARTCHAR uni093F.a12
ENCODING -1
SWIDTH 231 0
DWIDTH 3 0
BBX 12 11 0 0
BITMAP
1AAAAA
200002
200000
A40000
200000
200000
200000
200000
200000
200000
100000
ENDCHAR
STARTCHAR uni093F.a13
ENCODING -1
SWIDTH 231 0
DWIDTH 3 0
BBX 13 11 0 0
BITMAP
1AAAAA40
20000080
20000000
A4000000
20000000
20000000
20000000
20000000
20000000
20000000
10000000
ENDCHAR
STARTCHAR uni093F.a14
ENCODING -1
SWIDTH 231 0
DWIDTH 3 0
BBX 14 11 0 0
BITMAP
1AAAAA80
20000050
20000000
A4000000
20000000
20000000
20000000
20000000
20000000
20000000
10000000
ENDCHAR
STARTCHAR uni093F.a15
ENCODING -1
SWIDTH 231 0
DWIDTH 3 0
BBX 14 11 0 0
BITMAP
1AAAAA90
20000020
20000000
A4000000
20000000
20000000
20000000
20000000
20000000
20000000
10000000
ENDCHAR
STARTCHAR uni093F.a16
ENCODING -1
SWIDTH 231 0
DWIDTH 3 0
BBX 15 11 0 0
BITMAP
1AAAAAA0
20000014
20000000
A4000000
20000000
20000000
20000000
20000000
20000000
20000000
10000000
ENDCHAR
STARTCHAR uni093F.a17
ENCODING -1
SWIDTH 231 0
DWIDTH 3 0
BBX 15 11 0 0
BITMAP
1AAAAAA4
20000008
20000000
A4000000
20000000
20000000
20000000
20000000
20000000
20000000
10000000
ENDCHAR
STARTCHAR uni093F.a18
ENCODING -1
SWIDTH 231 0
DWIDTH 3 0
BBX 16 11 0 0
BITMAP
1AAAAAA8
20000001
20000000
A4000000
20000000
20000000
20000000
20000000
20000000
20000000
10000000
ENDCHAR
STARTCHAR uni093F.a19
ENCODING -1
SWIDTH 231 0
DWIDTH 3 0
BBX 16 11 0 0
BITMAP
1AAAAAAA
20000002
20000000
A4000000
20000000
20000000
20000000
20000000
20000000
20000000
10000000
ENDCHAR
STARTCHAR uni093F.a20
ENCODING -1
SWIDTH 231 0
DWIDTH 3 0
BBX 17 11 0 0
BITMAP
1AAAAAAA40
2000000080
2000000000
A400000000
2000000000
2000000000
2000000000
2000000000
2000000000
2000000000
1000000000
ENDCHAR
STARTCHAR uni093F.a21
ENCODING -1
SWIDTH 231 0
DWIDTH 3 0
BBX 17 11 0 0
BITMAP
1AAAAAAA80
2000000040
2000000000
A400000000
2000000000
2000000000
2000000000
2000000000
2000000000
2000000000
1000000000
ENDCHAR
STARTCHAR uni093F.a22
ENCODING -1
SWIDTH 231 0
DWIDTH 3 0
BBX 18 11 0 0
BITMAP
1AAAAAAA90
2000000020
2000000000
A400000000
2000000000
2000000000
2000000000
2000000000
2000000000
2000000000
1000000000
ENDCHAR
STARTCHAR uni093F.a23
ENCODING -1
SWIDTH 231 0
DWIDTH 3 0
BBX 19 11 0 0
BITMAP
1AAAAAAAA0
2000000014
2000000000
A400000000
2000000000
2000000000
2000000000
2000000000
2000000000
2000000000
1000000000
ENDCHAR
STARTCHAR uni093F.a24
ENCODING -1
SWIDTH 231 0
DWIDTH 3 0
BBX 19 11 0 0
BITMAP
1AAAAAAAA4
2000000008
2000000000
A400000000
2000000000
2000000000
2000000000
2000000000
2000000000
2000000000
1000000000
ENDCHAR
STARTCHAR uni093F.a25
ENCODING -1
SWIDTH 231 0
DWIDTH 3 0
BBX 20 11 0 0
BITMAP
1AAAAAAAA8
2000000005
2000000000
A400000000
2000000000
2000000000
2000000000
2000000000
2000000000
2000000000
1000000000
ENDCHAR
STARTCHAR uni093F.a26
ENCODING -1
SWIDTH 231 0
DWIDTH 3 0
BBX 20 11 0 0
BITMAP
1AAAAAAAA9
2000000002
2000000000
A400000000
2000000000
2000000000
2000000000
2000000000
2000000000
2000000000
1000000000
ENDCHAR
STARTCHAR uni093F.a32
ENCODING -1
SWIDTH 231 0
DWIDTH 3 0
BBX 25 11 0 0
BITMAP
1AAAAAAAAAAA00
20000000000140
20000000000000
A4000000000000
20000000000000
20000000000000
20000000000000
20000000000000
20000000000000
20000000000000
10000000000000
ENDCHAR
STARTCHAR uni093E0901
ENCODING -1
SWIDTH 231 0
DWIDTH 3 0
BBX 4 11 -1 0
BITMAP
04
6A
00
29
08
08
08
08
08
08
04
ENDCHAR
STARTCHAR dvNG_GA
ENCODING -1
SWIDTH 562 0
DWIDTH 7 0
BBX 7 11 0 -3
BITMAP
AAA4
1A90
2014
1A80
0020
1020
2A90
0480
1480
6080
0080
ENDCHAR
STARTCHAR dvNG_MA
ENCODING -1
SWIDTH 728 0
DWIDTH 9 0
BBX 9 11 0 -3
BITMAP
AAAA40
1A4200
200200
201200
1A4200
108200
2A8200
014200
01AA00
014200
000200
ENDCHAR
STARTCHAR dvNY_CA
ENCODING -1
SWIDTH 963 0
DWIDTH 12 0
BBX 12 8 0 0
BITMAP
AAAAA9
280004
052A44
028804
010814
0506A4
680004
000004
ENDCHAR
STARTCHAR dvTT_GA
ENCODING -1
SWIDTH 510 0
DWIDTH 6 0
BBX 7 11 0 -3
BITMAP
AAA4
0080
1A80
2000
5010
2010
1A80
0480
1480
6080
0080
ENDCHAR
STARTCHAR dvTTH_TTHA
ENCODING -1
SWIDTH 511 0
DWIDTH 6 0
BBX 6 12 0 -4
BITMAP
AAA0
1A80
2040
5050
2040
1A80
0180
2A80
1050
5050
2040
1A40
ENDCHAR
STARTCHAR dvDD_GA
ENCODING -1
SWIDTH 541 0
DWIDTH 6 0
BBX 7 11 0 -3
BITMAP
AAA4
1A80
2000
1A80
0020
1020
2A90
0480
1480
6080
0080
ENDCHAR
STARTCHAR dvDDH_DDHA
ENCODING -1
SWIDTH 487 0
DWIDTH 6 0
BBX 6 10 0 -2
BITMAP
AAA0
1A40
2000
5280
2150
2A80
2000
1280
2150
1A80
ENDCHAR
STARTCHAR dvSHA_MatraVocalicR
ENCODING -1
SWIDTH 558 0
DWIDTH 7 0
BBX 7 11 0 -3
BITMAP
2A24
5220
2220
1D20
51A0
0020
0020
0190
0200
0204
01A4
ENDCHAR
STARTCHAR dvT_KH_NA
ENCODING -1
SWIDTH 1341 0
DWIDTH 16 0
BBX 16 8 0 0
BITMAP
AAAAAAAA
0008A408
104949A8
10A50A08
50514A08
5020A408
20140008
14040004
ENDCHAR
STARTCHAR dvT_S_NA
ENCODING -1
SWIDTH 1169 0
DWIDTH 14 0
BBX 14 8 0 0
BITMAP
AAAAAAA0
00080080
10481A80
10AAA080
50501080
50200080
20140080
14040040
ENDCHAR
ENDFONT
